<?xml version="1.0" encoding="UTF-8"?>
<svg version="1.1" xmlns="http://www.w3.org/2000/svg" width="376" height="345">
<path d="M0 0 C0.97698349 0.0920018 1.95396698 0.1840036 2.96055603 0.27879333 C3.69810623 0.34993851 4.43565643 0.42108368 5.19555664 0.49438477 C5.26561963 17.11440811 5.31853147 33.73438359 5.35099316 50.35451889 C5.36646591 58.07143845 5.38756316 65.78826627 5.421875 73.50512695 C5.45176495 80.23068943 5.47112868 86.95618548 5.47782212 93.68181252 C5.4817351 97.2434208 5.4909394 100.80483902 5.51274681 104.36638641 C5.53688665 108.34105507 5.53752689 112.31553734 5.53613281 116.2902832 C5.54691864 117.47279663 5.55770447 118.65531006 5.56881714 119.87365723 C5.56469315 120.9561676 5.56056915 122.03867798 5.55632019 123.1539917 C5.55908557 124.09422054 5.56185095 125.03444939 5.56470013 126.00317001 C5.12507523 128.9700381 4.24589919 130.33401076 2.19555664 132.49438477 C-3.01053017 134.11926924 -8.64883692 133.71691027 -14.05444336 133.74438477 C-15.55297852 133.77532227 -15.55297852 133.77532227 -17.08178711 133.80688477 C-26.61088252 133.8567101 -33.88268416 132.24309999 -40.80444336 125.49438477 C-42.04063457 123.02200235 -41.93026385 121.3948622 -41.931427 118.62901306 C-41.93424683 117.6011821 -41.93706665 116.57335114 -41.93997192 115.51437378 C-41.93794769 114.38234528 -41.93592346 113.25031677 -41.93383789 112.08398438 C-41.93559021 110.89536301 -41.93734253 109.70674164 -41.93914795 108.48210144 C-41.94280202 105.21778037 -41.94193577 101.95349967 -41.93876886 98.68917918 C-41.93624219 95.27834534 -41.93858361 91.86751424 -41.94015503 88.4566803 C-41.94197557 82.72925327 -41.93957316 77.00183913 -41.93481445 71.27441406 C-41.92936946 64.64425117 -41.93113667 58.014119 -41.93664086 51.38395685 C-41.94117216 45.69901959 -41.94182253 40.0140916 -41.93920219 34.32915312 C-41.93763984 30.93039258 -41.93744454 27.53164651 -41.94073868 24.13288689 C-41.94326331 20.3470333 -41.9394274 16.56123971 -41.93383789 12.77539062 C-41.93586212 11.64133789 -41.93788635 10.50728516 -41.93997192 9.33886719 C-41.9371521 8.31385605 -41.93433228 7.28884491 -41.931427 6.23277283 C-41.93104998 5.3366223 -41.93067295 4.44047178 -41.9302845 3.51716518 C-41.80444336 1.49438477 -41.80444336 1.49438477 -40.80444336 0.49438477 C-39.07017297 0.33610789 -37.32985669 0.24317547 -35.58959961 0.17797852 C-33.97021484 0.11513672 -33.97021484 0.11513672 -32.31811523 0.05102539 C-31.17922852 0.01170898 -30.0403418 -0.02760742 -28.86694336 -0.06811523 C-27.21082031 -0.13289063 -27.21082031 -0.13289063 -25.52124023 -0.19897461 C-16.97482656 -0.51700418 -8.52374411 -0.81107945 0 0 Z M-22.80444336 15.49438477 C-22.23099399 18.36163163 -21.94299186 19.35583627 -19.80444336 21.49438477 C-17.20163768 21.17397079 -17.20163768 21.17397079 -14.80444336 20.49438477 C-14.12296106 18.60259273 -14.12296106 18.60259273 -13.80444336 16.49438477 C-15.6298144 14.23418578 -15.6298144 14.23418578 -18.30444336 14.30688477 C-20.80235292 14.33539499 -20.80235292 14.33539499 -22.80444336 15.49438477 Z " fill="#FBFBFB" transform="translate(129.804443359375,121.505615234375)"/>
<path d="M0 0 C1.22244667 0.00333092 1.22244667 0.00333092 2.46958923 0.00672913 C3.39046829 0.00680466 4.31134735 0.00688019 5.26013184 0.00695801 C6.2611644 0.01211929 7.26219696 0.01728058 8.29356384 0.02259827 C9.31316696 0.02401321 10.33277008 0.02542816 11.38327026 0.02688599 C14.65417867 0.03250355 17.92501972 0.04505902 21.19590759 0.05775452 C23.40749515 0.06276725 25.61908377 0.06733055 27.83067322 0.07142639 C33.26494116 0.08247868 38.69916957 0.09923389 44.13340759 0.12025452 C45.37811017 8.85834349 45.42818334 17.52438988 45.48350525 26.33851624 C45.50013853 28.28004379 45.52752419 30.22150832 45.5655365 32.16273499 C45.62034834 34.98482997 45.64217325 37.8055114 45.65684509 40.62806702 C45.67951447 41.4907016 45.70218384 42.35333618 45.72554016 43.24211121 C45.71091066 47.42351184 45.47414618 50.26553842 42.85386658 53.62879944 C36.45279321 59.49104064 27.19764095 58.45827008 18.94590759 58.43275452 C17.892099 58.4488678 16.83829041 58.46498108 15.75254822 58.48158264 C8.86289851 58.48592395 4.29542957 57.9608562 -0.9969635 53.20643616 C-3.81038806 48.5623385 -3.38181916 44.27621364 -3.29237366 38.94837952 C-3.28908554 37.87021973 -3.28579742 36.79205994 -3.28240967 35.68122864 C-3.27200415 33.40840089 -3.25208037 31.13559941 -3.22328186 28.8629303 C-3.17907819 25.36913091 -3.16182703 21.87601809 -3.14979553 18.38197327 C-3.13637701 16.17493201 -3.12145558 13.96789927 -3.10487366 11.76087952 C-3.09748672 10.70991089 -3.09009979 9.65894226 -3.08248901 8.5761261 C-3.06965378 7.61132324 -3.05681854 6.64652039 -3.04359436 5.65248108 C-3.03375015 4.79930298 -3.02390594 3.94612488 -3.01376343 3.0670929 C-2.81835164 0.48210591 -2.59186841 0.16698015 0 0 Z M10.82090759 17.37025452 C8.65856335 20.89407477 8.60620011 23.05322534 9.13340759 27.12025452 C10.487706 29.06395189 10.487706 29.06395189 12.13340759 30.12025452 C14.32125346 27.17806802 14.32125346 27.17806802 15.13340759 23.49525452 C15.46340759 22.38150452 15.79340759 21.26775452 16.13340759 20.12025452 C18.92203766 18.72593948 21.05419627 18.86365357 24.13340759 19.12025452 C26.69957391 22.969504 26.68438435 25.55518491 27.13340759 30.12025452 C28.45340759 30.12025452 29.77340759 30.12025452 31.13340759 30.12025452 C32.66555647 27.05595676 32.36279307 24.50369032 32.13340759 21.12025452 C30.92371864 18.35350392 30.92371864 18.35350392 29.13340759 16.12025452 C28.74153259 15.54275452 28.34965759 14.96525452 27.94590759 14.37025452 C21.3944542 9.8520108 15.88006654 12.44782959 10.82090759 17.37025452 Z " fill="#FAFBFB" transform="translate(198.86659240722656,195.87974548339844)"/>
<path d="M0 0 C15.84 0 31.68 0 48 0 C49.1631016 13.95721925 49.1631016 13.95721925 49.125 20.625 C49.13080078 21.60533203 49.13080078 21.60533203 49.13671875 22.60546875 C49.12107805 31.09836931 48.47236009 39.49751839 48 48 C32.16 48 16.32 48 0 48 C0 32.16 0 16.32 0 0 Z " fill="#FBFCFC" transform="translate(250,143)"/>
<path d="M0 0 C15.84 0 31.68 0 48 0 C49.15662203 2.31324406 49.13841237 3.67175882 49.16113281 6.24682617 C49.17074036 7.12501511 49.1803479 8.00320404 49.19024658 8.90800476 C49.19449646 9.86004288 49.19874634 10.81208099 49.203125 11.79296875 C49.20882507 12.77235916 49.21452515 13.75174957 49.22039795 14.76081848 C49.22985725 16.83801185 49.23638561 18.9152203 49.24023438 20.99243164 C49.2499078 24.15733434 49.28090927 27.32157882 49.3125 30.48632812 C49.31903329 32.50520448 49.32428248 34.52408548 49.328125 36.54296875 C49.3404718 37.48488571 49.3528186 38.42680267 49.36553955 39.39726257 C49.34663549 45.02829478 48.77646375 49.0540166 46 54 C40.20049083 57.70524197 33.98510691 57.60726353 27.25 57.8125 C25.71859375 57.88887695 25.71859375 57.88887695 24.15625 57.96679688 C17.51479366 58.21543008 10.26975515 58.47051124 4 56 C1.11477413 53.28069866 0.1044319 51.61556272 -0.56176758 47.6887207 C-0.58907959 46.44695068 -0.6163916 45.20518066 -0.64453125 43.92578125 C-0.67289314 42.90172432 -0.67289314 42.90172432 -0.701828 41.85697937 C-0.73825088 40.40900273 -0.76542311 38.96076753 -0.78393555 37.51245117 C-0.81183849 35.36344771 -0.86694991 33.21665609 -0.92773438 31.06835938 C-1.15280342 20.6050432 -0.58378465 10.50812365 0 0 Z M14 16 C11.67749701 19.90602776 11.6002536 23.52284036 12 28 C13.46434146 31.79006025 14.70257689 32.82840975 18.25 34.875 C22.56631413 36.16989424 24.71192842 36.40336888 29 35 C32.87531475 31.96120694 34.82299676 29.28327349 35.5 24.375 C34.88815291 19.9512645 34.88815291 19.9512645 33 16 C29.47867539 13.49444211 27.17515678 12.19186233 22.9375 11.5 C19.09114739 12.15469832 16.97648157 13.49704959 14 16 Z " fill="#FAFBFB" transform="translate(250,196)"/>
<path d="M0 0 C15.51 0 31.02 0 47 0 C47 15.84 47 31.68 47 48 C31.49 48 15.98 48 0 48 C0 32.16 0 16.32 0 0 Z " fill="#FAFBFB" transform="translate(196,143)"/>
<path d="M0 0 C15.51 0 31.02 0 47 0 C47 15.84 47 31.68 47 48 C31.49 48 15.98 48 0 48 C0 32.16 0 16.32 0 0 Z " fill="#FBFCFC" transform="translate(142,143)"/>
<path d="M0 0 C1.22244667 0.00333092 1.22244667 0.00333092 2.46958923 0.00672913 C3.39046829 0.00680466 4.31134735 0.00688019 5.26013184 0.00695801 C6.2611644 0.01211929 7.26219696 0.01728058 8.29356384 0.02259827 C9.31316696 0.02401321 10.33277008 0.02542816 11.38327026 0.02688599 C14.65417867 0.03250355 17.92501972 0.04505902 21.19590759 0.05775452 C23.40749515 0.06276725 25.61908377 0.06733055 27.83067322 0.07142639 C33.26494116 0.08247868 38.69916957 0.09923389 44.13340759 0.12025452 C45.41614598 5.06612358 45.31312257 9.98476978 45.33653259 15.05775452 C45.34223267 16.01544739 45.34793274 16.97314026 45.35380554 17.95985413 C45.36323095 19.98043215 45.36977973 22.00102538 45.37364197 24.0216217 C45.38337357 27.10945813 45.41443075 30.19663588 45.44590759 33.28431702 C45.45243577 35.25045891 45.45768697 37.21660555 45.46153259 39.18275452 C45.47387939 40.10370911 45.4862262 41.0246637 45.49894714 41.973526 C45.48209695 46.82683346 45.37229757 50.22675585 42.13340759 54.12025452 C35.5281474 58.52376131 27.29397883 57.34030116 19.63340759 57.37025452 C18.31469666 57.39087952 16.99598572 57.41150452 15.63731384 57.43275452 C13.732724 57.44048889 13.732724 57.44048889 11.78965759 57.44837952 C10.632724 57.45772522 9.47579041 57.46707092 8.28379822 57.47669983 C3.94695006 56.9860149 1.42102402 55.55087608 -1.48628235 52.32067871 C-3.12685687 49.70535338 -3.23605525 48.24972932 -3.22303772 45.18397522 C-3.22603882 44.20648819 -3.22903992 43.22900116 -3.23213196 42.22189331 C-3.21978516 41.17386032 -3.20743835 40.12582733 -3.19471741 39.04603577 C-3.19284424 37.96646103 -3.19097107 36.88688629 -3.18904114 35.77459717 C-3.18232392 33.49582322 -3.16841604 31.21706073 -3.14784241 28.93836975 C-3.11661901 25.43573898 -3.10686472 21.93355769 -3.10096741 18.43080139 C-3.09180034 16.21920732 -3.08142552 14.00761785 -3.06971741 11.79603577 C-3.06546753 10.74193008 -3.06121765 9.6878244 -3.05683899 8.60177612 C-3.04723145 7.63374557 -3.0376239 6.66571503 -3.02772522 5.66835022 C-3.02089722 4.81215591 -3.01406921 3.95596161 -3.0070343 3.07382202 C-2.82080484 0.48334273 -2.59627098 0.16726379 0 0 Z M10.13340759 18.93275452 C8.89951113 22.8657995 9.05085024 25.15087757 10.13340759 29.12025452 C11.95679812 31.82593078 13.20798196 33.6575417 16.13340759 35.12025452 C20.84881862 35.62935199 24.84519988 35.76435837 29.13340759 33.62025452 C31.80231422 30.28412124 32.94150584 27.3980644 33.13340759 23.12025452 C31.94680261 18.67048582 30.77271788 16.66227845 27.25840759 13.68275452 C20.34805155 10.22757649 14.46428361 12.84246011 10.13340759 18.93275452 Z " fill="#FAFCFC" transform="translate(144.86659240722656,195.87974548339844)"/>
<path d="M0 0 C2.25 0.8125 2.25 0.8125 5.0625 2.8125 C10.58922566 6.28024943 16.75282473 5.96082355 23.12373352 5.95294189 C23.88628313 5.95591302 24.64883273 5.95888414 25.43448991 5.9619453 C27.97367192 5.97057344 30.51280647 5.97213551 33.05200195 5.97363281 C34.8791514 5.97826508 36.70629989 5.98329029 38.53344727 5.98867798 C43.48602522 6.00176274 48.43858965 6.00823901 53.39118218 6.01268864 C56.48838688 6.0156251 59.58558791 6.01973094 62.68279076 6.02419281 C72.38226819 6.03785606 82.08173721 6.04752902 91.7812236 6.0513947 C102.96159683 6.05587572 114.14184783 6.07343063 125.32218391 6.1023953 C133.97634006 6.12403422 142.63046187 6.13410013 151.28464478 6.13543582 C156.44815064 6.13648206 161.61154141 6.14235161 166.77501869 6.16025543 C171.63337578 6.17677483 176.4915317 6.17887285 181.34990692 6.17011642 C183.12759377 6.16934818 184.90529161 6.17366058 186.68295097 6.18357468 C198.80763481 6.30511804 198.80763481 6.30511804 210.50668621 3.35856247 C212.25 2.8125 212.25 2.8125 214.25 3.8125 C214.1585223 7.65456325 213.35501166 10.28700725 210.8125 13.125 C206.81845165 16.13624812 202.92164316 16.31347925 198.08766174 16.47138977 C197.29332247 16.5058767 196.4989832 16.54036362 195.68057305 16.57589561 C187.21717164 16.91397534 178.7538425 16.96079263 170.28491211 16.95776367 C168.57274301 16.96076638 166.86057457 16.9641714 165.14840698 16.96794128 C160.56016826 16.97666243 155.97194825 16.97911401 151.38370204 16.97975707 C148.50940115 16.98047322 145.63510486 16.98261787 142.76080513 16.98525429 C132.71333646 16.99446105 122.66588095 16.99859417 112.6184082 16.99780273 C103.27965563 16.99719989 93.94096042 17.00780404 84.60222238 17.0235464 C76.54997804 17.03663269 68.49775247 17.04198633 60.44549757 17.04134732 C55.65053846 17.04109311 50.85563072 17.04390368 46.0606823 17.05452538 C41.56006956 17.06422735 37.05955722 17.0642712 32.55894089 17.05700874 C30.91305837 17.05596624 29.26716951 17.05830584 27.62129784 17.0643692 C5.79014568 17.13956316 5.79014568 17.13956316 0.25 11.8125 C-0.5853125 11.0390625 -0.5853125 11.0390625 -1.4375 10.25 C-4.16970325 7.25758692 -3.83509495 4.7268678 -3.75 0.8125 C-1.75 -0.1875 -1.75 -0.1875 0 0 Z " fill="#FBFCFC" transform="translate(87.75,253.1875)"/>
<path d="M0 0 C0.66 0.33 1.32 0.66 2 1 C2 1.33 2 1.66 2 2 C3.50566528 1.75660889 3.50566528 1.75660889 5.04174805 1.50830078 C8.85773277 1.01826931 12.48746018 0.8706837 16.33203125 0.8671875 C17.00868332 0.86623077 17.68533539 0.86527405 18.38249207 0.86428833 C19.80520725 0.86361231 21.22792563 0.86542593 22.65063477 0.86962891 C24.79645949 0.87496015 26.94207252 0.86967713 29.08789062 0.86328125 C46.19064148 0.85188454 46.19064148 0.85188454 51 2 C51.495 2.99 51.495 2.99 52 4 C50.17481902 7.45406102 48.16745437 10.72923009 46.11328125 14.05078125 C39.79719909 25.49097345 39.99153079 36.8783957 40.09423828 49.73779297 C40 52 40 52 39 53 C37.5932478 53.09804851 36.18164864 53.12798186 34.77148438 53.12939453 C33.42503845 53.13412277 33.42503845 53.13412277 32.0513916 53.13894653 C30.58735901 53.13591019 30.58735901 53.13591019 29.09375 53.1328125 C27.6011969 53.13424759 27.6011969 53.13424759 26.07849121 53.13571167 C23.97013282 53.1363936 21.86177235 53.13453844 19.75341797 53.13037109 C16.51394973 53.12502303 13.27462015 53.13031567 10.03515625 53.13671875 C7.99218719 53.13605797 5.94921822 53.13477681 3.90625 53.1328125 C2.93022827 53.13483673 1.95420654 53.13686096 0.9486084 53.13894653 C0.05097778 53.13579437 -0.84665283 53.13264221 -1.77148438 53.12939453 C-2.56566772 53.12859894 -3.35985107 53.12780334 -4.17810059 53.12698364 C-6 53 -6 53 -7 52 C-8.30206286 45.05566473 -8.0711297 37.9209961 -7.87524414 30.890625 C-7.80993552 26.95589319 -8.10270504 24.41808392 -10 21 C-10.1953125 18.52734375 -10.1953125 18.52734375 -10.125 15.9375 C-10.10695313 15.08027344 -10.08890625 14.22304688 -10.0703125 13.33984375 C-10.04710938 12.56769531 -10.02390625 11.79554687 -10 11 C-10 10.01 -10 9.02 -10 8 C-8.1875 5.8125 -8.1875 5.8125 -6 4 C-5.01 4 -4.02 4 -3 4 C-2.67 3.01 -2.34 2.02 -2 1 C-1.34 0.67 -0.68 0.34 0 0 Z M0 13 C-1.33550847 15.84627591 -1.33550847 15.84627591 -1 19 C2.27015928 24.02203033 6.66257673 25.19086921 12.2265625 26.49609375 C17.96291104 27.53833173 23.53709594 27.66995441 29.03125 25.45703125 C33.38782964 22.23281656 35.91765599 16.90586132 38 12 C37.505 11.01 37.505 11.01 37 10 C32.53429551 9.9256161 28.06892316 9.87128829 23.6027832 9.83520508 C22.08481562 9.82015647 20.56689124 9.79971262 19.04907227 9.77368164 C16.86203323 9.73712347 14.67557104 9.72023477 12.48828125 9.70703125 C11.17384033 9.6913208 9.85939941 9.67561035 8.50512695 9.65942383 C4.78128173 10.02125179 2.9159041 10.69565354 0 13 Z " fill="#FCFDFD" transform="translate(95,42)"/>
<path d="M0 0 C2.375 -0.125 2.375 -0.125 5 0 C7 2 7 2 7.23046875 4.3984375 C7.20919922 5.87183594 7.20919922 5.87183594 7.1875 7.375 C7.16623047 8.97601563 7.16623047 8.97601563 7.14453125 10.609375 C6.95892911 14.96350096 6.534522 19.27438044 6.0234375 23.6015625 C6.01570313 24.39304687 6.00796875 25.18453125 6 26 C7.86089721 28.29261997 7.86089721 28.29261997 10.79736328 28.22705078 C11.95993652 28.21657715 13.12250977 28.20610352 14.3203125 28.1953125 C15.57714844 28.18886719 16.83398438 28.18242188 18.12890625 28.17578125 C19.44761719 28.15902344 20.76632812 28.14226562 22.125 28.125 C23.46483721 28.11496983 24.80468152 28.10584404 26.14453125 28.09765625 C29.42986573 28.07402075 32.71484465 28.04107234 36 28 C35.05168774 23.54247737 34.0635791 19.11325941 32.82421875 14.7265625 C32.63666016 14.04722656 32.44910156 13.36789063 32.25585938 12.66796875 C31.86948348 11.27913994 31.47055921 9.89375409 31.06054688 8.51171875 C30.51171875 6.4765625 30.51171875 6.4765625 30 3 C31.26953125 1.0234375 31.26953125 1.0234375 33 0 C35 0 35 0 37 1 C47.05244444 15.18358599 46 33.58807867 46 50 C30.16 50 14.32 50 -2 50 C-2.04125 42.86375 -2.0825 35.7275 -2.125 28.375 C-2.14320801 26.13251465 -2.16141602 23.8900293 -2.18017578 21.57958984 C-2.18602036 19.79004149 -2.19111601 18.00049047 -2.1953125 16.2109375 C-2.20554443 15.29159424 -2.21577637 14.37225098 -2.22631836 13.42504883 C-2.22764218 8.53617211 -1.91922982 4.58888514 0 0 Z " fill="#FBFDFC" transform="translate(252,48)"/>
<path d="M0 0 C2.625 0.9375 2.625 0.9375 5 2 C5.26190168 9.94435084 4.6510281 17.42032215 3.33984375 25.26171875 C3.17162109 26.61716797 3.17162109 26.61716797 3 28 C4.09187983 29.31775285 4.09187983 29.31775285 6.77563477 29.11352539 C8.59019165 29.10567017 8.59019165 29.10567017 10.44140625 29.09765625 C11.74658203 29.09443359 13.05175781 29.09121094 14.39648438 29.08789062 C15.7851569 29.07953401 17.17382877 29.07106905 18.5625 29.0625 C19.95507656 29.05748666 21.34765481 29.05292347 22.74023438 29.04882812 C26.1601987 29.03699434 29.58007844 29.0205088 33 29 C32.7834375 27.80503906 32.566875 26.61007813 32.34375 25.37890625 C32.06210108 23.77350743 31.78087367 22.16803463 31.5 20.5625 C31.35691406 19.77939453 31.21382812 18.99628906 31.06640625 18.18945312 C30.12028397 12.71545995 29.86654281 7.55515562 30 2 C31.65 1.34 33.3 0.68 35 0 C37.67164533 3.09993133 38.53355161 5.48591076 39.16796875 9.5078125 C39.33876953 10.57773437 39.50957031 11.64765625 39.68554688 12.75 C39.85119141 13.86375 40.01683594 14.9775 40.1875 16.125 C40.45336914 17.76082031 40.45336914 17.76082031 40.72460938 19.4296875 C42.41480836 30.34093344 41.92794323 39.86468124 41 51 C25.49 51 9.98 51 -6 51 C-6.27451442 24.92113041 -6.27451442 24.92113041 -5.125 14.75 C-5.04652832 14.04375488 -4.96805664 13.33750977 -4.88720703 12.60986328 C-4.37055463 8.54705163 -3.55263445 4.79532866 -2 1 C-1.34 0.67 -0.68 0.34 0 0 Z " fill="#FBFCFC" transform="translate(202,47)"/>
<path d="M0 0 C4.875 0.875 4.875 0.875 6 2 C6.29884426 11.22148004 2.6787666 20.3455233 0 29 C9.9 28.67 19.8 28.34 30 28 C29.55332983 20.28065047 29.55332983 20.28065047 29.0715332 12.56347656 C29.02343506 11.59893555 28.97533691 10.63439453 28.92578125 9.640625 C28.86817627 8.65610352 28.81057129 7.67158203 28.7512207 6.65722656 C29.04526372 3.51653552 29.79042754 2.21964995 32 0 C34.625 -0.3125 34.625 -0.3125 37 0 C38 1 38 1 38.12025452 2.98048401 C38.11803391 3.84874313 38.11581329 4.71700226 38.11352539 5.61157227 C38.11344986 6.59251358 38.11337433 7.5734549 38.11329651 8.5841217 C38.10813522 9.6507756 38.10297394 10.7174295 38.09765625 11.81640625 C38.0962413 12.9025975 38.09482635 13.98878876 38.09336853 15.1078949 C38.08775048 18.59279075 38.07519492 22.07762342 38.0625 25.5625 C38.05748733 27.91861887 38.05292402 30.27473874 38.04882812 32.63085938 C38.03862411 38.42061711 38.01905224 44.21023745 38 50 C22.49 50 6.98 50 -9 50 C-9.63568854 31.77692858 -8.67805828 16.31370715 0 0 Z " fill="#FBFCFC" transform="translate(151,48)"/>
<path d="M0 0 C1.22244667 0.00333092 1.22244667 0.00333092 2.46958923 0.00672913 C3.39046829 0.00680466 4.31134735 0.00688019 5.26013184 0.00695801 C6.2611644 0.01211929 7.26219696 0.01728058 8.29356384 0.02259827 C9.31316696 0.02401321 10.33277008 0.02542816 11.38327026 0.02688599 C14.65417867 0.03250355 17.92501972 0.04505902 21.19590759 0.05775452 C23.40749515 0.06276725 25.61908377 0.06733055 27.83067322 0.07142639 C33.26494116 0.08247868 38.69916957 0.09923389 44.13340759 0.12025452 C45.53368115 23.70263935 45.53368115 23.70263935 44.13340759 35.12025452 C37.60061973 35.14552454 31.06784438 35.16308744 24.53501892 35.17518616 C22.31073028 35.18022768 20.08644496 35.18706074 17.86216736 35.19569397 C14.67262451 35.2077675 11.4831253 35.21348447 8.29356384 35.21791077 C6.792015 35.22565269 6.792015 35.22565269 5.26013184 35.23355103 C4.33925278 35.23362656 3.41837372 35.23370209 2.46958923 35.23377991 C1.65462479 35.23600052 0.83966034 35.23822113 0 35.24050903 C-1.86659241 35.12025452 -1.86659241 35.12025452 -2.86659241 34.12025452 C-2.96742004 31.68365006 -3.00631844 29.27600751 -2.99940491 26.83900452 C-3.00036163 26.11032166 -3.00131836 25.38163879 -3.00230408 24.63087463 C-3.00298576 23.08745742 -3.00113228 21.54403735 -2.9969635 20.00062561 C-2.99161503 17.63028052 -2.99690883 15.26012492 -3.00331116 12.88978577 C-3.00265037 11.3936916 -3.00136921 9.89759754 -2.99940491 8.40150452 C-3.00142914 7.68796814 -3.00345337 6.97443176 -3.00553894 6.23927307 C-2.97654098 0.19176254 -2.97654098 0.19176254 0 0 Z M6.13340759 9.12025452 C6.11278259 12.06962952 6.09215759 15.01900452 6.07090759 18.05775452 C6.06180359 18.98837708 6.05269958 19.91899963 6.0433197 20.87782288 C6.04082214 21.60622375 6.03832458 22.33462463 6.03575134 23.08509827 C6.03051453 23.83396301 6.02527771 24.58282776 6.0198822 25.35438538 C5.93999007 27.14693191 5.93999007 27.14693191 7.13340759 28.12025452 C9.91777998 28.27411994 12.6602399 28.35194281 15.44590759 28.37025452 C16.21870056 28.39087952 16.99149353 28.41150452 17.78770447 28.43275452 C22.45854322 28.46989399 22.45854322 28.46989399 26.67637634 26.60462952 C27.15719666 26.11478577 27.63801697 25.62494202 28.13340759 25.12025452 C27.47340759 24.74900452 26.81340759 24.37775452 26.13340759 23.99525452 C24.13340759 22.12025452 24.13340759 22.12025452 23.82090759 18.99525452 C24.13340759 16.12025452 24.13340759 16.12025452 25.13340759 15.12025452 C26.82482415 15.20988514 28.51300361 15.36603128 30.19590759 15.55775452 C31.57455994 15.71050842 31.57455994 15.71050842 32.98106384 15.86634827 C33.69133728 15.95013733 34.40161072 16.03392639 35.13340759 16.12025452 C35.13340759 13.81025452 35.13340759 11.50025452 35.13340759 9.12025452 C25.56340759 9.12025452 15.99340759 9.12025452 6.13340759 9.12025452 Z M29.13340759 27.12025452 C30.78340759 27.12025452 32.43340759 27.12025452 34.13340759 27.12025452 C34.13340759 26.46025452 34.13340759 25.80025452 34.13340759 25.12025452 C31.80983248 24.93535445 31.80983248 24.93535445 29.13340759 27.12025452 Z " fill="#F8FAFB" transform="translate(198.86659240722656,102.87974548339844)"/>
<path d="M0 0 C0.80972763 0.00142502 1.61945526 0.00285004 2.45372009 0.00431824 C3.83008385 -0.00029671 3.83008385 -0.00029671 5.23425293 -0.00500488 C6.22698715 0.00218063 7.21972137 0.00936615 8.24253845 0.01676941 C9.7662632 0.01745674 9.7662632 0.01745674 11.32077026 0.01815796 C13.47024197 0.0211822 15.61971145 0.0290736 17.76914978 0.04142761 C21.07220662 0.05968192 24.37498332 0.06193736 27.67808533 0.06169128 C29.76207214 0.06660637 31.84605705 0.07243465 33.93003845 0.07926941 C35.42217613 0.08093864 35.42217613 0.08093864 36.94445801 0.0826416 C37.85888168 0.08902145 38.77330536 0.09540131 39.71543884 0.10197449 C40.9288369 0.10769218 40.9288369 0.10769218 42.16674805 0.11352539 C44.0198822 0.24723816 44.0198822 0.24723816 45.0198822 1.24723816 C45.10835054 3.76791997 45.13522745 6.26178233 45.11753845 8.78239441 C45.11653137 9.44976624 45.11552429 10.11713806 45.11448669 10.80473328 C45.10924029 13.30641896 45.09527911 15.80808022 45.0823822 18.30973816 C45.0617572 23.89911316 45.0411322 29.48848816 45.0198822 35.24723816 C29.1798822 35.24723816 13.3398822 35.24723816 -2.9801178 35.24723816 C-3.9801178 13.24723816 -3.9801178 13.24723816 -3.9801178 2.24723816 C-1.9801178 0.24723816 -1.9801178 0.24723816 0 0 Z M6.0198822 9.24723816 C6.0198822 15.51723816 6.0198822 21.78723816 6.0198822 28.24723816 C15.2598822 28.24723816 24.4998822 28.24723816 34.0198822 28.24723816 C34.0198822 21.97723816 34.0198822 15.70723816 34.0198822 9.24723816 C24.7798822 9.24723816 15.5398822 9.24723816 6.0198822 9.24723816 Z " fill="#F9FBFB" transform="translate(252.98011779785156,102.75276184082031)"/>
<path d="M0 0 C1.22244667 0.00333092 1.22244667 0.00333092 2.46958923 0.00672913 C3.39046829 0.00680466 4.31134735 0.00688019 5.26013184 0.00695801 C6.2611644 0.01211929 7.26219696 0.01728058 8.29356384 0.02259827 C9.31316696 0.02401321 10.33277008 0.02542816 11.38327026 0.02688599 C14.65417867 0.03250355 17.92501972 0.04505902 21.19590759 0.05775452 C23.40749515 0.06276725 25.61908377 0.06733055 27.83067322 0.07142639 C33.26494116 0.08247868 38.69916957 0.09923389 44.13340759 0.12025452 C44.29922185 3.63449704 44.46261524 7.14884824 44.62559509 10.66322327 C44.67224304 11.65124939 44.71889099 12.63927551 44.76695251 13.65724182 C45.47790042 29.06431563 45.47790042 29.06431563 45.13340759 34.12025452 C43.56040431 35.69325779 41.99656714 35.24750956 39.81309509 35.24964905 C38.89544373 35.25280121 37.97779236 35.25595337 37.03233337 35.25920105 C36.03443787 35.25717682 35.03654236 35.25515259 34.00840759 35.25306702 C32.99117615 35.25402374 31.9739447 35.25498047 30.92588806 35.25596619 C28.77045124 35.25664813 26.61501237 35.25479287 24.45957947 35.25062561 C21.14768388 35.24527757 17.83592393 35.25057015 14.52403259 35.25697327 C12.43549062 35.25631249 10.34694874 35.25503133 8.25840759 35.25306702 C6.76156433 35.25610336 6.76156433 35.25610336 5.23448181 35.25920105 C4.31683044 35.25604889 3.39917908 35.25289673 2.45372009 35.24964905 C1.64177185 35.24885345 0.82982361 35.24805786 -0.00672913 35.24723816 C-1.86659241 35.12025452 -1.86659241 35.12025452 -2.86659241 34.12025452 C-2.96742004 31.68365006 -3.00631844 29.27600751 -2.99940491 26.83900452 C-3.00036163 26.11032166 -3.00131836 25.38163879 -3.00230408 24.63087463 C-3.00298576 23.08745742 -3.00113228 21.54403735 -2.9969635 20.00062561 C-2.99161503 17.63028052 -2.99690883 15.26012492 -3.00331116 12.88978577 C-3.00265037 11.3936916 -3.00136921 9.89759754 -2.99940491 8.40150452 C-3.00142914 7.68796814 -3.00345337 6.97443176 -3.00553894 6.23927307 C-2.97654098 0.19176254 -2.97654098 0.19176254 0 0 Z M7.13340759 9.12025452 C7.13340759 15.39025452 7.13340759 21.66025452 7.13340759 28.12025452 C16.37340759 28.12025452 25.61340759 28.12025452 35.13340759 28.12025452 C35.13340759 21.85025452 35.13340759 15.58025452 35.13340759 9.12025452 C25.89340759 9.12025452 16.65340759 9.12025452 7.13340759 9.12025452 Z " fill="#F9FCFC" transform="translate(144.86659240722656,102.87974548339844)"/>
<path d="M0 0 C3.27248047 2.7082597 3.48757001 5.99285973 3.88671875 10 C3.99983888 11.9971554 4 13.99964357 4 16 C0.25577071 18.49615286 -3.65117199 18.61489576 -8 18 C-10.5 16.5 -10.5 16.5 -12 15 C-11.34654626 10.53473275 -10.47817643 6.27028746 -9 2 C-5.52957297 -0.31361802 -4.08165827 -0.51020728 0 0 Z " fill="#ECEEEE" transform="translate(223,214)"/>
<path d="M0 0 C-0.25 2.875 -0.25 2.875 -1 6 C-4.36171014 8.45370802 -7.47645337 8.16016121 -11.515625 7.9765625 C-12.76601562 7.925 -14.01640625 7.8734375 -15.3046875 7.8203125 C-16.60664062 7.75585938 -17.90859375 7.69140625 -19.25 7.625 C-20.56742188 7.56828125 -21.88484375 7.5115625 -23.2421875 7.453125 C-26.49534406 7.31168341 -29.74772552 7.16026986 -33 7 C-33.04254356 5.00045254 -33.04080783 2.99958364 -33 1 C-30.37070383 -1.62929617 -23.28243393 -0.44329556 -19.69921875 -0.55761719 C-17.64027609 -0.62450374 -15.58195031 -0.70234199 -13.5234375 -0.78125 C-11.58210938 -0.84699219 -11.58210938 -0.84699219 -9.6015625 -0.9140625 C-8.40869629 -0.9548291 -7.21583008 -0.9955957 -5.98681641 -1.03759766 C-3 -1 -3 -1 0 0 Z " fill="#FAFCFC" transform="translate(129,104)"/>
<path d="M0 0 C0.721875 0.00257812 1.44375 0.00515625 2.1875 0.0078125 C2.909375 0.00523438 3.63125 0.00265625 4.375 0 C6.1875 0.1328125 6.1875 0.1328125 7.1875 1.1328125 C7.34332303 2.47296471 7.43794142 3.82040153 7.50390625 5.16796875 C7.56674805 6.38129883 7.56674805 6.38129883 7.63085938 7.61914062 C7.67017578 8.46927734 7.70949219 9.31941406 7.75 10.1953125 C7.79318359 11.04931641 7.83636719 11.90332031 7.88085938 12.78320312 C7.98726702 14.89953287 8.08791731 17.01615063 8.1875 19.1328125 C5.54291621 20.45510439 3.50988699 20.22958444 0.5625 20.1953125 C-0.44039062 20.18628906 -1.44328125 20.17726563 -2.4765625 20.16796875 C-3.24742187 20.15636719 -4.01828125 20.14476563 -4.8125 20.1328125 C-5.05863739 13.61017159 -4.34270433 7.48818668 -2.8125 1.1328125 C-1.8125 0.1328125 -1.8125 0.1328125 0 0 Z " fill="#FBFDFD" transform="translate(165.8125,53.8671875)"/>
<path d="M0 0 C2.31 0.33 4.62 0.66 7 1 C9.71915734 7.97522969 11.14845035 13.4290319 11 21 C7.04 21 3.08 21 -1 21 C-1.22155127 18.06294869 -1.42774197 15.12619637 -1.625 12.1875 C-1.68945312 11.35412109 -1.75390625 10.52074219 -1.8203125 9.66210938 C-1.871875 8.85966797 -1.9234375 8.05722656 -1.9765625 7.23046875 C-2.02893066 6.49207764 -2.08129883 5.75368652 -2.13525391 4.99291992 C-2 3 -2 3 0 0 Z " fill="#FBFCFD" transform="translate(267,53)"/>
<path d="M0 0 C6.0546875 -0.1953125 6.0546875 -0.1953125 8 0 C11.02093215 3.02093215 10.46676834 6.56372072 10.625 10.625 C10.66367188 11.42679688 10.70234375 12.22859375 10.7421875 13.0546875 C10.83653931 15.03607556 10.91936215 17.01800645 11 19 C6.92212105 19.89445704 3.18001995 20.08196118 -1 20 C-1.11381955 13.23405981 -0.88021369 6.71162938 0 0 Z " fill="#FBFDFD" transform="translate(215,54)"/>
<path d="M0 0 C3.4375 0.5625 3.4375 0.5625 5.375 2.25 C6.62964083 4.98068887 6.89452746 6.59182151 6.4375 9.5625 C4.99445903 11.58275736 3.80090187 12.39291246 1.5625 13.4375 C-1.62883623 13.62522566 -3.08940944 12.51493991 -5.5625 10.5625 C-6.875 7.875 -6.875 7.875 -7.5625 5.5625 C-5.27578583 1.90375732 -4.36044633 0.68849153 0 0 Z " fill="#F8FBFB" transform="translate(273.5625,213.4375)"/>
<path d="M0 0 C2.375 1.3125 2.375 1.3125 4.375 3.3125 C4.71990322 7.36511287 4.67663882 8.86004176 2.375 12.3125 C-1 12.8125 -1 12.8125 -4.625 12.3125 C-7.0625 9.8125 -7.0625 9.8125 -8.625 7.3125 C-7.70678464 4.48133598 -6.85842141 2.56201943 -4.8125 0.375 C-2.625 -0.6875 -2.625 -0.6875 0 0 Z " fill="#FBFDFD" transform="translate(167.625,213.6875)"/>
<path d="M0 0 C1.20462891 0.16048828 1.20462891 0.16048828 2.43359375 0.32421875 C3.64208984 0.47310547 3.64208984 0.47310547 4.875 0.625 C6.87109375 1.01171875 6.87109375 1.01171875 7.87109375 2.01171875 C8.01224536 4.68230726 7.91356482 7.33604113 7.87109375 10.01171875 C5.06193901 11.41629612 2.98298841 11.26067032 -0.12890625 11.01171875 C-2.50390625 9.88671875 -2.50390625 9.88671875 -4.12890625 8.01171875 C-4.50390625 4.94921875 -4.50390625 4.94921875 -4.12890625 2.01171875 C-2.12890625 0.01171875 -2.12890625 0.01171875 0 0 Z " fill="#20262B" transform="translate(226.12890625,116.98828125)"/>
<path d="M0 0 C0.474375 0.515625 0.94875 1.03125 1.4375 1.5625 C5.30997616 3.73486467 8.75229924 2.75333154 13 2 C13.66 3.65 14.32 5.3 15 7 C10.50241928 10.37318554 7.43948065 10.51804578 2 10 C-0.5 8.5 -0.5 8.5 -2 7 C-1.125 1.125 -1.125 1.125 0 0 Z " fill="#1F2223" transform="translate(213,222)"/>
<path d="M0 0 C0.5775 0.45375 1.155 0.9075 1.75 1.375 C3.7800333 2.84113516 5.73539843 3.94857784 8 5 C6.68 5 5.36 5 4 5 C4 5.99 4 6.98 4 8 C6.97 8.495 6.97 8.495 10 9 C10 9.33 10 9.66 10 10 C2.61538462 10.36923077 2.61538462 10.36923077 -0.5 8.5 C-0.995 8.005 -1.49 7.51 -2 7 C-1.125 1.125 -1.125 1.125 0 0 Z " fill="#393C3D" transform="translate(213,222)"/>
<path d="M0 0 C1.20462891 0.16048828 1.20462891 0.16048828 2.43359375 0.32421875 C3.64208984 0.47310547 3.64208984 0.47310547 4.875 0.625 C6.87109375 1.01171875 6.87109375 1.01171875 7.87109375 2.01171875 C8.01224536 4.68230726 7.91356482 7.33604113 7.87109375 10.01171875 C6.88109375 10.34171875 5.89109375 10.67171875 4.87109375 11.01171875 C4.87109375 8.37171875 4.87109375 5.73171875 4.87109375 3.01171875 C2.56109375 3.01171875 0.25109375 3.01171875 -2.12890625 3.01171875 C-2.12890625 4.33171875 -2.12890625 5.65171875 -2.12890625 7.01171875 C-1.13890625 7.67171875 -0.14890625 8.33171875 0.87109375 9.01171875 C0.54109375 9.67171875 0.21109375 10.33171875 -0.12890625 11.01171875 C-2.12890625 9.88671875 -2.12890625 9.88671875 -4.12890625 8.01171875 C-4.50390625 4.94921875 -4.50390625 4.94921875 -4.12890625 2.01171875 C-2.12890625 0.01171875 -2.12890625 0.01171875 0 0 Z " fill="#454951" transform="translate(226.12890625,116.98828125)"/>
<path d="M0 0 C0.33 0 0.66 0 1 0 C1 5.28 1 10.56 1 16 C-2.96 15.67 -6.92 15.34 -11 15 C-10.67 14.34 -10.34 13.68 -10 13 C-4.4 12 -4.4 12 -2 12 C-1.34 11.67 -0.68 11.34 0 11 C0 7.37 0 3.74 0 0 Z " fill="#B8BDC3" transform="translate(234,116)"/>
<path d="M0 0 C0.66 0.33 1.32 0.66 2 1 C-1.49359465 4.59634744 -5.11098131 7.83451967 -9 11 C-9.66 10.34 -10.32 9.68 -11 9 C-8.6875 6.5 -8.6875 6.5 -6 4 C-5.01 4 -4.02 4 -3 4 C-2.67 3.01 -2.34 2.02 -2 1 C-1.34 0.67 -0.68 0.34 0 0 Z " fill="#565B57" transform="translate(95,42)"/>
<path d="M0 0 C0.33 0 0.66 0 1 0 C1 1.65 1 3.3 1 5 C-5.93 5 -12.86 5 -20 5 C-20 4.67 -20 4.34 -20 4 C-14.06 4 -8.12 4 -2 4 C-1.34 2.68 -0.68 1.36 0 0 Z " fill="#F3F7F8" transform="translate(188,186)"/>
<path d="M0 0 C-0.66 0 -1.32 0 -2 0 C-2.66 1.32 -3.32 2.64 -4 4 C-4.99 4 -5.98 4 -7 4 C-7.99 5.485 -7.99 5.485 -9 7 C-9.66 7 -10.32 7 -11 7 C-11.33 7.66 -11.66 8.32 -12 9 C-12.66 9 -13.32 9 -14 9 C-14 7 -14 7 -12.35546875 5.30859375 C-11.28232422 4.38240234 -11.28232422 4.38240234 -10.1875 3.4375 C-9.47980469 2.81746094 -8.77210937 2.19742188 -8.04296875 1.55859375 C-4.98439433 -0.77481197 -3.69869384 -1.23289795 0 0 Z " fill="#E9EDEA" transform="translate(100,45)"/>
<path d="M0 0 C-0.33 1.65 -0.66 3.3 -1 5 C-3 5 -3 5 -4.625 3.625 C-6 2 -6 2 -6 0 C-3.50907189 -1.24546405 -2.58919267 -0.7767578 0 0 Z " fill="#E0E2E1" transform="translate(302,257)"/>
<path d="M0 0 C0.99 0.33 1.98 0.66 3 1 C3 3.64 3 6.28 3 9 C2.01 9.33 1.02 9.66 0 10 C0 6.7 0 3.4 0 0 Z " fill="#7A8184" transform="translate(231,118)"/>
<path d="M0 0 C0.66 1.65 1.32 3.3 2 5 C1.01 5.66 0.02 6.32 -1 7 C-1 5.35 -1 3.7 -1 2 C-1.99 1.67 -2.98 1.34 -4 1 C-2 0 -2 0 0 0 Z " fill="#494E4D" transform="translate(226,224)"/>
</svg>
