<svg xmlns="http://www.w3.org/2000/svg" xmlns:xlink="http://www.w3.org/1999/xlink" version="1.1" x="0px" y="0px" viewBox="0 0 100 125" style="enable-background:new 0 0 100 100;" xml:space="preserve"><style type="text/css">
	.st0{fill-rule:evenodd;clip-rule:evenodd;}
</style><path class="st0" d="M51.616,73.654h-3.232c-0.848,0-1.535-0.685-1.535-1.531c0-0.846,0.686-1.531,1.535-1.531h3.232  c0.849,0,1.535,0.685,1.535,1.531C53.151,72.968,52.465,73.654,51.616,73.654L51.616,73.654z M46.849,60.717  c0-0.846,0.686-1.532,1.535-1.532h3.232c0.849,0,1.535,0.686,1.535,1.532c0,0.846-0.686,1.531-1.535,1.531h-3.232  C47.536,62.248,46.849,61.563,46.849,60.717L46.849,60.717z M46.849,49.311c0-0.846,0.686-1.531,1.535-1.531h3.232  c0.849,0,1.535,0.685,1.535,1.531c0,0.846-0.686,1.531-1.535,1.531h-3.232C47.536,50.842,46.849,50.157,46.849,49.311L46.849,49.311  z M54.739,91.009c0,2.612-2.121,4.737-4.739,4.737c-2.609,0-4.739-2.124-4.739-4.74c0-2.612,2.13-4.737,4.739-4.737  C52.618,86.269,54.739,88.394,54.739,91.009L54.739,91.009z M30.627,70.754c0,0.844,1.336,2.28,5.083,3.549  c3.791,1.285,8.874,1.991,14.291,1.991c5.425,0,10.499-0.706,14.291-1.991c3.755-1.269,5.082-2.705,5.082-3.549v-6.841  C65.265,66.575,57.601,67.95,50,67.95s-15.266-1.375-19.373-4.037V70.754L30.627,70.754z M4.989,63.85  c0,2.749,2.23,4.982,4.983,4.982h17.595V36.536c0-5.649,11.284-8.603,22.433-8.603c11.149,0,22.433,2.955,22.433,8.603h0.009  c0,0.002-0.009,0.005-0.009,0.006v32.29h17.604c2.744,0,4.983-2.233,4.983-4.982V19.393H35.989c-0.415,0-0.812-0.166-1.101-0.462  L20.606,4.253H9.972c-2.753,0-4.983,2.236-4.983,4.984V63.85L4.989,63.85z M94.993,16.331H36.63l-4.387-4.508h57.794  C92.619,11.824,94.758,13.806,94.993,16.331L94.993,16.331z M30.627,52.507v6.841c0,0.844,1.336,2.279,5.083,3.548  c3.791,1.284,8.874,1.991,14.291,1.991c5.425,0,10.499-0.707,14.291-1.991c3.755-1.269,5.082-2.704,5.082-3.548v-6.841  C65.265,55.171,57.601,56.544,50,56.544S34.734,55.171,30.627,52.507L30.627,52.507z M30.627,41.101v6.841  c0,0.844,1.336,2.279,5.083,3.55c3.791,1.283,8.874,1.989,14.291,1.989c5.425,0,10.499-0.706,14.291-1.989  c3.755-1.271,5.082-2.707,5.082-3.55v-6.841C65.265,43.766,57.601,45.14,50,45.14S34.734,43.766,30.627,41.101L30.627,41.101z   M69.373,36.54c0,0.844-1.336,2.279-5.082,3.547c-3.792,1.282-8.865,1.99-14.291,1.99c-5.417,0-10.499-0.708-14.291-1.99  c-3.747-1.269-5.083-2.706-5.083-3.551c0-0.844,1.336-2.281,5.083-3.551c3.791-1.282,8.874-1.99,14.291-1.99  c5.425,0,10.499,0.709,14.291,1.99c3.755,1.269,5.082,2.707,5.082,3.551V36.54L69.373,36.54z M72.271,71.895h17.766  c4.433,0,8.044-3.608,8.044-8.045V16.808c0-4.437-3.611-8.046-8.044-8.046H29.264l-6.915-7.107  c-0.289-0.296-0.677-0.463-1.093-0.463H9.972c-4.441,0-8.052,3.61-8.052,8.046V63.85c0,4.437,3.611,8.045,8.052,8.045h17.757  c1.345,4.663,10.887,7.205,20.745,7.441v4.022c-3.078,0.615-5.507,3.043-6.121,6.117h-38.9c-0.849,0-1.535,0.688-1.535,1.531  c0,0.846,0.686,1.532,1.535,1.532h38.9c0.713,3.571,3.873,6.27,7.646,6.27c3.783,0,6.933-2.699,7.646-6.27h38.9  c0.848,0,1.535-0.686,1.535-1.532c0-0.843-0.686-1.531-1.535-1.531h-38.9c-0.614-3.074-3.033-5.502-6.111-6.117v-4.022  C61.384,79.1,70.926,76.558,72.271,71.895z"/></svg>