<!-- <svg xmlns="http://www.w3.org/2000/svg" xmlns:xlink="http://www.w3.org/1999/xlink" version="1.1" x="0px" y="0px" viewBox="0 0 100 125" enable-background="new 0 0 100 100" xml:space="preserve"><rect x="0" y="0" fill="none" width="100" height="100"/><g><path d="M13.294,83.946h12.879v4.444c0,7.271,12.463,9.851,23.137,9.851c11.516,0,23.137-3.068,23.137-9.923v-4.373h15.299   C93.688,83.946,98,79.2,98,72.663V24.691c0-6.084-3.671-10.5-8.728-10.5H58.566c-1.127,0-1.895-0.252-2.326-0.804l-6.416-7.909   c-1.852-2.364-4.657-3.719-7.703-3.719H11.767C6.381,1.759,2,6.153,2,11.555v61.108C2,78.884,7.067,83.946,13.294,83.946z    M65.54,87.94c-1.171,1.235-6.892,3.395-16.23,3.395c-9.33,0-15.049-2.117-16.23-3.331v-8.271c4.376,1.958,10.659,2.88,16.915,2.88   c5.628,0,11.281-0.745,15.545-2.321V87.94z M65.54,72.703c-1.661,1.208-7.095,3.003-15.545,3.003   c-9.127,0-16.362-3.121-16.915-3.654v-7.428c4.376,1.958,10.659,2.88,16.915,2.88c5.628,0,11.281-0.745,15.545-2.321V72.703z    M65.54,57.595c-1.661,1.208-7.095,3.003-15.545,3.003c-9.127,0-16.362-2.951-16.915-3.484v-7.928   c4.44,1.893,10.691,2.785,16.915,2.785c5.608,0,11.237-0.725,15.545-2.253V57.595z M65.54,42.231   c-2.061,1.227-7.44,2.834-15.545,2.834c-8.429,0-13.919-1.739-15.786-2.98c1.867-1.241,7.357-2.98,15.786-2.98   c8.105,0,13.483,1.607,15.545,2.834V42.231z M8.906,11.555c0-1.593,1.283-2.889,2.861-2.889h30.354   c0.911,0,1.739,0.394,2.273,1.082l6.44,7.938c1.213,1.557,3.538,3.412,7.731,3.412h30.706c1.243,0,1.822,2.144,1.822,3.594v47.972   c0,1.027-0.241,4.377-3.348,4.377H72.446v-2.345c0.2-0.578,0-31.681,0-32.684c0-8.25-10.917-9.812-22.451-9.812   c-9.552,0-20.167,1.099-23.194,5.698c-0.093,0.058-0.243,1.135-0.243,1.135v38.009H13.294c-2.46,0-4.387-1.922-4.387-4.377V11.555z   "/></g></svg> -->



<svg xmlns="http://www.w3.org/2000/svg" xmlns:xlink="http://www.w3.org/1999/xlink" version="1.1" x="0px" y="0px" viewBox="0 0 100 125" enable-background="new 0 0 100 100" xml:space="preserve">
  <rect x="0" y="0" fill="none" width="100" height="100"/>
  <g>
    <path fill="#4495FF" d="M13.294,83.946h12.879v4.444c0,7.271,12.463,9.851,23.137,9.851c11.516,0,23.137-3.068,23.137-9.923v-4.373h15.299   C93.688,83.946,98,79.2,98,72.663V24.691c0-6.084-3.671-10.5-8.728-10.5H58.566c-1.127,0-1.895-0.252-2.326-0.804l-6.416-7.909   c-1.852-2.364-4.657-3.719-7.703-3.719H11.767C6.381,1.759,2,6.153,2,11.555v61.108C2,78.884,7.067,83.946,13.294,83.946z    M65.54,87.94c-1.171,1.235-6.892,3.395-16.23,3.395c-9.33,0-15.049-2.117-16.23-3.331v-8.271c4.376,1.958,10.659,2.88,16.915,2.88   c5.628,0,11.281-0.745,15.545-2.321V87.94z M65.54,72.703c-1.661,1.208-7.095,3.003-15.545,3.003   c-9.127,0-16.362-3.121-16.915-3.654v-7.428c4.376,1.958,10.659,2.88,16.915,2.88c5.628,0,11.281-0.745,15.545-2.321V72.703z    M65.54,57.595c-1.661,1.208-7.095,3.003-15.545,3.003c-9.127,0-16.362-2.951-16.915-3.484v-7.928   c4.44,1.893,10.691,2.785,16.915,2.785c5.608,0,11.237-0.725,15.545-2.253V57.595z M65.54,42.231   c-2.061,1.227-7.44,2.834-15.545,2.834c-8.429,0-13.919-1.739-15.786-2.98c1.867-1.241,7.357-2.98,15.786-2.98   c8.105,0,13.483,1.607,15.545,2.834V42.231z M8.906,11.555c0-1.593,1.283-2.889,2.861-2.889h30.354   c0.911,0,1.739,0.394,2.273,1.082l6.44,7.938c1.213,1.557,3.538,3.412,7.731,3.412h30.706c1.243,0,1.822,2.144,1.822,3.594v47.972   c0,1.027-0.241,4.377-3.348,4.377H72.446v-2.345c0.2-0.578,0-31.681,0-32.684c0-8.25-10.917-9.812-22.451-9.812   c-9.552,0-20.167,1.099-23.194,5.698c-0.093,0.058-0.243,1.135-0.243,1.135v38.009H13.294c-2.46,0-4.387-1.922-4.387-4.377V11.555z   "/>
  </g>
</svg>
