<?xml version="1.0" encoding="UTF-8"?>
<svg version="1.1" xmlns="http://www.w3.org/2000/svg" width="512" height="512">
<path d="M0 0 C3.47877053 2.863224 6.77491504 5.85538741 10 9 C10.86625 9.825 11.7325 10.65 12.625 11.5 C13.40875 12.325 14.1925 13.15 15 14 C15.88751953 14.89525391 15.88751953 14.89525391 16.79296875 15.80859375 C35.15618761 35.16633897 42.77629013 62.76752055 42.25 88.8984375 C41.16135426 117.80198191 28.11207549 142.67879621 7.6953125 162.54296875 C3.97093093 165.9380934 0.08180186 169.04699273 -4 172 C-2.80375 172.391875 -1.6075 172.78375 -0.375 173.1875 C6.89119534 175.98120473 10.602232 179.94079839 13.94604492 186.83666992 C15.85917987 192.57873373 15.70012744 198.42692137 15.59692383 204.4140625 C15.56243946 206.62888845 15.57635545 208.83974596 15.59570312 211.0546875 C15.58521497 218.6682887 15.03208388 224.350742 11 231 C11.48762261 234.21316523 11.48762261 234.21316523 13 237 C15.91791119 243.05991689 15.37202746 249.46226795 15.37060547 256.03686523 C15.37496723 258.29553294 15.41128861 260.55222579 15.44921875 262.81054688 C15.52042152 271.71243388 15.16774652 278.24396322 9.03515625 285.2421875 C8.38417969 285.78101563 7.73320312 286.31984375 7.0625 286.875 C6.41410156 287.42929687 5.76570312 287.98359375 5.09765625 288.5546875 C1.15401151 291.27191013 -2.38120883 292.24924061 -7.1410675 292.26742554 C-8.66120453 292.28022049 -8.66120453 292.28022049 -10.21205139 292.29327393 C-11.31294601 292.29236755 -12.41384064 292.29146118 -13.5480957 292.29052734 C-15.30018845 292.30060318 -15.30018845 292.30060318 -17.087677 292.31088257 C-20.95042166 292.32988567 -24.81299276 292.33378802 -28.67578125 292.3359375 C-30.00948856 292.33878522 -31.34319519 292.34197719 -32.67690086 292.34550858 C-39.66279192 292.36399929 -46.64860677 292.37218054 -53.63452148 292.37060547 C-60.13238342 292.36940484 -66.62991279 292.39049386 -73.12769061 292.4220928 C-78.71769491 292.44830225 -84.30759092 292.45897079 -89.89765614 292.45769465 C-93.23138053 292.4571863 -96.56457446 292.4646542 -99.89827919 292.48405075 C-103.62037244 292.50367852 -107.34161329 292.49788405 -111.0637207 292.48583984 C-112.15854263 292.49707886 -113.25336456 292.50831787 -114.38136292 292.51989746 C-122.01835902 292.45720289 -127.34192158 291.20559834 -133.2421875 286.03515625 C-133.78101563 285.38417969 -134.31984375 284.73320312 -134.875 284.0625 C-135.42929687 283.41410156 -135.98359375 282.76570313 -136.5546875 282.09765625 C-139.81083269 277.37184553 -140.31786053 272.9825194 -140.3359375 267.35546875 C-140.3459227 266.26254265 -140.3459227 266.26254265 -140.35610962 265.14753723 C-140.36620182 263.61034658 -140.3709277 262.07311242 -140.37060547 260.53588867 C-140.37496759 258.20481688 -140.41128857 255.87565783 -140.44921875 253.54492188 C-140.50585715 245.74646275 -140.24809049 239.78324127 -136 233 C-136.49154083 230.27102833 -136.49154083 230.27102833 -138 228 C-140.04926305 223.81767679 -140.33546669 219.97243261 -140.37109375 215.390625 C-140.38463646 214.30125641 -140.38463646 214.30125641 -140.39845276 213.18988037 C-140.41291424 211.65690198 -140.42183177 210.12386244 -140.42553711 208.59082031 C-140.43739576 206.27039792 -140.48658121 203.9526715 -140.53710938 201.6328125 C-140.64276378 192.07298811 -139.80739215 185.0296993 -132.97265625 177.87890625 C-132.34230469 177.44449219 -131.71195312 177.01007813 -131.0625 176.5625 C-130.43472656 176.11003906 -129.80695313 175.65757812 -129.16015625 175.19140625 C-126.53401909 173.74299426 -123.86229328 172.8753813 -121 172 C-121.83402344 171.31035156 -122.66804688 170.62070312 -123.52734375 169.91015625 C-144.29352287 152.63029258 -158.86166734 133.75020761 -165 107 C-165.22429687 106.07703125 -165.44859375 105.1540625 -165.6796875 104.203125 C-171.15505605 77.65133779 -164.98071761 48.90801443 -150.3359375 26.31640625 C-147.01518146 21.45815972 -143.13872401 17.17137666 -139 13 C-138.195625 12.154375 -137.39125 11.30875 -136.5625 10.4375 C-135.716875 9.633125 -134.87125 8.82875 -134 8 C-133.34128906 7.34644531 -132.68257813 6.69289062 -132.00390625 6.01953125 C-96.60086224 -27.7557866 -38.58356633 -28.48515144 0 0 Z M-130 28 C-145.38218442 46.81176638 -151.69284111 69.97733919 -150 94 C-146.97203563 118.30249128 -134.38648929 139.72940589 -115.1875 154.8125 C-95.94840514 168.55115506 -73.54676617 174.35431698 -50.140625 171.53515625 C-26.61480943 167.34120812 -4.75492028 155.15650769 9.18066406 135.31933594 C22.59208989 115.28390775 28.05600754 91.67480473 23.875 67.875 C20.23832217 49.69829591 11.07115487 34.07115487 -2 21 C-2.62261719 20.37738281 -3.24523437 19.75476563 -3.88671875 19.11328125 C-21.44900517 2.72917757 -44.25248876 -3.61108124 -67.7109375 -3.28125 C-91.73798578 -2.40785675 -114.25050757 10.23642154 -130 28 Z M-121.64137268 190.85876465 C-123.43523838 193.68594809 -123.50202526 195.5993471 -123.49609375 198.9375 C-123.49673828 200.07960938 -123.49738281 201.22171875 -123.49804688 202.3984375 C-123.47806641 203.58695313 -123.45808594 204.77546875 -123.4375 206 C-123.44458984 207.18851563 -123.45167969 208.37703125 -123.45898438 209.6015625 C-123.68388081 216.96767781 -123.68388081 216.96767781 -120 223 C-117.18139296 223.93953568 -115.45255941 224.12951828 -112.53482056 224.14044189 C-111.62077957 224.14615204 -110.70673859 224.15186218 -109.76499939 224.15774536 C-108.76440994 224.15886322 -107.7638205 224.15998108 -106.73291016 224.16113281 C-105.67736435 224.16609772 -104.62181854 224.17106262 -103.5342865 224.17617798 C-100.03587192 224.19080567 -96.53750266 224.1976023 -93.0390625 224.203125 C-90.61152139 224.20887552 -88.18398029 224.21463326 -85.75643921 224.22039795 C-80.66379586 224.23090937 -75.5711683 224.23675126 -70.47851562 224.24023438 C-63.94916127 224.24572234 -57.4200151 224.26975644 -50.89072609 224.29820633 C-45.87561429 224.3168176 -40.86055281 224.32203749 -35.84540939 224.32357025 C-33.43803137 224.32660022 -31.0306543 224.33464028 -28.62331009 224.34775543 C-25.25733782 224.36478553 -21.89187662 224.36294298 -18.52587891 224.35644531 C-17.03106743 224.37026749 -17.03106743 224.37026749 -15.50605774 224.3843689 C-8.76058251 224.34447453 -8.76058251 224.34447453 -3 221 C-0.83134994 216.66269988 -1.72571424 210.88904235 -1.6875 206.125 C-1.65849609 204.92746094 -1.62949219 203.72992188 -1.59960938 202.49609375 C-1.58704102 200.76939453 -1.58704102 200.76939453 -1.57421875 199.0078125 C-1.55963623 197.95223145 -1.54505371 196.89665039 -1.5300293 195.80908203 C-1.81587321 192.98413054 -1.81587321 192.98413054 -3.35664368 190.85678101 C-7.55117303 187.9104047 -11.75800167 188.44329854 -16.76367188 188.48242188 C-17.85998428 188.4754126 -18.95629669 188.46840332 -20.08583069 188.46118164 C-23.71372727 188.44356057 -27.34084533 188.45523971 -30.96875 188.46875 C-33.48694 188.46605629 -36.00512899 188.46217488 -38.52331543 188.45715332 C-43.80257122 188.45125269 -49.08162409 188.45945891 -54.36083984 188.47851562 C-60.46174614 188.50028433 -66.56211773 188.49323278 -72.66301107 188.47121 C-78.53529565 188.45086202 -84.40737718 188.45302688 -90.27967834 188.46473694 C-92.77718684 188.46740853 -95.27470894 188.46411937 -97.77220154 188.45481873 C-101.2606134 188.44467939 -104.74799328 188.46011919 -108.23632812 188.48242188 C-109.2722963 188.47432495 -110.30826447 188.46622803 -111.37562561 188.45788574 C-116.86327186 188.45041798 -116.86327186 188.45041798 -121.64137268 190.85876465 Z M-121.64038086 242.85876465 C-123.43228433 245.68079542 -123.51682897 247.60418298 -123.53125 250.9375 C-123.53640625 252.07960938 -123.5415625 253.22171875 -123.546875 254.3984375 C-123.53140625 255.58695312 -123.5159375 256.77546875 -123.5 258 C-123.51546875 259.18851562 -123.5309375 260.37703125 -123.546875 261.6015625 C-123.54171875 262.74367188 -123.5365625 263.88578125 -123.53125 265.0625 C-123.52673828 266.10535156 -123.52222656 267.14820313 -123.51757812 268.22265625 C-122.87177449 271.68806295 -121.74095619 272.84798906 -119 275 C-116.20400242 275.93199919 -114.50755471 276.12939881 -111.61747742 276.14044189 C-110.7217099 276.14615204 -109.82594238 276.15186218 -108.9030304 276.15774536 C-107.92271347 276.15886322 -106.94239655 276.15998108 -105.93237305 276.16113281 C-104.89794067 276.16609772 -103.8635083 276.17106262 -102.79772949 276.17617798 C-99.36905252 276.19080597 -95.94042182 276.19760271 -92.51171875 276.203125 C-90.13141376 276.20887595 -87.75110879 276.21463369 -85.37080383 276.22039795 C-80.37651351 276.23090977 -75.38223929 276.23675125 -70.38793945 276.24023438 C-63.98871801 276.24571925 -57.58970933 276.26974658 -51.19055462 276.29820633 C-46.27233763 276.31683095 -41.3541719 276.32203823 -36.43592262 276.32357025 C-34.07681935 276.32659773 -31.717717 276.33462941 -29.3586483 276.34775543 C-26.05753778 276.36481172 -22.75694726 276.36293644 -19.45581055 276.35644531 C-18.48156631 276.3656601 -17.50732208 276.37487488 -16.5035553 276.3843689 C-11.2638416 276.35209739 -7.50613135 275.99794152 -3 273 C-0.83134994 268.66269988 -1.72571424 262.88904235 -1.6875 258.125 C-1.65849609 256.92746094 -1.62949219 255.72992188 -1.59960938 254.49609375 C-1.58704102 252.76939453 -1.58704102 252.76939453 -1.57421875 251.0078125 C-1.55963623 249.95223145 -1.54505371 248.89665039 -1.5300293 247.80908203 C-1.81587321 244.98413054 -1.81587321 244.98413054 -3.35664368 242.85678101 C-7.55117303 239.9104047 -11.75800167 240.44329854 -16.76367188 240.48242188 C-17.85998428 240.4754126 -18.95629669 240.46840332 -20.08583069 240.46118164 C-23.71372727 240.44356057 -27.34084533 240.45523971 -30.96875 240.46875 C-33.48694 240.46605629 -36.00512899 240.46217488 -38.52331543 240.45715332 C-43.80257122 240.45125269 -49.08162409 240.45945891 -54.36083984 240.47851562 C-60.46174614 240.50028433 -66.56211773 240.49323278 -72.66301107 240.47121 C-78.53529565 240.45086202 -84.40737718 240.45302688 -90.27967834 240.46473694 C-92.77718684 240.46740853 -95.27470894 240.46411937 -97.77220154 240.45481873 C-101.2606134 240.44467939 -104.74799328 240.46011919 -108.23632812 240.48242188 C-109.2722963 240.47432495 -110.30826447 240.46622803 -111.37562561 240.45788574 C-116.86295091 240.45020696 -116.86295091 240.45020696 -121.64038086 242.85876465 Z " fill="white" transform="translate(455,204)"/>
<path d="M0 0 C1.08139088 -0.00644889 2.16278177 -0.01289778 3.27694207 -0.0195421 C5.05036486 -0.01489629 5.05036486 -0.01489629 6.85961437 -0.01015663 C8.12005965 -0.01468774 9.38050493 -0.01921886 10.67914551 -0.02388728 C14.17551652 -0.03612086 17.67179187 -0.0358564 21.16817939 -0.03349853 C24.93993757 -0.03309045 28.71166505 -0.04412865 32.48340893 -0.05361366 C39.87222932 -0.07022666 47.26101779 -0.07572335 54.64985529 -0.07683842 C60.65606081 -0.07778876 66.6622558 -0.08189838 72.66845798 -0.08823967 C89.69769356 -0.105853 106.72690392 -0.11507841 123.75614867 -0.11357872 C125.13322792 -0.11345885 125.13322792 -0.11345885 126.53812695 -0.11333656 C127.91688791 -0.11321392 127.91688791 -0.11321392 129.32350262 -0.1130888 C144.2199339 -0.1122759 159.11626406 -0.13141423 174.01266608 -0.1596133 C189.30871808 -0.18834038 204.60472075 -0.20215368 219.90080041 -0.20042574 C228.48817221 -0.19976177 237.07543802 -0.20525707 245.66278553 -0.22678185 C252.97435751 -0.24499135 260.28577545 -0.24934293 267.59736029 -0.235763 C271.32700974 -0.22923209 275.05636364 -0.22912025 278.78598499 -0.2464695 C282.83158521 -0.26509484 286.8765009 -0.25264903 290.92211437 -0.23720741 C292.09770407 -0.24749454 293.27329376 -0.25778167 294.48450738 -0.26838052 C302.16615602 -0.2035148 307.53773022 0.84919714 313.56962109 5.93305016 C314.00661327 6.47316734 314.44360546 7.01328453 314.89383984 7.56976891 C315.56866405 8.36834312 315.56866405 8.36834312 316.25712109 9.18305016 C319.84394505 14.80134964 321.02754079 19.61848537 320.98539257 26.2404232 C320.99568745 27.38811684 320.99568745 27.38811684 321.0061903 28.5589962 C321.02436687 31.06668652 321.02063608 33.57374617 321.01493359 36.08148766 C321.0194979 37.83310206 321.02480421 39.58471467 321.03081799 41.33632469 C321.03972962 44.99697742 321.03734599 48.65741171 321.02738476 52.31805992 C321.01586301 57.00914438 321.03616506 61.69947966 321.0653019 66.39046574 C321.08363771 70.00300947 321.08337729 73.61537247 321.07766438 77.22795105 C321.07751102 78.95792064 321.08356686 80.68790237 321.09595585 82.41782761 C321.11082522 84.83313265 321.10022226 87.24703719 321.08304882 89.6622982 C321.09271679 90.37562813 321.10238476 91.08895805 321.1123457 91.82390404 C321.06146979 95.23886757 320.80449559 96.97147199 318.67498302 99.69875145 C315.78013097 101.85369241 313.98120712 101.82504647 310.48368359 101.65570641 C307.58367845 101.04831313 306.29825313 99.59227099 304.58133984 97.25726891 C303.09638614 94.28736151 303.44016932 91.59876339 303.42362499 88.2848568 C303.41854427 87.5676194 303.41346355 86.850382 303.40822887 86.11141014 C303.39751901 84.55195466 303.38890125 82.99248375 303.38210964 81.43300629 C303.37033673 78.96617742 303.35088898 76.49952489 303.32898998 74.03276634 C303.2673139 67.01854865 303.21328496 60.00434917 303.17997265 52.98993492 C303.15905652 48.701619 303.1237794 44.41362461 303.07921505 40.1254921 C303.06503138 38.48964211 303.05632728 36.85373525 303.05316067 35.21782684 C303.04826546 32.93123283 303.02514558 30.64549608 302.99784374 28.35907555 C302.98975689 27.05716774 302.98167004 25.75525993 302.97333813 24.41390038 C302.84923232 21.34571493 302.84923232 21.34571493 301.37318945 19.58357465 C298.9799102 17.81209785 297.48461175 17.88132957 294.51974773 17.87974548 C293.46712262 17.87192224 292.4144975 17.864099 291.32997465 17.85603869 C289.58938882 17.86607694 289.58938882 17.86607694 287.81363964 17.87631798 C286.5840438 17.87163801 285.35444797 17.86695803 284.08759165 17.86213624 C280.66811401 17.85221654 277.2491283 17.85581895 273.8296802 17.8650949 C270.14455203 17.87186472 266.45946779 17.86141447 262.77434826 17.85315514 C255.55267719 17.83979343 248.33109949 17.84270635 241.10942471 17.85139306 C235.2418552 17.85815963 229.37431191 17.85909078 223.50673962 17.85582161 C222.25557297 17.85513206 222.25557297 17.85513206 220.97913024 17.85442858 C219.28481503 17.85346944 217.59049982 17.8524968 215.89618462 17.85151081 C199.99692449 17.84294978 184.0977162 17.85280222 168.19846457 17.86891191 C154.54692958 17.88231574 140.89547111 17.87998785 127.24393749 17.86615562 C111.40278344 17.85011239 95.56167486 17.84377381 79.72051382 17.85299242 C78.03232257 17.85394809 76.34413132 17.85489121 74.65594006 17.85582161 C73.82524996 17.85628444 72.99455987 17.85674726 72.13869736 17.85722411 C66.27605616 17.85981778 60.41344374 17.85543492 54.550807 17.84838295 C47.40923363 17.83998168 40.26775921 17.84221904 33.12619722 17.85822518 C29.48026956 17.86612651 25.83450707 17.86916805 22.18858051 17.85927773 C18.24197297 17.84873342 14.29563776 17.86129681 10.34904003 17.87631798 C9.18864948 17.86962581 8.02825892 17.86293365 6.83270502 17.85603869 C5.7800799 17.86386193 4.72745479 17.87168517 3.64293194 17.87974548 C2.27553017 17.88047607 2.27553017 17.88047607 0.88050413 17.88122141 C-1.43777096 18.10790427 -1.43777096 18.10790427 -3.21141446 19.38154733 C-4.99535446 22.15329025 -4.79481764 24.3656204 -4.79618359 27.64633751 C-4.80054391 28.30061249 -4.80490423 28.95488748 -4.80939668 29.62898898 C-4.82040642 31.83683239 -4.80990493 34.04405823 -4.79961109 36.25189781 C-4.80306541 37.84452511 -4.80782845 39.43715002 -4.81379282 41.0297699 C-4.82636358 45.41827209 -4.82010498 49.8065796 -4.81083417 54.19508266 C-4.80406878 58.92316154 -4.8145124 63.65120605 -4.82277393 68.37927818 C-4.83614037 77.64633742 -4.8332206 86.91332393 -4.82453601 96.18038607 C-4.8177713 103.7093767 -4.81683748 111.2383469 -4.82010746 118.76733971 C-4.82056716 119.83735651 -4.82102686 120.90737331 -4.82150049 122.00981486 C-4.82245963 124.18327507 -4.82343227 126.35673528 -4.82441826 128.53019547 C-4.83298068 148.92893666 -4.82312467 169.32763745 -4.80701716 189.726372 C-4.79361321 207.24385267 -4.79594107 224.7612737 -4.80977345 242.27875328 C-4.82581423 262.60261009 -4.83215663 282.92643147 -4.82293665 303.25029373 C-4.82198097 305.41592852 -4.82103786 307.58156331 -4.82010746 309.7471981 C-4.81964463 310.81283757 -4.81918181 311.87847703 -4.81870496 312.9764086 C-4.81611055 320.49966379 -4.82049574 328.02289658 -4.82754612 335.5461483 C-4.83594466 344.70974213 -4.83371576 353.87325883 -4.81770389 363.03684378 C-4.80979893 367.71564513 -4.80676727 372.3943177 -4.81665134 377.07311821 C-4.82555292 381.35142375 -4.82074089 385.62948046 -4.80471869 389.90776324 C-4.80135153 391.46020407 -4.80310801 393.01266567 -4.81034605 394.56509328 C-4.81939615 396.6664329 -4.81018736 398.76690682 -4.79618359 400.8682003 C-4.79569653 402.0380113 -4.79520947 403.2078223 -4.79470766 404.41308212 C-4.65030994 407.24588223 -4.65030994 407.24588223 -3.08256495 409.09408569 C0.8623054 411.85181979 5.1391322 411.39875444 9.73574352 411.38857079 C10.99717272 411.39174436 10.99717272 411.39174436 12.28408533 411.39498204 C15.11226841 411.40099102 17.94040699 411.39998125 20.7685957 411.39911461 C22.79207975 411.40214546 24.81556311 411.4056667 26.83904552 411.40964317 C31.20157415 411.41753741 35.56409457 411.42267902 39.92662907 411.42593384 C46.82120686 411.43183642 53.71573283 411.4483689 60.61028576 411.46727562 C62.96898457 411.47361307 65.32768342 411.47993869 67.68638229 411.48625278 C68.86765265 411.4894186 70.048923 411.49258441 71.26598942 411.49584615 C87.32121101 411.53795848 103.37640848 411.5709115 119.43168163 411.58319664 C130.25658789 411.59156482 141.08136596 411.61400838 151.9062081 411.65255231 C157.63744229 411.67235317 163.36848469 411.68470415 169.09975529 411.67971802 C174.48834663 411.67508706 179.87657397 411.6887918 185.2650919 411.71673012 C187.24523505 411.72366781 189.22541564 411.72374093 191.20555782 411.71652985 C193.90412698 411.70769321 196.60148229 411.72325031 199.29995251 411.7450161 C200.08779013 411.73657356 200.87562775 411.72813102 201.68733925 411.71943265 C205.24524502 411.77268072 207.20283536 411.96672842 210.06572342 414.16428471 C211.70838217 416.43270749 212.12458818 417.48937515 212.08133984 420.25726891 C212.09165234 420.91726891 212.10196484 421.57726891 212.11258984 422.25726891 C211.30688139 425.29052423 210.07931447 426.3512214 207.58133984 428.25726891 C204.61923933 428.65001944 202.02941208 428.79776089 199.06785107 428.76520348 C198.20028124 428.77144344 197.33271142 428.7776834 196.43885159 428.78411245 C193.52611185 428.80009172 190.61420326 428.78741875 187.70145702 428.77484703 C185.6153467 428.78026611 183.5292402 428.78738756 181.44314098 428.79608727 C175.7714389 428.81435341 170.10002723 428.80723822 164.42831993 428.79457092 C158.49431281 428.78445497 152.56033083 428.7938332 146.62632275 428.80011559 C136.6560421 428.80739835 126.68587986 428.79779013 116.71561718 428.77875328 C105.19352892 428.75700727 93.67172403 428.76401698 82.14964271 428.7860589 C72.25819913 428.80422343 62.36684078 428.80676532 52.4753859 428.79630423 C46.56742699 428.79007205 40.65960114 428.78922572 34.75165081 428.80245018 C29.19314446 428.81402239 23.63500232 428.80595748 18.07653522 428.78287315 C16.03840076 428.77759242 14.00023554 428.77908893 11.96211338 428.78792381 C9.17525221 428.7988885 6.38955087 428.7851042 3.60276318 428.76520348 C2.8000224 428.77412636 1.99728162 428.78304925 1.17021537 428.79224253 C-5.47128514 428.70053596 -10.64726371 426.68586196 -15.66084766 422.29242516 C-16.19967579 421.64144859 -16.73850391 420.99047203 -17.29366016 420.31976891 C-17.84795704 419.67137047 -18.40225391 419.02297203 -18.97334766 418.35492516 C-22.09209102 413.82853277 -22.66948508 409.95706038 -22.67592907 404.51113224 C-22.68118818 403.50824472 -22.68118818 403.50824472 -22.68655354 402.48509684 C-22.69587086 400.24067029 -22.69094344 397.99650303 -22.6860857 395.75206566 C-22.6898218 394.12827843 -22.69442316 392.504493 -22.69981635 390.88071042 C-22.7120668 386.41521141 -22.71178347 381.94978721 -22.7094276 377.48427522 C-22.70901995 372.66956573 -22.72005361 367.85488039 -22.72954273 363.04018211 C-22.74616489 353.60596802 -22.75165283 344.17177892 -22.75276749 334.73755141 C-22.75371738 327.06992405 -22.75782474 319.40230493 -22.76416874 311.73468018 C-22.78178442 290.00175584 -22.79100709 268.26885127 -22.78950779 246.53591975 C-22.78942788 245.36397229 -22.78934797 244.19202484 -22.78926563 242.98456383 C-22.78918387 241.8111876 -22.78910211 240.63781137 -22.78901787 239.42887828 C-22.78820487 220.41004582 -22.80734536 201.39129254 -22.83554237 182.37248298 C-22.86425775 162.85018617 -22.8780834 143.32792799 -22.87635481 123.80560952 C-22.87569045 112.84286457 -22.88120307 101.88020261 -22.90271091 90.91747665 C-22.92090499 81.58388631 -22.92528462 72.25041658 -22.91169207 62.9168162 C-22.90515349 58.15430424 -22.90507733 53.39202383 -22.92239857 48.62953377 C-22.93809498 44.26895942 -22.93530087 39.90880087 -22.9178303 35.54823688 C-22.91475283 33.97153658 -22.91842091 32.39480551 -22.92955045 30.81814148 C-22.99089211 21.51109941 -22.8656959 14.33201744 -16.45381641 7.01508141 C-15.80283985 6.47625328 -15.15186329 5.93742516 -14.48116016 5.38226891 C-13.83276173 4.82797203 -13.18436329 4.27367516 -12.51631641 3.70258141 C-8.46452172 0.91084204 -4.88551501 0.00738171 0 0 Z " fill="white" transform="translate(90.4186601638794,67.74273109436035)"/>
<path d="M0 0 C1.08139088 -0.00644889 2.16278177 -0.01289778 3.27694207 -0.0195421 C5.05036486 -0.01489629 5.05036486 -0.01489629 6.85961437 -0.01015663 C8.12005965 -0.01468774 9.38050493 -0.01921886 10.67914551 -0.02388728 C14.17551652 -0.03612086 17.67179187 -0.0358564 21.16817939 -0.03349853 C24.93993757 -0.03309045 28.71166505 -0.04412865 32.48340893 -0.05361366 C39.87222932 -0.07022666 47.26101779 -0.07572335 54.64985529 -0.07683842 C60.65606081 -0.07778876 66.6622558 -0.08189838 72.66845798 -0.08823967 C89.69769356 -0.105853 106.72690392 -0.11507841 123.75614867 -0.11357872 C125.13322792 -0.11345885 125.13322792 -0.11345885 126.53812695 -0.11333656 C127.91688791 -0.11321392 127.91688791 -0.11321392 129.32350262 -0.1130888 C144.2199339 -0.1122759 159.11626406 -0.13141423 174.01266608 -0.1596133 C189.30871808 -0.18834038 204.60472075 -0.20215368 219.90080041 -0.20042574 C228.48817221 -0.19976177 237.07543802 -0.20525707 245.66278553 -0.22678185 C252.97435751 -0.24499135 260.28577545 -0.24934293 267.59736029 -0.235763 C271.32700974 -0.22923209 275.05636364 -0.22912025 278.78598499 -0.2464695 C282.83158521 -0.26509484 286.8765009 -0.25264903 290.92211437 -0.23720741 C292.09770407 -0.24749454 293.27329376 -0.25778167 294.48450738 -0.26838052 C302.16615602 -0.2035148 307.53773022 0.84919714 313.56962109 5.93305016 C319.7908075 13.62236316 320.91720236 19.19067627 321.07743359 29.05023766 C320.49293693 32.82875544 319.57426705 33.96305816 316.58133984 36.25726891 C313.5909182 37.33075359 312.03368378 37.37573994 308.95633984 36.56976891 C306.24386325 35.07076869 305.20453557 33.88005974 303.58133984 31.25726891 C303.15837722 28.68289066 303.0816022 26.20203865 302.98758984 23.59711266 C302.50261064 20.80381902 301.81693877 19.94978602 299.58133984 18.25726891 C296.6211405 17.2705358 294.70559513 17.13107116 291.61903858 17.12863445 C290.07330156 17.12379778 290.07330156 17.12379778 288.49633753 17.1188634 C287.36065691 17.12041201 286.22497628 17.12196061 285.0548811 17.12355614 C283.24935601 17.1201578 283.24935601 17.1201578 281.40735567 17.11669081 C278.06030477 17.11144365 274.71330746 17.11070797 271.36625624 17.11188519 C267.75881373 17.11208886 264.15137931 17.10657365 260.54394054 17.10182762 C253.4740289 17.0935132 246.40412558 17.09077242 239.33420946 17.09021524 C233.588708 17.08974045 227.84320929 17.08768757 222.0977087 17.08451462 C205.81618919 17.07570586 189.53467627 17.07109558 173.25315435 17.07184509 C172.37500048 17.07188505 171.49684662 17.071925 170.59208202 17.07196617 C169.27324707 17.07202749 169.27324707 17.07202749 167.92776899 17.07209005 C153.67586862 17.07249658 139.42399466 17.06292597 125.17210193 17.0488278 C110.54623042 17.0344736 95.92037181 17.02755709 81.29449308 17.02842158 C73.08001457 17.02875388 64.86556375 17.02599227 56.65109158 17.01524353 C49.65745499 17.00615108 42.66385865 17.00395291 35.67021872 17.01075295 C32.10103063 17.01402454 28.5319198 17.01405192 24.96273899 17.0053997 C21.09571189 16.99612176 17.22879841 17.00229409 13.36176586 17.01003075 C11.66493709 17.0023154 11.66493709 17.0023154 9.93382895 16.99444419 C8.89812211 16.99904299 7.86241527 17.00364178 6.79532337 17.00837994 C5.90270821 17.00816257 5.01009305 17.0079452 4.09042895 17.00772125 C1.16391507 17.29878492 -0.84918343 17.80781876 -3.41866016 19.25726891 C-5.62207389 23.02346068 -5.66912886 26.4959811 -5.67034245 30.79314232 C-5.67324933 31.43899556 -5.67615621 32.0848488 -5.67915118 32.75027335 C-5.68645779 34.91733221 -5.67950486 37.08410852 -5.67262745 39.25116539 C-5.67493162 40.81934282 -5.67810785 42.38751916 -5.68208194 43.95569324 C-5.69044456 48.26737078 -5.686298 52.57895998 -5.6801095 56.89063787 C-5.67559202 61.53963862 -5.68256527 66.18862398 -5.68806934 70.83762169 C-5.69697251 79.94597893 -5.69503722 89.05430325 -5.68924406 98.16266179 C-5.68473121 105.56381898 -5.68411303 112.96496693 -5.68629169 120.36612511 C-5.68659816 121.41864131 -5.68690463 122.47115752 -5.68722038 123.55556816 C-5.68785982 125.69359184 -5.68850824 127.83161551 -5.68916556 129.96963918 C-5.69487156 150.02793961 -5.68830673 170.08622178 -5.67756483 190.14451921 C-5.66862908 207.3634267 -5.67018104 224.58230722 -5.67940235 241.80121422 C-5.69010021 261.78669905 -5.69432222 281.77216785 -5.68817782 301.75765514 C-5.68754071 303.88790766 -5.68691197 306.01816018 -5.68629169 308.1484127 C-5.68598314 309.19659611 -5.68567459 310.24477951 -5.68535669 311.32472605 C-5.6836283 318.71881935 -5.68654796 326.11290251 -5.6912508 333.50699425 C-5.69685426 342.51529201 -5.69535447 351.52355491 -5.68468931 360.53184867 C-5.67942539 365.12987738 -5.67738812 369.72784792 -5.68398762 374.32587624 C-5.68993427 378.53260726 -5.68669324 382.73922602 -5.67603251 386.94594681 C-5.67379303 388.47010122 -5.67494702 389.99426505 -5.67978409 391.51841342 C-5.68584457 393.58620995 -5.67964917 395.65361933 -5.67034245 397.72139549 C-5.66985539 399.44600675 -5.66985539 399.44600675 -5.66935849 401.20545864 C-5.41283852 404.32813712 -4.90781753 406.50460098 -3.41866016 409.25726891 C-0.47043957 410.37214448 -0.47043957 410.37214448 2.95633984 410.81976891 C7.84935383 411.62054433 10.43627243 412.3203318 13.58133984 416.25726891 C14.95883038 419.74691161 14.69248813 420.98204457 13.26883984 424.50726891 C11.58133984 427.25726891 11.58133984 427.25726891 9.58133984 428.25726891 C-7.0273436 429.49581376 -7.0273436 429.49581376 -13.41866016 424.25726891 C-18.36472315 419.53781836 -22.10471885 415.15129626 -22.67165983 408.11914223 C-22.67306868 406.92849894 -22.67447753 405.73785564 -22.67592907 404.51113224 C-22.68118818 403.50824472 -22.68118818 403.50824472 -22.68655354 402.48509684 C-22.69587086 400.24067029 -22.69094344 397.99650303 -22.6860857 395.75206566 C-22.6898218 394.12827843 -22.69442316 392.504493 -22.69981635 390.88071042 C-22.7120668 386.41521141 -22.71178347 381.94978721 -22.7094276 377.48427522 C-22.70901995 372.66956573 -22.72005361 367.85488039 -22.72954273 363.04018211 C-22.74616489 353.60596802 -22.75165283 344.17177892 -22.75276749 334.73755141 C-22.75371738 327.06992405 -22.75782474 319.40230493 -22.76416874 311.73468018 C-22.78178442 290.00175584 -22.79100709 268.26885127 -22.78950779 246.53591975 C-22.78942788 245.36397229 -22.78934797 244.19202484 -22.78926563 242.98456383 C-22.78918387 241.8111876 -22.78910211 240.63781137 -22.78901787 239.42887828 C-22.78820487 220.41004582 -22.80734536 201.39129254 -22.83554237 182.37248298 C-22.86425775 162.85018617 -22.8780834 143.32792799 -22.87635481 123.80560952 C-22.87569045 112.84286457 -22.88120307 101.88020261 -22.90271091 90.91747665 C-22.92090499 81.58388631 -22.92528462 72.25041658 -22.91169207 62.9168162 C-22.90515349 58.15430424 -22.90507733 53.39202383 -22.92239857 48.62953377 C-22.93809498 44.26895942 -22.93530087 39.90880087 -22.9178303 35.54823688 C-22.91475283 33.97153658 -22.91842091 32.39480551 -22.92955045 30.81814148 C-22.99089211 21.51109941 -22.8656959 14.33201744 -16.45381641 7.01508141 C-15.80283985 6.47625328 -15.15186329 5.93742516 -14.48116016 5.38226891 C-13.83276173 4.82797203 -13.18436329 4.27367516 -12.51631641 3.70258141 C-8.46452172 0.91084204 -4.88551501 0.00738171 0 0 Z " fill="white" transform="translate(38.418660163879395,15.742731094360352)"/>
<path d="M0 0 C0.83899045 0.0030972 1.67798089 0.00619441 2.54239529 0.00938547 C3.43079073 0.00485435 4.31918616 0.00032324 5.23450267 -0.00434518 C8.22933132 -0.01706635 11.2239799 -0.01536385 14.21883267 -0.01371634 C16.35877343 -0.01969683 18.49871201 -0.02650126 20.63864774 -0.03407156 C26.46513695 -0.05178886 32.29156749 -0.05642939 38.11808103 -0.05770314 C42.97653317 -0.0595986 47.83497153 -0.06695216 52.69341838 -0.07404733 C64.15404531 -0.09035112 75.6146408 -0.09521451 87.07527798 -0.09379447 C98.90864801 -0.09259292 110.74183568 -0.11369284 122.57515955 -0.14528179 C132.72382273 -0.171411 142.87242624 -0.18216315 153.02112281 -0.18088365 C159.08720628 -0.18037297 165.15312784 -0.18611426 171.2191779 -0.20723975 C176.92453486 -0.22656525 182.62957455 -0.2267855 188.33494252 -0.21220648 C190.43078576 -0.21011012 192.52664856 -0.21486822 194.62245816 -0.2269274 C197.48050535 -0.24230902 200.33744892 -0.23311855 203.19547147 -0.21766531 C204.02776975 -0.22795244 204.86006803 -0.23823957 205.71758747 -0.24883842 C209.62209177 -0.20208418 211.64135221 0.02932559 215.07434243 2.06162202 C217.44489707 4.70698768 217.65364495 6.66688705 217.72347134 10.17915475 C216.64429027 13.58809732 214.8331403 15.0568375 212.05940884 17.276811 C209.12223337 18.00026607 206.2668393 17.94815752 203.25362271 17.90500009 C201.92330997 17.91564167 201.92330997 17.91564167 200.56612223 17.92649823 C197.59404269 17.94410182 194.62326681 17.9259613 191.65120572 17.90791452 C189.52067089 17.91305242 187.3901403 17.92033272 185.25961941 17.92959726 C179.47241464 17.94813569 173.68566966 17.93515698 167.89848393 17.91550696 C161.84563398 17.89913947 155.79281359 17.90793071 149.73995084 17.91302621 C139.57471486 17.91754928 129.40966276 17.90166397 119.24446744 17.87373483 C107.4876933 17.84168211 95.73125084 17.84169806 83.97445315 17.8589496 C72.67045905 17.87480657 61.3665867 17.86808642 50.06259793 17.85101259 C45.24928173 17.84413524 40.43606292 17.8451816 35.62274808 17.85255754 C29.95588241 17.86021167 24.28939476 17.8481224 18.62259358 17.82070863 C16.54127692 17.81381461 14.45992503 17.81373767 12.37860936 17.82092416 C9.54038091 17.8295958 6.70332523 17.81370141 3.86519498 17.7914747 C3.038834 17.79971547 2.21247303 17.80795623 1.36107081 17.81644672 C-2.56365907 17.75960223 -4.51162015 17.54221289 -7.92845279 15.42823827 C-10.51537009 12.66224339 -10.94059116 11.0476895 -10.94059116 7.276811 C-8.22976784 1.59699072 -6.30630259 0.05349178 0 0 Z " fill="white" transform="translate(135.9405911564827,154.723188996315)"/>
<path d="M0 0 C5.48436286 4.3222488 7.94530304 8.87314313 9.7890625 15.59375 C10.35926214 20.99387331 10.35372973 26.36337083 10.3203125 31.78515625 C10.32301349 33.3411432 10.32690094 34.8971285 10.33190918 36.45310974 C10.33777403 39.69831572 10.32933858 42.94307838 10.31054688 46.18823242 C10.2877394 50.32615917 10.30091011 54.46304888 10.32483673 58.60093784 C10.33936071 61.80880913 10.33465908 65.01643858 10.32432556 68.22431755 C10.32167743 69.74918685 10.32485985 71.27407886 10.33424377 72.79892159 C10.37418766 81.11017414 10.20905919 88.3095928 5.7890625 95.59375 C5.2528125 96.50125 4.7165625 97.40875 4.1640625 98.34375 C-1.31349867 103.53301848 -7.17637653 105.90740451 -14.7109375 106.21875 C-22.00425081 105.89231195 -27.89307935 103.95299516 -33.08984375 98.69140625 C-37.84786763 92.71807988 -39.45153575 87.10297914 -39.51733398 79.46191406 C-39.5256575 78.77484375 -39.53398102 78.08777344 -39.54255676 77.37988281 C-39.5665234 75.12298808 -39.57541315 72.86638324 -39.58203125 70.609375 C-39.5910091 69.02764811 -39.60013113 67.44592204 -39.60939026 65.86419678 C-39.62584758 62.55234725 -39.63357416 59.24059841 -39.63647461 55.92871094 C-39.64184916 51.7077612 -39.6795038 47.48777264 -39.72521877 43.26709366 C-39.75512704 40.00002688 -39.76220116 36.7331875 -39.76320076 33.46599579 C-39.76737732 31.91120765 -39.77970738 30.35641721 -39.80071831 28.80176544 C-39.92368302 18.91510477 -39.41553303 10.46314731 -32.53147888 2.69976807 C-23.58220003 -6.09552618 -10.34984018 -6.58293722 0 0 Z M-20.2109375 14.59375 C-22.57990789 18.14720558 -22.47352956 19.69689662 -22.50146484 23.91357422 C-22.51422455 25.2185788 -22.52698425 26.52358337 -22.54013062 27.86813354 C-22.54318823 29.29490002 -22.54541601 30.72166849 -22.546875 32.1484375 C-22.5533024 33.61190929 -22.56003072 35.07537979 -22.56704712 36.53884888 C-22.57902355 39.60714699 -22.58272762 42.6753325 -22.58154297 45.74365234 C-22.58133984 49.67024531 -22.60863254 53.59611395 -22.64308739 57.52253532 C-22.66535604 60.5457794 -22.66938052 63.56884921 -22.66832352 66.5921669 C-22.6706799 68.03942484 -22.67950568 69.48668755 -22.69498825 70.93386459 C-22.71464196 72.96086011 -22.70628927 74.98806824 -22.69677734 77.01513672 C-22.69962738 78.16746796 -22.70247742 79.31979919 -22.70541382 80.50704956 C-22.10074511 84.28161082 -20.93306421 85.94686148 -18.2109375 88.59375 C-14.7109375 89.42708333 -14.7109375 89.42708333 -11.2109375 88.59375 C-8.51373346 85.96280158 -7.32514559 84.29635567 -6.71646118 80.55174255 C-6.71931122 79.42019241 -6.72216125 78.28864227 -6.72509766 77.12280273 C-6.7189444 75.83474228 -6.71279114 74.54668182 -6.70645142 73.21958923 C-6.72024721 71.82216677 -6.73478118 70.42475144 -6.75 69.02734375 C-6.75238623 67.58675807 -6.75328937 66.14616923 -6.7527771 64.70558167 C-6.75589944 61.69194958 -6.77242164 58.67879515 -6.79931641 55.6652832 C-6.83332629 51.8060776 -6.84094377 47.94739545 -6.83942604 44.08805752 C-6.8399703 41.1154533 -6.8509459 38.14296307 -6.86542892 35.1703968 C-6.87178387 33.74746627 -6.87573277 32.32452286 -6.87721634 30.9015789 C-6.88156129 28.91277281 -6.90066136 26.92401552 -6.92041016 24.93530273 C-6.92803375 23.80454819 -6.93565735 22.67379364 -6.94351196 21.5087738 C-7.20681849 18.63864855 -7.64253195 16.98528529 -9.2109375 14.59375 C-13.2287514 12.001612 -16.16963718 12.116824 -20.2109375 14.59375 Z " fill="white" transform="translate(407.2109375,210.40625)"/>
<path d="M0 0 C1.70333748 -0.01268921 1.70333748 -0.01268921 3.44108582 -0.02563477 C5.29586296 -0.01652573 5.29586296 -0.01652573 7.18811035 -0.00723267 C9.15225639 -0.0151181 9.15225639 -0.0151181 11.15608215 -0.02316284 C14.74080322 -0.03682043 18.3252648 -0.03154437 21.90999031 -0.02202559 C25.66460994 -0.01442086 29.41920761 -0.02147685 33.17382812 -0.02618408 C39.47859682 -0.03163927 45.78326002 -0.02445627 52.0880127 -0.01016235 C59.37318103 0.00616377 66.65809748 0.00087509 73.94325972 -0.01564157 C80.20243213 -0.02926321 86.46152878 -0.0311728 92.72071123 -0.02332556 C96.45717528 -0.01865275 100.19352101 -0.01801334 103.92997742 -0.02793503 C108.09560014 -0.03822402 112.2607898 -0.02395626 116.4263916 -0.00723267 C117.6629097 -0.01330536 118.8994278 -0.01937805 120.17341614 -0.02563477 C121.30897446 -0.01717529 122.44453278 -0.00871582 123.61450195 0 C125.091152 0.00169662 125.091152 0.00169662 126.59763336 0.00342751 C129.80659232 0.45052276 131.69890977 1.48833059 134.30725098 3.38095093 C135.8719633 6.51037558 136.00427056 9.99177316 135.30725098 13.38095093 C133.20651912 16.02213255 132.01397989 17.24680132 128.6554184 17.88431549 C127.13119137 17.88657764 127.13119137 17.88657764 125.57617188 17.8888855 C124.40688644 17.90016479 123.23760101 17.91144409 122.03288269 17.92306519 C120.75379532 17.91496826 119.47470795 17.90687134 118.15686035 17.89852905 C116.7933121 17.90395045 115.4297697 17.91107322 114.0662384 17.91976929 C110.36576538 17.93800389 106.66573846 17.93093488 102.96525764 17.91825294 C99.09271162 17.90812584 95.22020378 17.91751781 91.34765625 17.92379761 C84.84437197 17.93107488 78.34126939 17.92148431 71.8380127 17.9024353 C64.3193199 17.88066626 56.80106096 17.88771758 49.28237867 17.90974092 C42.82704946 17.92789274 36.37185087 17.93045436 29.91650438 17.91998625 C26.06097839 17.91375006 22.20565633 17.91291896 18.35014343 17.9261322 C14.7253253 17.93768709 11.10106652 17.92967245 7.47630882 17.90655518 C5.51142013 17.89874287 3.54648412 17.91062713 1.58161926 17.92306519 C0.41233383 17.91178589 -0.7569516 17.90050659 -1.96166992 17.8888855 C-2.97782127 17.8873774 -3.99397263 17.88586929 -5.04091644 17.88431549 C-8.40816466 17.24515243 -9.57879451 16.02336792 -11.69274902 13.38095093 C-12.75564648 10.42002229 -12.79668244 8.81747129 -12.06774902 5.75595093 C-9.29011925 0.95822677 -5.27814493 0.00606439 0 0 Z " fill="white" transform="translate(137.6927490234375,391.6190490722656)"/>
<path d="M0 0 C1.70333748 -0.01268921 1.70333748 -0.01268921 3.44108582 -0.02563477 C5.29586296 -0.01652573 5.29586296 -0.01652573 7.18811035 -0.00723267 C9.15225639 -0.0151181 9.15225639 -0.0151181 11.15608215 -0.02316284 C14.74080322 -0.03682043 18.3252648 -0.03154437 21.90999031 -0.02202559 C25.66460994 -0.01442086 29.41920761 -0.02147685 33.17382812 -0.02618408 C39.47859682 -0.03163927 45.78326002 -0.02445627 52.0880127 -0.01016235 C59.37318103 0.00616377 66.65809748 0.00087509 73.94325972 -0.01564157 C80.20243213 -0.02926321 86.46152878 -0.0311728 92.72071123 -0.02332556 C96.45717528 -0.01865275 100.19352101 -0.01801334 103.92997742 -0.02793503 C108.09560014 -0.03822402 112.2607898 -0.02395626 116.4263916 -0.00723267 C117.6629097 -0.01330536 118.8994278 -0.01937805 120.17341614 -0.02563477 C121.30897446 -0.01717529 122.44453278 -0.00871582 123.61450195 0 C125.091152 0.00169662 125.091152 0.00169662 126.59763336 0.00342751 C129.80659232 0.45052276 131.69890977 1.48833059 134.30725098 3.38095093 C135.8719633 6.51037558 136.00427056 9.99177316 135.30725098 13.38095093 C133.20651912 16.02213255 132.01397989 17.24680132 128.6554184 17.88431549 C127.13119137 17.88657764 127.13119137 17.88657764 125.57617188 17.8888855 C124.40688644 17.90016479 123.23760101 17.91144409 122.03288269 17.92306519 C120.75379532 17.91496826 119.47470795 17.90687134 118.15686035 17.89852905 C116.7933121 17.90395045 115.4297697 17.91107322 114.0662384 17.91976929 C110.36576538 17.93800389 106.66573846 17.93093488 102.96525764 17.91825294 C99.09271162 17.90812584 95.22020378 17.91751781 91.34765625 17.92379761 C84.84437197 17.93107488 78.34126939 17.92148431 71.8380127 17.9024353 C64.3193199 17.88066626 56.80106096 17.88771758 49.28237867 17.90974092 C42.82704946 17.92789274 36.37185087 17.93045436 29.91650438 17.91998625 C26.06097839 17.91375006 22.20565633 17.91291896 18.35014343 17.9261322 C14.7253253 17.93768709 11.10106652 17.92967245 7.47630882 17.90655518 C5.51142013 17.89874287 3.54648412 17.91062713 1.58161926 17.92306519 C0.41233383 17.91178589 -0.7569516 17.90050659 -1.96166992 17.8888855 C-2.97782127 17.8873774 -3.99397263 17.88586929 -5.04091644 17.88431549 C-8.40816466 17.24515243 -9.57879451 16.02336792 -11.69274902 13.38095093 C-12.75564648 10.42002229 -12.79668244 8.81747129 -12.06774902 5.75595093 C-9.29011925 0.95822677 -5.27814493 0.00606439 0 0 Z " fill="white" transform="translate(137.6927490234375,213.61904907226563)"/>
<path d="M0 0 C1.32057655 -0.01279495 1.32057655 -0.01279495 2.66783142 -0.02584839 C3.63101791 -0.02494202 4.59420441 -0.02403564 5.58657837 -0.02310181 C6.60310989 -0.02981903 7.61964142 -0.03653625 8.66697693 -0.04345703 C12.03557185 -0.06249285 15.40396813 -0.06636408 18.77261353 -0.06851196 C21.11047448 -0.07493606 23.44833461 -0.08166412 25.78619385 -0.08868408 C30.6905402 -0.10067087 35.59481605 -0.10436347 40.49917603 -0.10317993 C46.78648882 -0.10297668 53.07334993 -0.13027958 59.36055565 -0.16472435 C64.19038982 -0.18695171 69.02011458 -0.19101874 73.84999466 -0.18996048 C76.16806215 -0.19232269 78.48613238 -0.20118089 80.80414963 -0.21662521 C84.04575051 -0.23620015 87.28636823 -0.23047998 90.52798462 -0.21841431 C91.48712265 -0.22965332 92.44626068 -0.24089233 93.4344635 -0.25247192 C97.6413119 -0.212641 100.07880854 -0.08291394 103.78253174 2.05169678 C106.05762694 4.69907697 106.28205855 6.71516662 106.35073853 10.16976929 C105.25374689 13.63497227 103.54720051 15.03896966 100.68667603 17.26742554 C97.31344084 18.00577785 94.00172295 17.94062604 90.5597229 17.89852905 C89.54289932 17.90568436 88.52607574 17.91283966 87.47843933 17.92021179 C84.12030997 17.93710804 80.76351379 17.91768962 77.40542603 17.89633179 C75.07042327 17.89716039 72.73542058 17.89961946 70.40042114 17.90364075 C65.50786776 17.9064994 60.61577201 17.89179018 55.72329712 17.86434937 C49.45166236 17.83026716 43.18084598 17.83628454 36.90917206 17.85501194 C32.0878721 17.86558 27.2667626 17.85664573 22.44548035 17.84162712 C20.13301662 17.83644347 17.82053301 17.83692931 15.5080719 17.84317207 C12.27615585 17.84862169 9.04541169 17.82825577 5.81362915 17.8008728 C4.85763321 17.80739868 3.90163727 17.81392456 2.91667175 17.82064819 C-1.31320206 17.7597029 -3.69711022 17.63865617 -7.38375854 15.41767883 C-9.87615962 12.64021736 -10.31332397 10.98658894 -10.31332397 7.26742554 C-8.05591842 2.30113331 -5.5024575 0.0241064 0 0 Z " fill="white" transform="translate(135.31332397460938,332.7325744628906)"/>
<path d="M0 0 C0.89728317 -0.0071553 1.79456635 -0.01431061 2.71903992 -0.02168274 C4.19962135 -0.02571609 4.19962135 -0.02571609 5.71011353 -0.02983093 C7.26636192 -0.03968773 7.26636192 -0.03968773 8.85404968 -0.04974365 C12.29777085 -0.06950402 15.7414484 -0.08114424 19.18521118 -0.09111023 C20.94569731 -0.09722352 20.94569731 -0.09722352 22.74174881 -0.10346031 C28.95141678 -0.12433091 35.16106258 -0.1386294 41.37075806 -0.147995 C47.79605102 -0.15907256 54.2209989 -0.19348551 60.64616966 -0.23316669 C65.5771755 -0.25926327 70.50809819 -0.26768056 75.43916702 -0.27127647 C77.80830852 -0.27615901 80.1774459 -0.28781998 82.54652023 -0.30631447 C85.85784325 -0.33056153 89.16826089 -0.32976724 92.47964478 -0.32279968 C93.4626506 -0.33560974 94.44565643 -0.3484198 95.45845032 -0.36161804 C102.09763985 -0.31056017 102.09763985 -0.31056017 105.33135986 2.05154419 C107.26976101 4.967852 107.29029452 6.83408999 107.11880493 10.24482727 C106.51039261 13.17845897 105.11280854 14.44107469 102.72427368 16.14717102 C99.99071081 17.05835865 98.38243082 17.27621705 95.5695343 17.28761292 C94.72425171 17.29332306 93.87896912 17.2990332 93.0080719 17.30491638 C92.08385941 17.30603424 91.15964691 17.3071521 90.20742798 17.30830383 C89.23151703 17.31326874 88.25560608 17.31823364 87.25012207 17.323349 C84.01623839 17.33797385 80.78240377 17.34477325 77.54849243 17.35029602 C75.30270893 17.35604729 73.05692544 17.36180502 70.81114197 17.36756897 C66.09932221 17.37807993 61.38751953 17.38392195 56.6756897 17.3874054 C50.63966758 17.39288973 44.60387109 17.41691625 38.56791973 17.44537735 C33.92764122 17.4640061 29.28741701 17.46920947 24.64710426 17.47074127 C22.42197244 17.47376787 20.19684158 17.48179663 17.97174644 17.49492645 C14.85742431 17.51199126 11.74365297 17.51010543 8.62930298 17.50361633 C7.25209328 17.51743851 7.25209328 17.51743851 5.84706116 17.53153992 C0.75491481 17.49832269 -2.92512163 17.10437267 -7.27572632 14.14717102 C-8.83822632 10.83467102 -8.83822632 10.83467102 -9.27572632 7.14717102 C-7.22160807 1.60105175 -5.7784363 0.03157741 0 0 Z " fill="white" transform="translate(134.27572631835938,273.8528289794922)"/>
<path d="M0 0 C5.79229532 3.58870471 9.86662071 8.80047862 11.96875 15.26953125 C13.50116596 22.35695508 12.85670198 29.02822665 9.4375 35.4375 C5.8611512 40.8020232 1.62478649 44.39240251 -4.5625 46.4375 C-12.42172252 47.49448871 -19.92699383 47.56654939 -26.6953125 43.05859375 C-32.24343621 38.2417081 -36.08761538 32.54898537 -36.77734375 25.125 C-37.06716214 17.52016557 -35.57555257 11.72008926 -30.875 5.6875 C-23.04036144 -2.62254138 -10.59897434 -4.71746257 0 0 Z M-17.5625 17.4375 C-19.87787595 20.25458195 -19.87787595 20.25458195 -19.375 23.4375 C-18.4206572 27.17009515 -18.4206572 27.17009515 -15.5625 29.4375 C-12.10500051 30.10426878 -12.10500051 30.10426878 -8.5625 29.4375 C-5.90365399 27.44729883 -5.90365399 27.44729883 -4.5625 24.4375 C-4.62763355 21.18082232 -4.95864238 19.27139862 -6.875 16.625 C-11.16826064 13.60381659 -13.41505712 14.38148946 -17.5625 17.4375 Z " fill="white" transform="translate(404.5625,323.5625)"/>
</svg>
