<svg xmlns="http://www.w3.org/2000/svg" xmlns:xlink="http://www.w3.org/1999/xlink" version="1.1" x="0px" y="0px" viewBox="0 0 100 125" enable-background="new 0 0 100 100" xml:space="preserve"><path fill=" #4495FF" d="M18.07,35.02c2.78-2.047,6.118-3.131,9.652-3.131H81.75v-2.09c0-5.422-2.759-8.18-8.181-8.18H49.851  c-1.632,0-2.726-0.453-3.879-1.607l-5.421-5.422c-1.154-1.152-2.248-1.605-3.879-1.605H13.181C7.759,12.984,5,15.742,5,21.164  v45.396l7.219-23.251C13.268,39.934,15.291,37.066,18.07,35.02z"/><path fill=" #4495FF" d="M88.111,37.252H27.723c-4.416,0-8.117,2.726-9.427,6.944L5.27,86.148c-0.148,0.479,0.137,0.867,0.64,0.867h75.158  c0.377,0,0.772-0.291,0.884-0.65l12.555-40.433C96.144,40.659,93.634,37.252,88.111,37.252z M90.686,44.746l-11.883,38.27H10.431  l11.686-37.633c0.791-2.549,2.938-4.131,5.606-4.131h60.389c1.563,0,2.4,0.38,2.662,0.735  C91.035,42.342,91.149,43.254,90.686,44.746z"/></svg>