<svg xmlns="http://www.w3.org/2000/svg" xmlns:xlink="http://www.w3.org/1999/xlink" xml:space="preserve" version="1.1" style="shape-rendering:geometricPrecision;text-rendering:geometricPrecision;image-rendering:optimizeQuality;" viewBox="0 0 3529 4418.75" x="0px" y="0px" fill-rule="evenodd" clip-rule="evenodd"><defs><style type="text/css">
   
    .fil0 {fill:#4495FF;fill-rule:nonzero}
   
  </style></defs><g><g><path class="fil0" d="M3355 1582l-1136 1323 -84 99 -454 218c-23,11 -49,7 -70,-10 -20,-18 -28,-43 -20,-67l147 -482 84 -99 1135 -1323 398 341zm-3085 -1582l1870 0c75,0 142,30 191,79 49,49 79,117 79,191l0 1462 -135 157 0 -1619c0,-37 -15,-71 -39,-96 -25,-24 -59,-39 -96,-39l-1870 0c-37,0 -71,15 -96,39 -24,25 -39,59 -39,96l0 2995c0,37 15,71 39,96 25,24 59,40 96,40l1870 0c37,0 71,-16 96,-40 24,-25 39,-59 39,-96l0 -278 135 -157 0 435c0,75 -30,142 -79,191 -49,49 -116,79 -191,79l-1870 0c-74,0 -142,-30 -191,-79 -49,-49 -79,-116 -79,-191l0 -2995c0,-74 30,-142 79,-191 49,-49 117,-79 191,-79zm3085 1582l115 -134c104,-121 57,-267 -42,-352 -99,-86 -251,-111 -355,11l-116 134 398 341zm-2865 684l859 0c36,0 65,29 65,64l0 0c0,36 -29,65 -65,65l-859 0c-36,0 -65,-29 -65,-65l0 0c0,-35 29,-64 65,-64zm0 -562l1138 0c35,0 64,29 64,64l0 0c0,36 -29,65 -64,65l-1138 0c-36,0 -65,-29 -65,-65l0 0c0,-35 29,-64 65,-64zm0 -563l1430 0c36,0 65,29 65,64l0 0c0,35 -29,64 -65,64l-1430 0c-36,0 -65,-29 -65,-64l0 0c0,-35 29,-64 65,-64zm1920 885l0 510 -135 157 0 -511 135 -156z"/></g></g><text x="0" y="3550" fill="#000000" font-size="5px" font-weight="bold" font-family="'Helvetica Neue', Helvetica, Arial-Unicode, Arial, Sans-serif">Created by popcornarts</text><text x="0" y="3555" fill="#000000" font-size="5px" font-weight="bold" font-family="'Helvetica Neue', Helvetica, Arial-Unicode, Arial, Sans-serif">from the Noun Project</text></svg>