<svg xmlns:inkscape="http://www.inkscape.org/namespaces/inkscape" xmlns:sodipodi="http://sodipodi.sourceforge.net/DTD/sodipodi-0.dtd" xmlns="http://www.w3.org/2000/svg" xmlns:svg="http://www.w3.org/2000/svg" version="1.1" viewBox="0 0 1838.8772 2137.49925" x="0px" y="0px"><g transform="translate(-1517.2987,-2260.7235)"><path   style="" d="m 1808.2987,3797.7229 v -173 h -145.5 -145.5 v -516 -516 h 365.5 365.5 v 37 37 h -328 -328 v 441.5 441.5 h 145 145 v 143.5 c 0,93.3889 0.3434,143.5 0.9834,143.5 0.8895,0 74.0499,-44.8114 370.8948,-227.1763 l 97.3783,-59.8237 h 295.3717 295.3718 v -88.5 -88.5 h 37.5 37.5 v 126 126 H 2694.9378 2372.577 l -161.3892,99.127 c -88.764,54.5198 -215.4904,132.3698 -281.6143,173 -66.1238,40.6301 -120.4613,73.873 -120.75,73.873 -0.2886,0 -0.5248,-77.85 -0.5248,-173 z m 978.5545,-506.5785 c -14.4406,-3.5557 -25.1544,-15.2307 -27.5825,-30.057 -0.5282,-3.2255 -0.9684,-15.7645 -0.9781,-27.8645 -0.02,-24.4187 -0.6298,-28.2677 -6.1222,-38.616 -4.1809,-7.8774 -13.7423,-17.7865 -20.3717,-21.1126 -8.7083,-4.3691 -95.09,-39.6681 -99.6419,-40.7176 -10.5345,-2.4291 -27.3407,0.1353 -36.7719,5.6108 -2.5224,1.4644 -12.7211,10.642 -22.6637,20.3947 -18.7901,18.4311 -23.086,21.5277 -33.1569,23.8998 -6.1414,1.4465 -13.2968,0.7051 -21.2656,-2.2036 -5.0074,-1.8277 -8.7951,-5.2876 -42.2919,-38.6315 -39.3581,-39.1785 -40.8101,-40.9622 -42.6757,-52.4252 -1.1853,-7.2826 0.1115,-15.4101 3.6136,-22.6476 2.0316,-4.1987 6.6303,-9.4608 18.8746,-21.5976 17.3149,-17.1628 22.1922,-23.4577 25.5324,-32.9536 2.6409,-7.508 3.5847,-20.299 2.032,-27.5402 -1.1408,-5.3203 -35.6023,-90.1269 -40.7568,-100.2989 -4.1947,-8.2777 -13.723,-16.982 -23.9888,-21.9141 l -8.8394,-4.2468 -28.5,-0.6045 c -30.3897,-0.6447 -32.3698,-0.9475 -40.7396,-6.2311 -4.9434,-3.1206 -10.4331,-9.4568 -13.4538,-15.5283 l -2.3066,-4.6361 -0.2829,-53.6246 c -0.2771,-52.5259 -0.2395,-53.7406 1.8348,-59.2846 2.9615,-7.9152 11.0618,-16.4478 19.1661,-20.1888 l 6.282,-2.8998 28,-0.6016 c 18.1283,-0.3896 29.4102,-1.0464 32,-1.8631 12.3775,-3.9034 25.5827,-14.5577 30.9779,-24.9938 3.4656,-6.7036 39.5491,-95.2071 40.5047,-99.3476 1.4132,-6.1227 1.2016,-16.2895 -0.4882,-23.4564 -2.9097,-12.3411 -6.3171,-17.2306 -25.935,-37.2157 -11.7915,-12.0122 -18.9359,-20.1059 -20.3232,-23.024 -2.881,-6.0596 -4.2272,-15.2662 -3.1868,-21.7935 1.9529,-12.2514 3.3131,-13.9627 41.2539,-51.8999 32.381,-32.3779 35.7567,-35.4575 42.1967,-38.495 6.3114,-2.9768 7.8854,-3.3006 16,-3.2909 14.1201,0.017 16.7776,1.6305 39.5145,23.9936 16.3384,16.0697 19.7709,18.9672 25.6,21.6103 12.234,5.5471 24.2757,7.0969 34.4838,4.438 5.369,-1.3984 88.9048,-35.3365 97.9017,-39.7745 6.0311,-2.975 19.1137,-16.0796 22.2506,-22.2881 5.189,-10.2699 5.7494,-14.084 5.7494,-39.1323 0,-13.4202 0.4759,-25.5122 1.1244,-28.5685 2.4588,-11.5882 9.7861,-20.9196 20.3756,-25.9483 l 6,-2.8493 53.6243,-8e-4 c 58.7159,-9e-4 57.4933,-0.1121 66.4369,6.0413 6.065,4.1728 10.9931,11.0742 13.4342,18.8132 1.7612,5.5838 2.0046,9.1182 2.0046,29.1135 0,12.517 0.4568,25.1821 1.0152,28.1447 2.8618,15.1843 15.0131,30.7442 29.1317,37.3031 4.0442,1.8789 26.6336,11.3519 50.1986,21.0513 48.9008,20.1275 52.2525,21.0566 65.8702,18.2597 14.8702,-3.0541 18.2836,-5.2794 39.2843,-25.6109 23.084,-22.3484 26.8549,-24.6326 40.5,-24.5324 6.3735,0.047 10.0011,0.6408 14.5,2.3746 5.5673,2.1455 8.6179,4.9164 42.3039,38.4266 30.7948,30.6342 36.7573,37.0335 39.2919,42.1709 5.5544,11.2578 4.8476,25.2025 -1.815,35.8125 -1.4268,2.2721 -10.3881,12.0455 -19.914,21.7186 -19.2399,19.5374 -22.0559,23.8519 -25.0047,38.3118 -2.8666,14.0572 -2.0499,16.9493 19.6483,69.5735 10.5052,25.4782 20.0251,48.1367 21.1554,50.3522 4.5519,8.9224 16.5124,19.1007 28.0185,23.8435 4.89,2.0156 7.5981,2.2418 33.8157,2.8238 25.039,0.5558 29.0678,0.8685 33.1757,2.5753 11.5499,4.7988 19.4006,13.6237 22.3243,25.0947 1.3456,5.279 1.5298,13.3766 1.2853,56.5 l -0.2853,50.3377 -3.0945,6.5 c -5.3382,11.2126 -15.007,18.7467 -26.8392,20.9134 -3.2635,0.5976 -16.1193,1.0866 -28.5685,1.0866 -24.9387,0 -28.5741,0.5837 -39.4272,6.3303 -7.5343,3.9894 -17.3944,13.812 -20.8582,20.779 -1.474,2.9649 -10.9921,25.6804 -21.1512,50.479 -20.213,49.3403 -21.3842,53.2621 -19.6429,65.7756 2.2461,16.1413 5.3279,21.0358 27.1919,43.1851 13.9844,14.1669 18.3681,19.2541 20.3816,23.6521 5.6185,12.2724 4.0678,26.8313 -4.0063,37.6135 -2.3416,3.127 -19.0463,20.3772 -37.1215,38.3338 -24.3729,24.213 -34.1721,33.3004 -37.927,35.1721 -7.1512,3.5646 -16.1119,5.0258 -23.0051,3.7515 -10.6687,-1.9722 -13.6464,-4.0586 -33.3033,-23.3349 -20.4149,-20.0198 -25.7094,-23.6933 -37.8588,-26.2678 -9.2765,-1.9657 -17.6,-1.8247 -25.2914,0.4286 -8.1946,2.4007 -93.0193,37.35 -98.6256,40.6355 -6.6051,3.8709 -10.1723,7.2838 -15.4135,14.747 -8.9698,12.7724 -9.256,14.1251 -9.8873,46.7196 l -0.552,28.5 -2.9009,6.282 c -3.6866,7.9833 -12.2091,16.1133 -20.3145,19.3791 -5.761,2.3211 -5.9864,2.3314 -55.2846,2.5275 -40.5847,0.1614 -50.5708,-0.067 -55.4455,-1.2671 z m 84.8861,-304.8957 c 84.1566,-12.9876 153.2679,-75.5037 174.0342,-157.4262 4.9468,-19.5152 5.9237,-28.1353 5.9612,-52.5996 0.03,-19.7897 -0.289,-24.8062 -2.288,-35.9406 -8.2282,-45.8307 -29.5308,-85.583 -63.2786,-118.0822 -52.2592,-50.326 -128.6395,-69.9782 -200.2179,-51.5151 -35.7709,9.2268 -69.8418,28.9441 -96.671,55.9448 -47.4547,47.7579 -69.2241,113.5367 -59.4673,179.6875 8.0123,54.3231 35.4961,102.1077 78.3766,136.2692 30.8348,24.5651 69.7742,40.4934 110.1609,45.0618 11.3215,1.2806 41.0771,0.5006 53.3899,-1.3996 z" fill="#4495FF"/></g></svg>