<?xml version="1.0" encoding="UTF-8"?>
<svg version="1.1" xmlns="http://www.w3.org/2000/svg" width="512" height="512">
<path d="M0 0 C0.98136606 -0.00630794 1.96273212 -0.01261588 2.97383654 -0.01911497 C4.05980132 -0.02097697 5.1457661 -0.02283896 6.2646389 -0.02475739 C7.98607803 -0.03344746 7.98607803 -0.03344746 9.74229372 -0.0423131 C12.93757381 -0.05727979 16.13283129 -0.0676877 19.3281343 -0.07607794 C22.06649055 -0.08407446 24.80482595 -0.09576662 27.54316838 -0.10749274 C37.35332346 -0.14942917 47.16350304 -0.17661073 56.97371483 -0.20114899 C57.74785286 -0.20312389 58.52199089 -0.20509879 59.31958765 -0.20713353 C74.68858446 -0.24629652 90.05758933 -0.28000581 105.42662048 -0.30221558 C108.80673929 -0.30718497 112.18685798 -0.31222928 115.56697655 -0.31735992 C116.40710043 -0.3186306 117.24722431 -0.31990127 118.11280648 -0.32121044 C131.71943407 -0.34256627 145.32582 -0.39155589 158.93232603 -0.45160407 C172.89937876 -0.51273541 186.86630686 -0.54740503 200.83349168 -0.55668879 C208.67657255 -0.56259965 216.51924424 -0.58035145 224.36219215 -0.62807465 C231.04259703 -0.66868616 237.72252599 -0.68554955 244.40304883 -0.67142183 C247.81094231 -0.66495657 251.21782233 -0.66978106 254.62555885 -0.70529556 C258.32379711 -0.73787078 262.01950069 -0.72728301 265.7177639 -0.70590973 C266.79034435 -0.7256175 267.8629248 -0.74532527 268.96800768 -0.76563025 C275.6131094 -0.66862739 279.02810278 0.60415286 283.72897482 5.35101986 C284.2712234 5.94224164 284.81347198 6.53346342 285.37215233 7.14260101 C286.5537929 8.26056753 286.5537929 8.26056753 287.759305 9.40111923 C288.41432279 10.05446117 289.06934057 10.70780312 289.74420738 11.3809433 C290.5110334 12.14350433 291.27785942 12.90606537 292.06792259 13.69173431 C293.28477242 14.90926392 293.28477242 14.90926392 294.52620506 16.15139008 C295.40358833 17.02541473 296.2809716 17.89943939 297.18494225 18.79994965 C299.56657026 21.17376204 301.94594777 23.54978126 304.32399058 25.9271822 C305.81163983 27.41411694 307.30000039 28.90033588 308.78861237 30.38630676 C313.98588767 35.5743665 319.18061039 40.76496606 324.37288475 45.9580307 C329.20926441 50.79501358 334.05122258 55.62636263 338.89576572 60.45516801 C343.06422801 64.6105713 347.22884276 68.76980396 351.39046055 72.93206191 C353.87243025 75.41428662 356.35592987 77.89493189 358.84331131 80.37173462 C361.60908009 83.12605667 364.36683582 85.88831478 367.12386131 88.65139008 C367.94926414 89.4711734 368.77466698 90.29095673 369.62508202 91.13558197 C370.74571289 92.26250458 370.74571289 92.26250458 371.88898277 93.4121933 C372.54136138 94.06402714 373.19373999 94.71586098 373.86588764 95.38744736 C376.76006786 98.75984999 376.49890113 102.08846938 376.50358009 106.33867455 C376.50742124 107.64435414 376.51126238 108.95003374 376.51521993 110.29527938 C376.51443963 111.7529214 376.51356084 113.21056336 376.51259422 114.66820526 C376.51517702 116.20990706 376.51818994 117.75160818 376.52159762 119.29330838 C376.52968082 123.54106922 376.53145793 127.78881318 376.53219509 132.0365808 C376.53404333 136.6133582 376.54158945 141.19012679 376.54833031 145.76689911 C376.56192297 155.77913336 376.56793965 165.79136361 376.57234097 175.80360556 C376.57510151 182.05194147 376.57933848 188.30027583 376.58384514 194.54861069 C376.59603845 211.83926229 376.60633802 229.12991265 376.60972023 246.42056847 C376.6099398 247.5275919 376.61015936 248.63461534 376.61038558 249.77518494 C376.61060386 250.88489389 376.61082214 251.99460284 376.61104703 253.13793933 C376.6114905 255.3867263 376.61193706 257.63551327 376.6123867 259.88430023 C376.61260813 260.9997821 376.61282956 262.11526397 376.6130577 263.26454832 C376.61700749 281.34787287 376.63446677 299.43115716 376.65774623 317.51446615 C376.68143915 336.06826048 376.69392112 354.6220346 376.69508815 373.17584431 C376.69600601 383.59804229 376.70178627 394.02018781 376.71990776 404.44237137 C376.7352809 413.31531209 376.74044569 422.18818414 376.73216966 431.06113563 C376.7282534 435.59032362 376.72924016 440.11937321 376.74322701 444.64854431 C376.75590748 448.79248121 376.75482029 452.93617488 376.74263629 457.08011116 C376.7406691 458.58144871 376.74380457 460.08280315 376.75248066 461.58411692 C376.76350913 463.62099841 376.75432851 465.65795959 376.74408913 467.6948452 C376.74468621 468.82744361 376.7452833 469.96004202 376.74589849 471.12696159 C376.32492477 474.52366523 375.39953108 476.40925027 373.37215233 479.14260101 C370.60269719 480.52732858 368.36600999 480.27063601 365.26509857 480.27402878 C363.95382653 480.27786992 362.6425545 480.28171107 361.29154694 480.28566861 C359.82241315 480.28488827 358.35327941 480.28400947 356.88414574 480.28304291 C355.33434471 480.28562497 353.78454434 480.28863769 352.23474491 480.29204631 C347.95999098 480.30013813 343.68525382 480.30190709 339.41049314 480.30264378 C334.80645052 480.30449053 330.20241669 480.31203591 325.59837914 480.31877899 C315.52417131 480.33237798 305.44996745 480.33838937 295.37575197 480.34278965 C289.08973957 480.34554924 282.80372872 480.34978605 276.51771736 480.35429382 C259.12587963 480.36648817 241.73404315 480.37678739 224.34220123 480.38016891 C223.22845589 480.38038848 222.11471055 480.38060805 220.96721535 480.38083427 C219.85075295 480.38105254 218.73429054 480.38127082 217.58399594 480.38149571 C215.32148687 480.38193919 213.0589778 480.38238575 210.79646873 480.38283539 C209.67417783 480.38305682 208.55188692 480.38327825 207.39558719 480.38350639 C189.20159267 480.38745623 171.00763815 480.40491519 152.81365909 480.42819491 C134.15029005 480.45188321 115.4869411 480.4643696 96.82355678 480.46553683 C86.33821871 480.46645498 75.85293277 480.47224229 65.36760902 480.49035645 C56.44081682 480.5057234 47.51409285 480.51089808 38.58728994 480.50261834 C34.02987941 480.49869981 29.47260642 480.49969977 24.91521263 480.51367569 C20.74661627 480.52634282 16.57826184 480.52528093 12.40966617 480.51308498 C10.89822239 480.51111543 9.38676189 480.5142639 7.87534167 480.52292934 C5.82721821 480.53393235 3.77901572 480.52478997 1.73088837 480.51453781 C0.59129264 480.5151349 -0.54830309 480.51573199 -1.72243202 480.51634717 C-4.96855835 480.09877276 -6.32966816 479.43964177 -8.62784767 477.14260101 C-9.83182716 473.53066255 -9.76824627 470.23785481 -9.75927544 466.47849464 C-9.76132807 465.68637221 -9.7633807 464.89424977 -9.76549554 464.07812363 C-9.77118773 461.40153148 -9.76970556 458.72499042 -9.76828957 456.04839325 C-9.77087192 454.11896037 -9.77388472 452.18952803 -9.77729297 450.26009643 C-9.78538129 444.94058833 -9.78715355 439.62109371 -9.78789043 434.30158019 C-9.78973778 428.57141872 -9.79728345 422.84126429 -9.80402565 417.11110687 C-9.81762195 404.57415949 -9.82363556 392.03721531 -9.82803631 379.50026178 C-9.83079623 371.67733473 -9.8350331 363.85440891 -9.83954048 356.0314827 C-9.85173426 334.38645549 -9.86206914 312.74142979 -9.86541557 291.09639931 C-9.86563721 289.69642063 -9.86585899 288.29644195 -9.86608092 286.89646327 C-9.86630157 285.49307533 -9.86652205 284.08968738 -9.86674237 282.68629944 C-9.86718493 279.87078929 -9.86763204 277.05527914 -9.86808205 274.23976898 C-9.86819144 273.54168506 -9.86830083 272.84360113 -9.86841353 272.12436314 C-9.87204551 249.48049963 -9.88797089 226.8366681 -9.91127241 204.19281683 C-9.93585399 180.2613607 -9.94958088 156.3299249 -9.95078349 132.3984555 C-9.95170161 119.34936834 -9.95748839 106.30032306 -9.9756031 93.25124741 C-9.99097002 82.14218487 -9.99614473 71.03317716 -9.987865 59.92410602 C-9.98394653 54.25267816 -9.98494625 48.58136084 -9.99892235 42.90994644 C-10.0115896 37.72238733 -10.01052732 32.53502263 -9.99833164 27.34746407 C-9.99636214 25.4665871 -9.99951032 23.58569669 -10.008176 21.70483865 C-10.01918062 19.15578332 -10.01184346 16.60742482 -9.99978447 14.05838966 C-10.00737966 13.32154861 -10.01497486 12.58470755 -10.02280021 11.82553798 C-9.97769517 7.43429493 -9.33306669 4.63486794 -6.62784767 1.14260101 C-4.21525826 -0.06369369 -2.69581458 0.01081041 0 0 Z M7.37215233 16.14260101 C7.37215233 163.98260101 7.37215233 311.82260101 7.37215233 464.14260101 C123.53215233 464.14260101 239.69215233 464.14260101 359.37215233 464.14260101 C359.37215233 347.65260101 359.37215233 231.16260101 359.37215233 111.14260101 C330.66215233 110.81260101 301.95215233 110.48260101 272.37215233 110.14260101 C270.72215233 109.81260101 269.07215233 109.48260101 267.37215233 109.14260101 C257.56682498 79.72661896 265.71665515 47.1478548 265.37215233 16.14260101 C180.23215233 16.14260101 95.09215233 16.14260101 7.37215233 16.14260101 Z M282.37215233 30.14260101 C282.37215233 51.26260101 282.37215233 72.38260101 282.37215233 94.14260101 C303.49215233 94.14260101 324.61215233 94.14260101 346.37215233 94.14260101 C342.49668043 89.62121713 338.67468585 85.299064 334.47444725 81.1155014 C333.91922386 80.5585257 333.36400047 80.00154999 332.79195213 79.42769623 C330.98132532 77.61271653 329.16712375 75.80136148 327.35262108 73.99025726 C326.08549198 72.72245381 324.8185113 71.45450201 323.55167198 70.186409 C320.90987533 67.54314479 318.26629495 64.90168132 315.62141991 62.2614975 C312.22382583 58.86963534 308.83078798 55.47325618 305.43904209 52.07554722 C302.83043939 49.46334329 300.21947501 46.85351047 297.60777283 44.24440575 C296.35465374 42.99195533 295.10228144 41.73875727 293.85065842 40.48481178 C292.11046717 38.74209745 290.3671317 37.00259263 288.62288475 35.2639389 C287.84292892 34.48094673 287.84292892 34.48094673 287.04721642 33.68213654 C285.05133956 31.22576531 285.05133956 31.22576531 282.37215233 30.14260101 Z " fill="white" transform="translate(72.62784767150879,15.857398986816406)"/>
<path d="M0 0 C1.56920055 -0.01169993 1.56920055 -0.01169993 3.17010212 -0.02363622 C6.6810594 -0.04360495 10.19093866 -0.02777158 13.7019043 -0.01205444 C16.21667108 -0.01882834 18.73143291 -0.02773018 21.2461853 -0.03860474 C27.37079359 -0.05905983 33.49500164 -0.05603497 39.61961532 -0.04154153 C44.59707259 -0.03025031 49.574444 -0.02871785 54.5519104 -0.03416061 C55.61446752 -0.03530986 55.61446752 -0.03530986 56.69849044 -0.03648233 C58.13752614 -0.03808095 59.57656181 -0.03970202 61.01559746 -0.04134528 C74.51000139 -0.0556036 88.00423549 -0.03920884 101.49861157 -0.01234345 C113.07785409 0.00999547 124.65684599 0.00611536 136.23608398 -0.01693726 C149.68212988 -0.04369388 163.12802693 -0.0542303 176.57409573 -0.03887594 C178.00784236 -0.03728319 179.44158901 -0.03571134 180.87533569 -0.03416061 C181.93348629 -0.03300355 181.93348629 -0.03300355 183.01301366 -0.03182311 C187.98459305 -0.02750567 192.95607805 -0.03479355 197.92764282 -0.04655838 C204.61887879 -0.06204459 211.30956792 -0.05102195 218.00078201 -0.0220871 C220.45944048 -0.01546434 222.91813871 -0.0173941 225.37678146 -0.02840042 C228.7274788 -0.04201945 232.0766468 -0.02498201 235.42724609 0 C236.89440803 -0.01673041 236.89440803 -0.01673041 238.3912096 -0.03379881 C242.80140613 0.03019189 245.08189243 0.21218911 248.81768036 2.71203041 C251.21553585 6.40869414 251.33746231 8.64055647 251.33508301 13.03604126 C251.34147183 13.77182498 251.34786065 14.5076087 251.35444307 15.2656889 C251.36968097 17.72656151 251.34924162 20.18582091 251.32885742 22.64663696 C251.33235901 24.41264377 251.33801801 26.17864742 251.34567261 27.94464111 C251.35992493 32.73812569 251.3428547 37.53103694 251.31938744 42.32446671 C251.29928631 47.34030193 251.30515761 52.35611317 251.30749512 57.37197876 C251.30744154 65.79533346 251.28767984 74.2184639 251.25561523 82.64175415 C251.21872212 92.38083501 251.20993961 102.11962208 251.21691275 111.85876369 C251.22321758 121.22670396 251.2124638 130.59454345 251.19294739 139.96246338 C251.18477176 143.94959956 251.18206415 147.93668426 251.18363953 151.92382812 C251.18451835 156.61886536 251.17030275 161.31362332 251.14441299 166.00858688 C251.1372497 167.73191346 251.13516836 169.45526975 251.13853073 171.17860794 C251.14224446 173.53064019 251.12750249 175.88185693 251.10803223 178.23379517 C251.10430351 179.55007401 251.1005748 180.86635284 251.09673309 182.22251892 C250.68923712 185.85212605 249.91164991 187.75073427 247.71362305 190.63491821 C245.39533868 191.7940604 244.06437564 191.76416298 241.48344707 191.7719326 C240.5907992 191.77700714 239.69815133 191.78208169 238.77845353 191.78731 C237.29818381 191.78805664 237.29818381 191.78805664 235.78800964 191.78881836 C234.22265401 191.79539174 234.22265401 191.79539174 232.62567502 191.80209792 C229.10575424 191.81552294 225.58585851 191.82167305 222.06591797 191.82778931 C219.55159897 191.83568726 217.03728112 191.84395602 214.52296448 191.85256958 C206.96123847 191.87655537 199.39951367 191.89172154 191.83776161 191.90462965 C189.70271248 191.90834073 187.567664 191.91231402 185.43261552 191.91638231 C172.17963543 191.94161659 158.92665433 191.96367381 145.67365551 191.97611046 C142.60323775 191.97904024 139.53282002 191.9820019 136.46240234 191.98501587 C135.69924752 191.98576192 134.93609269 191.98650797 134.14981196 191.98727663 C121.78278156 191.99993455 109.41589479 192.03316298 97.04893156 192.0748177 C84.35767385 192.11721504 71.66648973 192.14080288 58.97516137 192.14603102 C51.84710922 192.14944753 44.71928159 192.16123062 37.59129906 192.19413376 C30.88785504 192.22502619 24.18487123 192.23056358 17.48134422 192.21875 C15.01782778 192.2185284 12.55429369 192.22690459 10.09083939 192.24440384 C6.73347773 192.2669593 3.37755444 192.25886261 0.02018738 192.24291992 C-0.95996694 192.25680201 -1.94012126 192.2706841 -2.94997722 192.28498685 C-7.36548034 192.23314684 -9.64834057 192.06097565 -13.39085484 189.56186104 C-15.68688829 186.01647448 -15.98786895 183.29214763 -15.92129517 179.1958313 C-15.92909512 178.45596403 -15.93689507 177.71609675 -15.94493139 176.95380926 C-15.96484625 174.4791644 -15.94909021 172.00605834 -15.93334961 169.53140259 C-15.940126 167.75553999 -15.94902926 165.97968442 -15.9598999 164.20384216 C-15.98269729 159.38353312 -15.9738551 154.56375905 -15.95800447 149.74344063 C-15.94534778 144.69956137 -15.95708495 139.65572798 -15.9649353 134.61184692 C-15.97403253 126.14142633 -15.962042 117.67122369 -15.93823242 109.20083618 C-15.91102103 99.40712374 -15.91983514 89.61393174 -15.94736445 79.82023191 C-15.9700524 71.41243392 -15.97325713 63.00479261 -15.9601711 54.5969739 C-15.95237488 49.57496389 -15.95133975 44.55319853 -15.96785355 39.53120422 C-15.98229445 34.80977193 -15.9722836 30.08901076 -15.94338226 25.36765099 C-15.93676941 23.63464663 -15.93867257 21.90158581 -15.94969559 20.1686039 C-15.96335571 17.80297463 -15.94623305 15.43949714 -15.92129517 13.07400513 C-15.93244877 12.38771829 -15.94360238 11.70143146 -15.95509398 10.99434805 C-15.88423239 7.5304547 -15.28275975 5.62933969 -13.38959312 2.70965767 C-8.9320504 -0.27055359 -5.25559945 -0.05993091 0 0 Z M1.71362305 17.63491821 C1.71362305 69.44491821 1.71362305 121.25491821 1.71362305 174.63491821 C78.27362305 174.63491821 154.83362305 174.63491821 233.71362305 174.63491821 C233.71362305 122.82491821 233.71362305 71.01491821 233.71362305 17.63491821 C157.15362305 17.63491821 80.59362305 17.63491821 1.71362305 17.63491821 Z " fill="white" transform="translate(138.286376953125,241.36508178710938)"/>
<path d="M0 0 C1.05415195 -0.00779995 2.10830389 -0.01559991 3.19439983 -0.02363622 C6.73843173 -0.04363272 10.28139896 -0.02776077 13.82543945 -0.01205444 C16.36138539 -0.01882711 18.8973264 -0.02772825 21.43325806 -0.03860474 C27.61314623 -0.05907214 33.79263798 -0.05602849 39.97253156 -0.04154153 C44.99435751 -0.03025603 50.01609836 -0.02871537 55.03793335 -0.03416061 C55.7522797 -0.03492678 56.46662605 -0.03569294 57.20261925 -0.03648233 C58.65373622 -0.03808093 60.10485316 -0.039702 61.55597007 -0.04134528 C75.16765436 -0.05560787 88.77917037 -0.03920216 102.39082706 -0.01234345 C114.07386808 0.00999586 125.75666072 0.00611587 137.43969727 -0.01693726 C151.00218834 -0.04368636 164.56453187 -0.05423452 178.12704563 -0.03887594 C179.57286642 -0.03728317 181.01868723 -0.03571131 182.46450806 -0.03416061 C183.53160453 -0.03300355 183.53160453 -0.03300355 184.62025851 -0.03182311 C189.63687947 -0.02750341 194.65340695 -0.03479841 199.67001343 -0.04655838 C206.42032738 -0.06203446 213.1700989 -0.05103877 219.92039108 -0.0220871 C222.4020446 -0.01545943 224.88373752 -0.0174024 227.36537552 -0.02840042 C230.74493713 -0.04200019 234.12297757 -0.02500556 237.50244141 0 C238.98666863 -0.01673041 238.98666863 -0.01673041 240.50088024 -0.03379881 C247.12215025 0.06167974 247.12215025 0.06167974 250.36086464 3.01294804 C251.91387148 5.94164934 252.24729913 7.70510794 252.23706055 11.00430298 C252.24321381 12.05211441 252.24936707 13.09992584 252.25570679 14.17948914 C252.23415024 15.86092262 252.23415024 15.86092262 252.2121582 17.57632446 C252.21124176 18.73615341 252.21032532 19.89598236 252.2093811 21.09095764 C252.2033463 23.53949076 252.18760412 25.98801654 252.1628418 28.43643188 C252.12632103 32.18711498 252.12182264 35.9368102 252.12231445 39.68765259 C252.11248365 42.06721843 252.10082681 44.44677757 252.0871582 46.82632446 C252.08493256 47.94930435 252.08270691 49.07228424 252.08041382 50.22929382 C252.06765411 51.27395309 252.05489441 52.31861237 252.04174805 53.39492798 C252.03412445 54.31250381 252.02650085 55.23007965 252.01864624 56.17546082 C251.72767793 58.8514362 251.27168248 60.41626446 249.7512207 62.63491821 C246.84937941 64.40378839 244.67870504 64.88517326 241.3033905 64.88660049 C240.41311063 64.89181599 239.52283075 64.89703148 238.6055727 64.90240502 C237.63165168 64.89794358 236.65773066 64.89348214 235.65429688 64.8888855 C234.09757027 64.89356547 234.09757027 64.89356547 232.50939465 64.89833999 C229.02093568 64.90633725 225.53264982 64.89998953 222.04418945 64.89370728 C219.54765724 64.89641637 217.05112584 64.89997683 214.55459595 64.90432739 C208.47106834 64.91251392 202.38760903 64.91129694 196.30408406 64.90550211 C191.36046395 64.90098779 186.41685767 64.90037172 181.47323608 64.90254974 C180.76999118 64.90285621 180.06674628 64.90316268 179.34219092 64.90347843 C177.91362198 64.90411787 176.48505304 64.9047663 175.0564841 64.90542361 C161.65659499 64.91112852 148.25673323 64.9045665 134.8568486 64.89382288 C123.35580529 64.88488722 111.85480235 64.88643922 100.35375977 64.8956604 C87.0022544 64.9063602 73.65077301 64.91057918 60.29926395 64.90443587 C58.87591108 64.90379877 57.4525582 64.90317002 56.02920532 64.90254974 C55.32886411 64.90224119 54.62852291 64.90193264 53.90695924 64.90161474 C48.96851507 64.89988693 44.0300861 64.90280476 39.09164429 64.90750885 C32.44655508 64.91369938 25.80153045 64.90930034 19.15644455 64.89772034 C16.71348574 64.89506938 14.27052053 64.89584622 11.82756424 64.90024567 C8.50100329 64.90568531 5.17468959 64.89888606 1.84814453 64.8888855 C0.387263 64.89557766 0.387263 64.89557766 -1.10313129 64.90240502 C-1.99341117 64.89718953 -2.88369104 64.89197403 -3.8009491 64.88660049 C-4.56885364 64.88627579 -5.33675817 64.88595109 -6.12793255 64.88561654 C-8.56443757 64.59760529 -10.16078142 63.90769532 -12.2487793 62.63491821 C-14.32911585 59.59929669 -14.50918655 57.02018111 -14.53930664 53.39492798 C-14.55206635 52.35026871 -14.56482605 51.30560944 -14.57797241 50.22929382 C-14.58019806 49.10631393 -14.58242371 47.98333405 -14.5847168 46.82632446 C-14.5913736 45.66745224 -14.5980304 44.50858002 -14.60488892 43.31459045 C-14.61501177 40.86433499 -14.61970605 38.41405198 -14.61938477 35.96377563 C-14.62375876 32.21502307 -14.66008672 28.46744692 -14.69799805 24.71890259 C-14.70386605 22.33804724 -14.70783555 19.9571863 -14.7097168 17.57632446 C-14.72408783 16.4553688 -14.73845886 15.33441315 -14.75326538 14.17948914 C-14.74711212 13.1316777 -14.74095886 12.08386627 -14.73461914 11.00430298 C-14.7388942 9.62674583 -14.7388942 9.62674583 -14.74325562 8.22135925 C-13.11066955 -0.31815506 -7.28155798 -0.08207872 0 0 Z M2.7512207 16.63491821 C2.7512207 26.86491821 2.7512207 37.09491821 2.7512207 47.63491821 C79.3112207 47.63491821 155.8712207 47.63491821 234.7512207 47.63491821 C234.7512207 37.40491821 234.7512207 27.17491821 234.7512207 16.63491821 C158.1912207 16.63491821 81.6312207 16.63491821 2.7512207 16.63491821 Z " fill="white" transform="translate(137.248779296875,159.36508178710938)"/>
<path d="M0 0 C0.93224396 -0.00852997 1.86448792 -0.01705994 2.82498169 -0.02584839 C3.84067734 -0.02494202 4.85637299 -0.02403564 5.90284729 -0.02310181 C6.97804626 -0.02981903 8.05324524 -0.03653625 9.161026 -0.04345703 C12.71897488 -0.06247138 16.27673551 -0.06636283 19.83473206 -0.06851196 C22.3056852 -0.07493689 24.77663758 -0.08166502 27.24758911 -0.08868408 C32.4284288 -0.10066503 37.60920176 -0.104364 42.79005432 -0.10317993 C49.43268614 -0.10297656 56.07489098 -0.13029417 62.71742153 -0.16472435 C67.82090221 -0.18694619 72.92427931 -0.19101893 78.02780342 -0.18996048 C80.47705115 -0.19232295 82.92630145 -0.20118262 85.37550163 -0.21662521 C88.79898502 -0.23619145 92.22153683 -0.23048353 95.64503479 -0.21841431 C96.65870621 -0.22965332 97.67237762 -0.24089233 98.71676636 -0.25247192 C103.10011379 -0.21314648 105.63408836 -0.15806108 109.44839478 2.14544678 C111.67356944 4.6434177 112.25725532 5.9307232 112.33863831 9.26742554 C111.28145731 13.30393478 109.84965847 15.08444793 106.33863831 17.26742554 C104.10847473 17.64494896 104.10847473 17.64494896 101.63258362 17.64837646 C100.69048035 17.65683594 99.74837708 17.66529541 98.77772522 17.67401123 C97.75110779 17.66793854 96.72449036 17.66186584 95.66676331 17.65560913 C94.58020447 17.66086609 93.49364563 17.66612305 92.37416077 17.67153931 C88.77884083 17.68475413 85.18396283 17.67599564 81.58863831 17.66586304 C79.09286921 17.66788334 76.59710069 17.67079441 74.10133362 17.67456055 C68.8691913 17.67898591 63.63716415 17.67283158 58.40504456 17.65853882 C52.35874877 17.64221252 46.31275648 17.64750117 40.26646805 17.66401803 C34.44653608 17.67927931 28.62671934 17.67765519 22.80677795 17.66887283 C20.33159849 17.6668692 17.85641129 17.66933579 15.38124084 17.67631149 C11.92412186 17.68391599 8.46758858 17.67233505 5.01051331 17.65560913 C3.47058716 17.66471817 3.47058716 17.66471817 1.89955139 17.67401123 C0.48639648 17.66132202 0.48639648 17.66132202 -0.95530701 17.64837646 C-2.18087311 17.64667985 -2.18087311 17.64667985 -3.43119812 17.64494896 C-6.20920553 17.1746862 -7.59660455 16.1511808 -9.66136169 14.26742554 C-10.89010832 10.82834733 -10.98503039 7.38555375 -9.97386169 3.89242554 C-7.28383644 0.56191808 -4.11896011 0.01707814 0 0 Z " fill="white" transform="translate(133.66136169433594,70.73257446289063)"/>
<path d="M0 0 C1.10606598 -0.0071553 2.21213196 -0.01431061 3.35171509 -0.02168274 C7.01223907 -0.03860804 10.67154503 -0.01914309 14.33203125 0.00219727 C16.87264101 0.00136893 19.41325071 -0.00108911 21.95385742 -0.00511169 C27.28028901 -0.00797235 32.60628841 0.00622978 37.93261719 0.03417969 C44.08806869 0.06623164 50.24288665 0.06621585 56.39838314 0.04896492 C62.32299453 0.03309356 68.2474117 0.03993449 74.17202759 0.05690193 C76.69185872 0.0620916 79.2117081 0.06159248 81.73153687 0.05535698 C85.2511136 0.04991732 88.76960891 0.07024188 92.2890625 0.09765625 C93.33438141 0.09113037 94.37970032 0.08460449 95.45669556 0.07788086 C102.50559978 0.17141566 102.50559978 0.17141566 105.7644043 2.51600647 C107.43027964 5.0690238 108.07156921 6.56669779 108.14453125 9.63110352 C106.99282901 12.89425986 106.21172752 15.00380131 103.17175293 16.79071045 C98.7228264 18.02578584 94.43061206 17.90898494 89.83398438 17.88989258 C88.2794883 17.89514954 88.2794883 17.89514954 86.69358826 17.9005127 C83.27091761 17.90930893 79.84845397 17.90348818 76.42578125 17.89672852 C74.04593872 17.89807577 71.66609647 17.9000168 69.28625488 17.90252686 C64.29969664 17.90547527 59.31321007 17.90118949 54.32666016 17.8918457 C47.93415878 17.88045141 41.54182535 17.88701238 35.14933014 17.89899063 C30.23544041 17.90621681 25.32159051 17.90391779 20.40769958 17.89873505 C18.05057251 17.89740065 15.69344182 17.89903891 13.33631897 17.90369415 C10.04247453 17.90877172 6.74890229 17.90103155 3.45507812 17.88989258 C2.48038071 17.89394104 1.50568329 17.8979895 0.50144958 17.90216064 C-9.56866094 17.83905589 -9.56866094 17.83905589 -13.66796875 13.88110352 C-15.26658087 10.85215423 -15.33918011 9.017083 -14.85546875 5.63110352 C-11.52658892 -0.91364744 -6.54079638 -0.07316073 0 0 Z " fill="white" transform="translate(137.85546875,105.368896484375)"/>
</svg>
