<?xml version="1.0" encoding="UTF-8" standalone="no" ?>
<!DOCTYPE svg PUBLIC "-//W3C//DTD SVG 1.1//EN" "http://www.w3.org/Graphics/SVG/1.1/DTD/svg11.dtd">
<svg xmlns="http://www.w3.org/2000/svg" xmlns:xlink="http://www.w3.org/1999/xlink" version="1.1" width="1080" height="1080" viewBox="0 0 1080 1080" xml:space="preserve">
<desc>Created with Fabric.js 5.2.4</desc>
<defs>
</defs>
<g transform="matrix(1 0 0 1 540 540)" id="c12cfb42-8b0a-4985-9eac-9de441894510"  >
<rect style="stroke: none; stroke-width: 1; stroke-dasharray: none; stroke-linecap: butt; stroke-dashoffset: 0; stroke-linejoin: miter; stroke-miterlimit: 4; fill: rgb(255,255,255); fill-rule: nonzero; opacity: 1; visibility: hidden;" vector-effect="non-scaling-stroke"  x="-540" y="-540" rx="0" ry="0" width="1080" height="1080" />
</g>
<g transform="matrix(1 0 0 1 540 540)" id="1c6e78b0-3367-4e02-b6db-682cc83dce2a"  >
</g>
<g transform="matrix(1 0 0 1 540 540)"  >
<g style="" vector-effect="non-scaling-stroke"   >
		<g transform="matrix(1 0 0 1 -490 -490)"  >
<rect style="stroke: none; stroke-width: 1; stroke-dasharray: none; stroke-linecap: butt; stroke-dashoffset: 0; stroke-linejoin: miter; stroke-miterlimit: 4; fill: rgb(255,255,255); fill-opacity: 0; fill-rule: nonzero; opacity: 1;" vector-effect="non-scaling-stroke"  x="-50" y="-50" rx="0" ry="0" width="100" height="100" />
</g>
		<g transform="matrix(1 0 0 1 0 0)"  >
<rect style="stroke: none; stroke-width: 1; stroke-dasharray: none; stroke-linecap: butt; stroke-dashoffset: 0; stroke-linejoin: miter; stroke-miterlimit: 4; fill: rgb(255,255,255); fill-rule: nonzero; opacity: 1; visibility: hidden;" vector-effect="non-scaling-stroke"  x="-540" y="-540" rx="0" ry="0" width="1080" height="1080" />
</g>
		<g transform="matrix(-1.82 0 0 -1.82 -30.25 -11.45)"  >
<path style="stroke: none; stroke-width: 1; stroke-dasharray: none; stroke-linecap: butt; stroke-dashoffset: 0; stroke-linejoin: miter; stroke-miterlimit: 4; fill: rgb(0,0,0); fill-rule: nonzero; opacity: 1;" vector-effect="non-scaling-stroke"  transform=" translate(-15.45, -31.9)" d="M 30.2 31.9 C 30.2 23.7 23.6 17.099999999999998 15.399999999999999 17.099999999999998 C 7.199999999999996 17.099999999999998 0.7 23.8 0.7 31.9 C 0.7 40 7.3 46.7 15.5 46.7 C 23.7 46.7 30.2 40.1 30.2 31.9 z M 24.7 31.9 C 24.7 32.9 23.9 33.699999999999996 22.9 33.699999999999996 C 21.9 33.699999999999996 21.099999999999998 32.9 21.099999999999998 31.899999999999995 C 21.099999999999998 30.899999999999995 21.9 30.099999999999994 22.9 30.099999999999994 C 23.9 30.1 24.7 30.9 24.7 31.9 z M 19 31.9 C 19 33.1 18 34.199999999999996 16.7 34.199999999999996 C 15.399999999999999 34.199999999999996 14.399999999999999 33.199999999999996 14.399999999999999 31.899999999999995 C 14.399999999999999 30.699999999999996 15.399999999999999 29.599999999999994 16.7 29.599999999999994 C 17.9 29.7 19 30.7 19 31.9 z M 12.6 38.5 L 6.3 32.2 C 6.2 32.1 6.2 32 6.2 32 C 6.2 32 6.2 31.8 6.3 31.8 L 12.6 25.5 C 12.7 25.4 12.9 25.4 13 25.4 C 13.1 25.5 13.2 25.599999999999998 13.2 25.799999999999997 L 12.1 31.9 L 13.2 38.3 C 13.2 38.4 13.2 38.599999999999994 13 38.699999999999996 C 12.9 38.6 12.7 38.6 12.6 38.5 z" stroke-linecap="round" />
</g>
		<g transform="matrix(1.82 0 0 1.95 13.04 -10.67)"  >
<path style="stroke: none; stroke-width: 1; stroke-dasharray: none; stroke-linecap: butt; stroke-dashoffset: 0; stroke-linejoin: miter; stroke-miterlimit: 4; fill: rgb(0,0,0); fill-rule: nonzero; opacity: 1;" vector-effect="non-scaling-stroke"  transform=" translate(-38.35, -32.05)" d="M 61.6 16.6 L 47.4 2.7 C 46.6 1.9000000000000001 45.5 1.4000000000000001 44.199999999999996 1.4000000000000001 L 25.199999999999996 1.4000000000000001 C 18.699999999999996 1.4000000000000001 13.399999999999995 6.7 13.399999999999995 13.200000000000001 L 13.399999999999995 15.3 C 14.099999999999994 15.200000000000001 14.699999999999996 15.200000000000001 15.399999999999995 15.200000000000001 C 16.099999999999994 15.200000000000001 16.799999999999994 15.200000000000001 17.399999999999995 15.3 L 17.399999999999995 13.200000000000001 C 17.399999999999995 8.900000000000002 20.899999999999995 5.400000000000001 25.199999999999996 5.400000000000001 L 44.199999999999996 5.400000000000001 C 44.3 5.400000000000001 44.49999999999999 5.400000000000001 44.49999999999999 5.500000000000001 L 44.699999999999996 5.700000000000001 L 44.699999999999996 12 C 44.8 12.8 44.99999999999999 13.7 45.4 14.4 C 46.699999999999996 17.3 49.5 19.4 52.6 19.8 C 53 19.8 53.300000000000004 19.900000000000002 53.7 19.900000000000002 L 59.1 20.1 C 59.2 20.3 59.2 20.5 59.2 20.6 L 59.2 50.900000000000006 C 59.2 55.2 55.7 58.7 51.400000000000006 58.7 L 25.3 58.7 C 21 58.7 17.5 55.2 17.5 50.900000000000006 L 17.5 48.60000000000001 C 16.8 48.70000000000001 16.2 48.70000000000001 15.5 48.70000000000001 C 14.8 48.70000000000001 14.1 48.70000000000001 13.5 48.60000000000001 L 13.5 50.900000000000006 C 13.5 57.400000000000006 18.8 62.7 25.3 62.7 L 51.5 62.7 C 58 62.7 63.3 57.400000000000006 63.3 50.900000000000006 L 63.3 20.5 C 63.3 19.1 62.7 17.7 61.6 16.6 z" stroke-linecap="round" />
</g>
		<g transform="matrix(-1.55 0 0 -1.82 30.82 29.28)"  >
<path style="stroke: none; stroke-width: 1; stroke-dasharray: none; stroke-linecap: butt; stroke-dashoffset: 0; stroke-linejoin: miter; stroke-miterlimit: 4; fill: rgb(0,0,0); fill-rule: nonzero; opacity: 1;" vector-effect="non-scaling-stroke"  transform=" translate(-8.5, -4)" d="M 1 5 C 1 5.5498 1.45 6 2 6 L 15 6 C 15.55 6 16 5.5498 16 5 L 16 3 C 16 2.4502 15.55 2 15 2 L 2 2 C 1.45 2 1 2.4502 1 3 L 1 5 z" stroke-linecap="round" />
</g>
		<g transform="matrix(-1.55 0 0 -1.82 23.86 14.75)"  >
<path style="stroke: none; stroke-width: 1; stroke-dasharray: none; stroke-linecap: butt; stroke-dashoffset: 0; stroke-linejoin: miter; stroke-miterlimit: 4; fill: rgb(0,0,0); fill-rule: nonzero; opacity: 1;" vector-effect="non-scaling-stroke"  transform=" translate(-13, -10)" d="M 25 9 C 25 8.4502 24.55 8 24 8 L 2 8 C 1.45 8 1 8.4502 1 9 L 1 11 C 1 11.5498 1.45 12 2 12 L 24 12 C 24.55 12 25 11.5498 25 11 L 25 9 z" stroke-linecap="round" />
</g>
		<g transform="matrix(-1.55 0 0 -1.82 23.86 -14.3)"  >
<path style="stroke: none; stroke-width: 1; stroke-dasharray: none; stroke-linecap: butt; stroke-dashoffset: 0; stroke-linejoin: miter; stroke-miterlimit: 4; fill: rgb(0,0,0); fill-rule: nonzero; opacity: 1;" vector-effect="non-scaling-stroke"  transform=" translate(-13, -22)" d="M 25 21 C 25 20.4502 24.55 20 24 20 L 2 20 C 1.45 20 1 20.4502 1 21 L 1 23 C 1 23.5498 1.45 24 2 24 L 24 24 C 24.55 24 25 23.5498 25 23 L 25 21 z" stroke-linecap="round" />
</g>
		<g transform="matrix(-1.55 0 0 -1.82 30.82 0.23)"  >
<path style="stroke: none; stroke-width: 1; stroke-dasharray: none; stroke-linecap: butt; stroke-dashoffset: 0; stroke-linejoin: miter; stroke-miterlimit: 4; fill: rgb(0,0,0); fill-rule: nonzero; opacity: 1;" vector-effect="non-scaling-stroke"  transform=" translate(-8.5, -16)" d="M 2 18 L 15 18 C 15.55 18 16 17.5498 16 17 L 16 15 C 16 14.4502 15.55 14 15 14 L 2 14 C 1.45 14 1 14.4502 1 15 L 1 17 C 1 17.5498 1.45 18 2 18 z" stroke-linecap="round" />
</g>
</g>
</g>
</svg>