<?xml version="1.0" encoding="UTF-8"?>
<svg version="1.1" xmlns="http://www.w3.org/2000/svg" width="369" height="242">
<path d="M0 0 C1.10453522 -0.0066568 2.20907043 -0.0133136 3.34707642 -0.02017212 C5.67863302 -0.03027631 8.0102184 -0.03498983 10.34179688 -0.03466797 C13.89501938 -0.03903907 17.44699717 -0.07537862 21 -0.11328125 C23.27082911 -0.11915037 25.54166409 -0.12311913 27.8125 -0.125 C29.3956752 -0.14655655 29.3956752 -0.14655655 31.01083374 -0.16854858 C39.05904885 -0.11907965 44.48166057 1.4144201 50.3515625 7.0234375 C51.434375 8.168125 51.434375 8.168125 52.5390625 9.3359375 C55.37110283 10.27995094 57.05185132 10.45300807 59.97973633 10.43359375 C60.88827362 10.43034592 61.79681091 10.42709808 62.73287964 10.42375183 C63.7272403 10.4153981 64.72160095 10.40704437 65.74609375 10.3984375 C67.91983979 10.38955633 70.09358659 10.3808572 72.26733398 10.37231445 C73.99848953 10.36296371 73.99848953 10.36296371 75.76461792 10.35342407 C95.81544867 10.25567506 115.86686998 10.30180543 135.91586304 10.59838867 C138.28072433 10.63162892 140.64566478 10.65966363 143.01065063 10.68237305 C146.32128516 10.71542928 149.63110776 10.76726363 152.94140625 10.82421875 C154.40200974 10.83380363 154.40200974 10.83380363 155.89212036 10.84358215 C162.43517302 10.98618519 167.54521136 11.77834882 172.68359375 16.16796875 C173.23402344 16.82152344 173.78445313 17.47507812 174.3515625 18.1484375 C175.19654297 19.11716797 175.19654297 19.11716797 176.05859375 20.10546875 C179.38500656 25.11703 179.80507607 30.13315866 179.7421875 36 C179.7527269 37.46615479 179.76448168 38.93230125 179.77734375 40.3984375 C179.78768628 42.68758305 179.78893548 44.97555405 179.76904297 47.26464844 C179.75428392 49.48993282 179.77669958 51.71239772 179.8046875 53.9375 C179.78163544 54.96105087 179.78163544 54.96105087 179.75811768 56.00527954 C179.74047131 58.20935238 179.74047131 58.20935238 180.5390625 61.3359375 C183.37810013 63.73350463 183.37810013 63.73350463 186.5390625 65.3359375 C190.5041445 69.84792736 190.36373064 75.5781895 190.5390625 81.3359375 C190.28538553 84.88976699 189.69604712 88.33632562 189.0390625 91.8359375 C188.86181641 92.83641113 188.68457031 93.83688477 188.50195312 94.86767578 C185.99229294 108.77294416 183.18175812 122.62652138 180.33349609 136.46582031 C179.65905467 139.75139052 178.99751843 143.03917522 178.33984375 146.328125 C178.01180793 147.91435085 177.68254512 149.50032391 177.3515625 151.0859375 C177.08988281 152.35953125 176.82820312 153.633125 176.55859375 154.9453125 C174.95088454 160.29202359 172.52760952 165.01214832 168.1640625 168.6484375 C167.62007812 169.11894531 167.07609375 169.58945313 166.515625 170.07421875 C161.42344607 173.32475984 156.22851492 173.61974569 150.34619141 173.55761719 C149.12261744 173.55653332 149.12261744 173.55653332 147.8743248 173.55542755 C145.12961689 173.54986574 142.38525289 173.52912227 139.640625 173.5078125 C137.65516383 173.49919074 135.66970016 173.49113028 133.68423462 173.48358154 C126.9690039 173.45260443 120.25409199 173.39545099 113.5390625 173.3359375 C112.3312059 173.3257962 111.1233493 173.31565491 109.87889099 173.3052063 C94.02053533 173.17126781 78.16326899 172.99205784 62.30607224 172.76084137 C54.64824926 172.64945885 46.9904934 172.55121557 39.33229291 172.46965146 C33.170874 172.40281397 27.00990897 172.31493632 20.84886551 172.21981049 C18.26791424 172.18302465 15.68686173 172.15269995 13.10575485 172.12924957 C9.52489786 172.09538421 5.94517957 172.03734813 2.36474609 171.97363281 C1.32485031 171.96931244 0.28495453 171.96499207 -0.78645325 171.96054077 C-9.10965925 171.77188467 -17.75247477 170.2984702 -24.0234375 164.3984375 C-30.40159572 156.3848541 -29.61670685 146.420829 -29.69799805 136.6184082 C-29.71111023 135.46769333 -29.72422241 134.31697845 -29.73773193 133.13139343 C-29.77937994 129.34153499 -29.81399134 125.55165599 -29.84765625 121.76171875 C-29.86683961 119.7838083 -29.88602447 117.80589786 -29.90539962 115.82798928 C-29.9660385 109.61102975 -30.02122246 103.39403699 -30.07348633 97.17700195 C-30.12727149 90.79564749 -30.19240548 84.41447699 -30.26282471 78.03328639 C-30.32304319 72.5281438 -30.37499301 67.0229615 -30.42075187 61.51767987 C-30.44812966 58.24151103 -30.47972496 54.96548182 -30.51776695 51.68941689 C-30.5592762 48.02643244 -30.58724356 44.36357011 -30.61206055 40.70043945 C-30.62703079 39.63765778 -30.64200104 38.5748761 -30.65742493 37.47988892 C-30.70417978 26.22229182 -30.54063705 15.79656581 -22.4609375 7.3359375 C-21.6359375 6.3871875 -20.8109375 5.4384375 -19.9609375 4.4609375 C-14.10990204 -0.51244264 -7.29273307 0.01531956 0 0 Z " fill="#A8A89D" transform="translate(131.4609375,52.6640625)"/>
<path d="M0 0 C0.9553212 -0.00428513 1.9106424 -0.00857025 2.89491272 -0.01298523 C4.9112977 -0.01871713 6.92770335 -0.0192372 8.9440918 -0.01489258 C12.02103101 -0.01173325 15.09700771 -0.03520401 18.17382812 -0.06054688 C20.13671754 -0.06282012 22.09960953 -0.06352325 24.0625 -0.0625 C24.9782933 -0.07170975 25.89408661 -0.08091949 26.83763123 -0.09040833 C32.98682574 -0.04609374 37.22775679 0.70154784 41.9622612 4.98953152 C47.97854701 10.31015919 52.31390536 11.30245141 60.21362305 11.13964844 C61.28794586 11.14560532 62.36226868 11.15156219 63.46914673 11.15769958 C66.9958554 11.16974387 70.52035621 11.13340076 74.046875 11.09765625 C76.50829044 11.09942484 78.96970564 11.10470724 81.43110657 11.11334229 C87.89479403 11.12857181 94.35769805 11.10478645 100.82128906 11.07012939 C111.17638783 11.01958483 121.53145472 11.02129055 131.88663673 11.03653717 C135.49965349 11.03517407 139.11209932 11.01283021 142.72502136 10.98797607 C144.93997105 10.98453207 147.15492175 10.98167261 149.36987305 10.97949219 C150.37209396 10.96705978 151.37431488 10.95462738 152.40690613 10.94181824 C157.66159003 10.95551477 161.72770986 11.05248658 166.09765625 14.30078125 C171.68711863 20.75087277 170.54712636 28.67573715 170.34765625 36.73828125 C170.32756455 38.15166746 170.30931848 39.56508118 170.29296875 40.97851562 C170.24917442 44.41984808 170.18029528 47.860137 170.09765625 51.30078125 C169.30012656 51.3031696 168.50259687 51.30555796 167.68089962 51.30801868 C148.26741847 51.36717716 128.85406436 51.44273271 109.44071865 51.53649616 C100.05253154 51.58144501 90.66438229 51.6208618 81.27612305 51.6472168 C73.09248261 51.67020423 64.90896206 51.70361062 56.72541672 51.74948281 C52.39303664 51.77340497 48.06077522 51.79214035 43.72833061 51.79839516 C39.64809346 51.80445057 35.56815989 51.82446683 31.4880352 51.85505676 C29.99293121 51.86382968 28.49778753 51.86756111 27.00265884 51.86578941 C18.24028933 51.85868637 11.95478254 52.25095777 4.41015625 56.98828125 C-1.45147563 62.84991313 -3.05928274 70.85238364 -4.83984375 78.67578125 C-5.09435303 79.76503906 -5.3488623 80.85429687 -5.61108398 81.9765625 C-8.12640524 92.92514688 -10.21732022 103.94808331 -12.27587891 114.98974609 C-13.35748463 120.70632321 -14.50518218 126.40955893 -15.65234375 132.11328125 C-15.86318604 133.16322266 -16.07402832 134.21316406 -16.29125977 135.29492188 C-16.66347164 137.14697736 -17.03605062 138.99895916 -17.40917969 140.85083008 C-17.90897713 143.33373469 -18.40611913 145.81716036 -18.90234375 148.30078125 C-19.56234375 147.97078125 -20.22234375 147.64078125 -20.90234375 147.30078125 C-21.04259747 129.4288068 -21.14835546 111.55697547 -21.21321678 93.68456936 C-21.24413557 85.38579838 -21.28627774 77.08736965 -21.35498047 68.78881836 C-21.4148437 61.55452606 -21.45350729 54.32048164 -21.46687472 47.08594853 C-21.474687 43.25629646 -21.49300461 39.42735346 -21.53672409 35.597929 C-21.57757571 31.99033443 -21.58998824 28.38373813 -21.58098984 24.77593422 C-21.58341698 22.82695377 -21.61564036 20.87808107 -21.64886475 18.92938232 C-21.58132303 9.3420457 -21.58132303 9.3420457 -18.0007782 5.04803467 C-12.61272675 -0.20848451 -7.17474921 -0.00712464 0 0 Z " fill="#C1C1B7" transform="translate(132.90234375,60.69921875)"/>
<path d="M0 0 C1.10453522 -0.0066568 2.20907043 -0.0133136 3.34707642 -0.02017212 C5.67863302 -0.03027631 8.0102184 -0.03498983 10.34179688 -0.03466797 C13.89501938 -0.03903907 17.44699717 -0.07537862 21 -0.11328125 C23.27082911 -0.11915037 25.54166409 -0.12311913 27.8125 -0.125 C29.3956752 -0.14655655 29.3956752 -0.14655655 31.01083374 -0.16854858 C39.05904885 -0.11907965 44.48166057 1.4144201 50.3515625 7.0234375 C51.434375 8.168125 51.434375 8.168125 52.5390625 9.3359375 C55.37110283 10.27995094 57.05185132 10.45300807 59.97973633 10.43359375 C60.88827362 10.43034592 61.79681091 10.42709808 62.73287964 10.42375183 C63.7272403 10.4153981 64.72160095 10.40704437 65.74609375 10.3984375 C67.91983979 10.38955633 70.09358659 10.3808572 72.26733398 10.37231445 C73.99848953 10.36296371 73.99848953 10.36296371 75.76461792 10.35342407 C95.81544867 10.25567506 115.86686998 10.30180543 135.91586304 10.59838867 C138.28072433 10.63162892 140.64566478 10.65966363 143.01065063 10.68237305 C146.32128516 10.71542928 149.63110776 10.76726363 152.94140625 10.82421875 C154.40200974 10.83380363 154.40200974 10.83380363 155.89212036 10.84358215 C162.43517302 10.98618519 167.54521136 11.77834882 172.68359375 16.16796875 C173.23402344 16.82152344 173.78445313 17.47507812 174.3515625 18.1484375 C175.19654297 19.11716797 175.19654297 19.11716797 176.05859375 20.10546875 C179.38500656 25.11703 179.80507607 30.13315866 179.7421875 36 C179.7527269 37.46615479 179.76448168 38.93230125 179.77734375 40.3984375 C179.78768628 42.68758305 179.78893548 44.97555405 179.76904297 47.26464844 C179.75428392 49.48993282 179.77669958 51.71239772 179.8046875 53.9375 C179.78163544 54.96105087 179.78163544 54.96105087 179.75811768 56.00527954 C179.74047131 58.20935238 179.74047131 58.20935238 180.5390625 61.3359375 C183.37810013 63.73350463 183.37810013 63.73350463 186.5390625 65.3359375 C190.5041445 69.84792736 190.36373064 75.5781895 190.5390625 81.3359375 C190.28538553 84.88976699 189.69604712 88.33632562 189.0390625 91.8359375 C188.86181641 92.83641113 188.68457031 93.83688477 188.50195312 94.86767578 C185.99229294 108.77294416 183.18175812 122.62652138 180.33349609 136.46582031 C179.65905467 139.75139052 178.99751843 143.03917522 178.33984375 146.328125 C178.01180793 147.91435085 177.68254512 149.50032391 177.3515625 151.0859375 C177.08988281 152.35953125 176.82820312 153.633125 176.55859375 154.9453125 C174.95088454 160.29202359 172.52760952 165.01214832 168.1640625 168.6484375 C167.62007812 169.11894531 167.07609375 169.58945313 166.515625 170.07421875 C161.42344607 173.32475984 156.22851492 173.61974569 150.34619141 173.55761719 C149.12261744 173.55653332 149.12261744 173.55653332 147.8743248 173.55542755 C145.12961689 173.54986574 142.38525289 173.52912227 139.640625 173.5078125 C137.65516383 173.49919074 135.66970016 173.49113028 133.68423462 173.48358154 C126.9690039 173.45260443 120.25409199 173.39545099 113.5390625 173.3359375 C112.3312059 173.3257962 111.1233493 173.31565491 109.87889099 173.3052063 C94.02053533 173.17126781 78.16326899 172.99205784 62.30607224 172.76084137 C54.64824926 172.64945885 46.9904934 172.55121557 39.33229291 172.46965146 C33.170874 172.40281397 27.00990897 172.31493632 20.84886551 172.21981049 C18.26791424 172.18302465 15.68686173 172.15269995 13.10575485 172.12924957 C9.52489786 172.09538421 5.94517957 172.03734813 2.36474609 171.97363281 C1.32485031 171.96931244 0.28495453 171.96499207 -0.78645325 171.96054077 C-9.10965925 171.77188467 -17.75247477 170.2984702 -24.0234375 164.3984375 C-30.40159572 156.3848541 -29.61670685 146.420829 -29.69799805 136.6184082 C-29.71111023 135.46769333 -29.72422241 134.31697845 -29.73773193 133.13139343 C-29.77937994 129.34153499 -29.81399134 125.55165599 -29.84765625 121.76171875 C-29.86683961 119.7838083 -29.88602447 117.80589786 -29.90539962 115.82798928 C-29.9660385 109.61102975 -30.02122246 103.39403699 -30.07348633 97.17700195 C-30.12727149 90.79564749 -30.19240548 84.41447699 -30.26282471 78.03328639 C-30.32304319 72.5281438 -30.37499301 67.0229615 -30.42075187 61.51767987 C-30.44812966 58.24151103 -30.47972496 54.96548182 -30.51776695 51.68941689 C-30.5592762 48.02643244 -30.58724356 44.36357011 -30.61206055 40.70043945 C-30.62703079 39.63765778 -30.64200104 38.5748761 -30.65742493 37.47988892 C-30.70417978 26.22229182 -30.54063705 15.79656581 -22.4609375 7.3359375 C-21.6359375 6.3871875 -20.8109375 5.4384375 -19.9609375 4.4609375 C-14.10990204 -0.51244264 -7.29273307 0.01531956 0 0 Z M-18.4040575 15.24671841 C-20.78679239 19.95686074 -20.10154285 25.53401044 -20.02856445 30.68505859 C-20.02715287 32.04553169 -20.02794812 33.4060086 -20.03077698 34.76647949 C-20.03220828 38.44816118 -20.00286615 42.12902406 -19.96790719 45.81051588 C-19.93659533 49.66217843 -19.93370917 53.51386092 -19.92778015 57.3656311 C-19.91225579 64.65421789 -19.87124674 71.94242852 -19.8210327 79.23084986 C-19.76509512 87.53065693 -19.73764169 95.83048221 -19.71255553 104.13043094 C-19.66032935 121.1991505 -19.57241484 138.26750419 -19.4609375 155.3359375 C-18.8009375 155.6659375 -18.1409375 155.9959375 -17.4609375 156.3359375 C-16.85434213 153.50310631 -16.2506663 150.66969772 -15.6484375 147.8359375 C-15.3999707 146.67771484 -15.3999707 146.67771484 -15.14648438 145.49609375 C-13.89365169 139.58650562 -12.75874147 133.6576409 -11.65248108 127.71923828 C-10.30593541 120.49136121 -8.9338361 113.26895399 -7.51855469 106.05419922 C-7.23027365 104.57602679 -6.94543826 103.09717818 -6.6640625 101.61767578 C-0.51443124 69.32499405 -0.51443124 69.32499405 9.1015625 62.5234375 C13.43100276 60.41422302 17.13922021 60.2047469 21.94244385 60.17771912 C23.91960388 60.16303589 23.91960388 60.16303589 25.93670654 60.14805603 C27.39562952 60.14215217 28.85455288 60.1363417 30.31347656 60.13061523 C31.8509955 60.12103421 33.38851182 60.11102399 34.92602539 60.10061646 C39.09919237 60.07358565 43.27237064 60.0525662 47.44557667 60.03261447 C51.80714283 60.01074367 56.16867426 59.98336033 60.5302124 59.95655823 C68.78906376 59.90664614 77.04793442 59.8617018 85.30682349 59.81853586 C94.70942048 59.76915081 104.11198263 59.71423738 113.51454592 59.65885627 C132.85601909 59.54505901 152.19752515 59.43821504 171.5390625 59.3359375 C171.63860041 55.19171489 171.71084151 51.04814175 171.75878906 46.90307617 C171.77879496 45.49572616 171.80600912 44.08845812 171.84082031 42.68139648 C172.37182578 31.72889262 172.37182578 31.72889262 167.5390625 22.3359375 C162.38824401 18.50669216 156.97818854 18.94443775 150.82714844 19.03051758 C149.75968887 19.03317627 148.69222931 19.03583496 147.59242249 19.03857422 C145.27945039 19.04551796 142.96649062 19.0589276 140.65358734 19.0780735 C136.98724273 19.1057419 133.32153195 19.11060665 129.65509033 19.10856628 C119.23256383 19.10503736 108.81046386 19.12801831 98.38818359 19.2019043 C92.00731019 19.24551764 85.62738391 19.25012832 79.24640656 19.23032188 C76.82079773 19.2304192 74.39514157 19.24522416 71.96971893 19.27527809 C50.59763109 19.53303109 50.59763109 19.53303109 44.28613281 14.4050293 C43.64202454 13.69380417 42.99791626 12.98257904 42.33428955 12.24980164 C39.71343487 9.4557485 37.07608989 8.51551716 33.30775452 8.07524109 C32.17907204 8.06833 32.17907204 8.06833 31.02758789 8.0612793 C29.73583397 8.04698128 29.73583397 8.04698128 28.41798401 8.03239441 C27.04125771 8.03376152 27.04125771 8.03376152 25.63671875 8.03515625 C24.20373695 8.02872856 24.20373695 8.02872856 22.74180603 8.02217102 C20.72542105 8.01643912 18.7090154 8.01591905 16.69262695 8.02026367 C13.61568774 8.023423 10.53971104 7.99995224 7.46289062 7.97460938 C5.50000121 7.97233613 3.53710922 7.971633 1.57421875 7.97265625 C0.20052879 7.95884163 0.20052879 7.95884163 -1.20091248 7.94474792 C-8.39729663 7.99660915 -13.66746112 9.35894366 -18.4040575 15.24671841 Z M9.5390625 73.3359375 C3.90632815 82.99416974 2.81217885 96.61471955 0.6875 107.47265625 C-0.68035582 114.46115597 -2.09954873 121.43627253 -3.55859375 128.40625 C-3.92749751 130.17568139 -4.29631227 131.94513133 -4.66503906 133.71459961 C-5.2159506 136.35797498 -5.76866943 139.00089841 -6.32751465 141.64260864 C-6.85263452 144.12653195 -7.37033925 146.61190342 -7.88671875 149.09765625 C-8.04584244 149.8404483 -8.20496613 150.58324036 -8.36891174 151.34854126 C-9.20348418 155.40282823 -9.72241123 159.19560613 -9.4609375 163.3359375 C-7.60826337 165.18861163 -4.55608672 164.47439919 -2.07905579 164.48310852 C-1.40456506 164.48678521 -0.73007434 164.4904619 -0.03514451 164.49425 C2.24179596 164.50532834 4.51869086 164.5091377 6.7956543 164.51293945 C8.42151537 164.5192011 10.04737499 164.52584762 11.67323303 164.53285217 C16.10318247 164.5502926 20.53312109 164.5608227 24.96309638 164.5690577 C27.72957343 164.57420256 30.49604708 164.58027859 33.26252174 164.58656883 C41.91442645 164.60563138 50.56632257 164.61985893 59.21824425 164.6281808 C69.21189382 164.63795113 79.20532177 164.6642608 89.19889325 164.70468169 C96.9178412 164.73483267 104.63672561 164.7496488 112.35573131 164.75296181 C116.96816213 164.75531395 121.58035648 164.76429505 126.19272423 164.78942299 C130.53395493 164.81269025 134.8747933 164.81694245 139.21607018 164.80666161 C140.80838322 164.80616576 142.40071548 164.8125005 143.99296951 164.82621765 C146.16987026 164.84391986 148.34536054 164.83684029 150.52226257 164.82368469 C152.34822983 164.82726722 152.34822983 164.82726722 154.21108532 164.83092213 C159.27995921 164.0770063 162.3431008 161.589539 165.81860352 157.9465332 C167.7034289 155.08653066 168.39757755 152.91434837 169.06640625 149.56640625 C169.29859863 148.44218262 169.53079102 147.31795898 169.77001953 146.15966797 C170.1197583 144.35973389 170.1197583 144.35973389 170.4765625 142.5234375 C170.73034668 141.27965332 170.98413086 140.03586914 171.24560547 138.75439453 C171.76792135 136.19109917 172.28450017 133.62662826 172.79541016 131.06103516 C173.68523955 126.60370856 174.60835492 122.15387754 175.53857422 117.70483398 C175.95339415 115.7193005 176.36521094 113.73313707 176.77392578 111.74633789 C177.70861822 107.21541055 178.67372777 102.69765005 179.73828125 98.1953125 C183.42646976 84.86741479 183.42646976 84.86741479 180.7890625 71.8359375 C177.86376083 68.58560231 176.01596425 67.46964865 171.63570118 67.07308197 C170.50068007 67.06713264 169.36565897 67.06118332 168.19624329 67.05505371 C166.23859291 67.03792328 166.23859291 67.03792328 164.24139404 67.02044678 C162.79675331 67.01795619 161.35211215 67.01570597 159.9074707 67.01367188 C158.38455221 67.00441206 156.86163834 66.99436227 155.33872986 66.98358154 C151.20213246 66.95735896 147.06559995 66.94444821 142.92893243 66.93556023 C140.34248183 66.92969348 137.75604887 66.92148279 135.16960716 66.91255188 C127.07139619 66.88520612 118.97322563 66.86587188 110.87497169 66.8581481 C101.53777313 66.849193 92.20116107 66.81412509 82.86414081 66.75614691 C75.64018797 66.71285284 68.41639976 66.69273629 61.19231862 66.69006586 C56.88096157 66.68797366 52.57015597 66.6762442 48.25893593 66.64042664 C44.19982649 66.60735984 40.14167979 66.603203 36.08248329 66.62070465 C34.59784356 66.62224001 33.11315096 66.6136306 31.62864304 66.59378815 C22.93309753 66.48443548 15.87408688 66.80179278 9.5390625 73.3359375 Z " fill="#1A2026" transform="translate(131.4609375,52.6640625)"/>
<path d="M0 0 C6.97415644 -0.10178049 13.94811989 -0.17162496 20.92285156 -0.21972656 C23.29336709 -0.23978826 25.66383345 -0.26704426 28.03417969 -0.30175781 C31.44999351 -0.35051418 34.86515055 -0.37302399 38.28125 -0.390625 C39.33364868 -0.41127014 40.38604736 -0.43191528 41.47033691 -0.45318604 C49.53680197 -0.45562205 54.9308076 1.06721615 60.8125 6.6875 C61.534375 7.450625 62.25625 8.21375 63 9 C65.83204033 9.94401344 67.51278882 10.11707057 70.44067383 10.09765625 C71.34921112 10.09440842 72.25774841 10.09116058 73.19381714 10.08781433 C74.1881778 10.0794606 75.18253845 10.07110687 76.20703125 10.0625 C78.38077729 10.05361883 80.55452409 10.0449197 82.72827148 10.03637695 C84.45942703 10.02702621 84.45942703 10.02702621 86.22555542 10.01748657 C106.27638617 9.91973756 126.32780748 9.96586793 146.37680054 10.26245117 C148.74166183 10.29569142 151.10660228 10.32372613 153.47158813 10.34643555 C156.78222266 10.37949178 160.09204526 10.43132613 163.40234375 10.48828125 C164.86294724 10.49786613 164.86294724 10.49786613 166.35305786 10.50764465 C172.89611052 10.65024769 178.00614886 11.44241132 183.14453125 15.83203125 C183.69496094 16.48558594 184.24539063 17.13914062 184.8125 17.8125 C185.65748047 18.78123047 185.65748047 18.78123047 186.51953125 19.76953125 C189.84594406 24.7810925 190.26601357 29.79722116 190.203125 35.6640625 C190.2136644 37.13021729 190.22541918 38.59636375 190.23828125 40.0625 C190.24862378 42.35164555 190.24987298 44.63961655 190.22998047 46.92871094 C190.21522142 49.15399532 190.23763708 51.37646022 190.265625 53.6015625 C190.24257294 54.62511337 190.24257294 54.62511337 190.21905518 55.66934204 C190.20140881 57.87341488 190.20140881 57.87341488 191 61 C193.83903763 63.39756713 193.83903763 63.39756713 197 65 C200.965082 69.51198986 200.82466814 75.242252 201 81 C200.74632322 84.55382684 200.15677917 88.00035804 199.5 91.5 C199.3242041 92.49539795 199.1484082 93.4907959 198.96728516 94.51635742 C196.96358363 105.64217382 194.71659896 116.7270968 192.46289062 127.8046875 C192.31669281 128.5237175 192.170495 129.2427475 192.01986694 129.98356628 C191.73377406 131.38770306 191.44654823 132.79160953 191.15811157 134.19526672 C190.16717955 139.05178892 189.31378132 143.91930768 188.57519531 148.8203125 C187.62213149 152.43192278 185.64230306 154.42723123 183 157 C182.01 156.67 181.02 156.34 180 156 C178.17212962 146.70832558 180.26918278 138.80297822 182.37207031 129.76123047 C183.49204373 124.8363085 184.48619397 119.88515625 185.5 114.9375 C186.67697287 109.21856656 187.86331519 103.50662753 189.20703125 97.82421875 C192.72757998 84.8734445 192.72757998 84.8734445 190.75 72 C188.13036541 69.00613189 186.07214793 68.09594299 182.09384537 67.73993778 C180.95752544 67.73528728 179.82120552 67.73063677 178.65045166 67.72584534 C176.69063354 67.71088264 176.69063354 67.71088264 174.69122314 67.69561768 C173.24499524 67.6947219 171.79876717 67.69405832 170.35253906 67.69360352 C168.8279988 67.68598112 167.30346239 67.67755349 165.77893066 67.66838074 C161.63825914 67.64643391 157.49766148 67.63763635 153.35693836 67.63255429 C150.76848539 67.62891028 148.18005174 67.62266991 145.59160614 67.6155529 C136.55683035 67.59105566 127.52211198 67.57800637 118.48730469 67.57446289 C110.07345399 67.57082963 101.65996852 67.54095014 93.24622941 67.49905831 C86.01719614 67.46433052 78.78828373 67.448914 71.55916762 67.44821686 C67.24400679 67.44742474 62.92921782 67.43871706 58.61414337 67.41021919 C54.55265568 67.38399635 50.49184699 67.38185639 46.43031311 67.39787483 C44.943652 67.39968613 43.45695148 67.39302734 41.97037506 67.37705612 C30.50141602 67.22458347 30.50141602 67.22458347 21 73 C20.34 73.99 19.68 74.98 19 76 C18.34 76 17.68 76 17 76 C16.505 75.01 16.505 75.01 16 74 C14.515 74.99 14.515 74.99 13 76 C12.01 76 11.02 76 10 76 C10.28916165 70.0721861 12.86547246 66.94477869 17 63 C22.09660133 59.35957048 26.22332442 58.87477759 32.40338135 58.87974548 C34.38054138 58.87768349 34.38054138 58.87768349 36.39764404 58.87557983 C37.85656761 58.87911879 39.31549095 58.88275359 40.77441406 58.88647461 C42.31193032 58.88675671 43.84944671 58.88659831 45.38696289 58.8860321 C49.56015844 58.88574501 53.73332529 58.89162757 57.90651417 58.89860606 C62.26805794 58.9048542 66.62960235 58.90544456 70.9911499 58.90663147 C79.25002662 58.90974047 87.5088901 58.91794806 95.76776099 58.92798096 C105.17033326 58.93915546 114.57290616 58.94465592 123.97548342 58.94967639 C143.31699645 58.96013102 162.65849716 58.97772214 182 59 C181.95558186 54.85494479 181.88547892 50.71132207 181.79248047 46.56713867 C181.76441256 45.16003296 181.74312797 43.75277373 181.72900391 42.34545898 C181.86246494 31.40611561 181.86246494 31.40611561 177 22 C172.52614392 18.94505213 166.62206777 19.75399974 161.40161133 19.80810547 C160.33429779 19.81091019 159.26698425 19.8137149 158.16732788 19.81660461 C155.85162254 19.82309805 153.53592588 19.83367924 151.2202549 19.84786606 C147.54985436 19.86735838 143.87984306 19.86953034 140.20939636 19.86599731 C129.77410068 19.85631229 119.33918523 19.85586042 108.90405273 19.92089844 C102.51781049 19.95943688 96.13257605 19.95896806 89.74628258 19.93332291 C87.31789953 19.93091364 84.88945615 19.9429341 82.46122169 19.96990585 C61.06005381 20.1978747 61.06005381 20.1978747 54.74487305 15.06689453 C54.101082 14.35598663 53.45729095 13.64507874 52.79399109 12.91262817 C50.69695243 10.67691181 48.84855878 10.03748891 46 9 C45.34 8.34 44.68 7.68 44 7 C43.01 6.34 42.02 5.68 41 5 C41.66 4.01 42.32 3.02 43 2 C28.81 1.67 14.62 1.34 0 1 C0 0.67 0 0.34 0 0 Z " fill="#1C2228" transform="translate(121,53)"/>
<path d="M0 0 C6.97415644 -0.10178049 13.94811989 -0.17162496 20.92285156 -0.21972656 C23.29336709 -0.23978826 25.66383345 -0.26704426 28.03417969 -0.30175781 C31.44999351 -0.35051418 34.86515055 -0.37302399 38.28125 -0.390625 C39.33364868 -0.41127014 40.38604736 -0.43191528 41.47033691 -0.45318604 C49.53680197 -0.45562205 54.9308076 1.06721615 60.8125 6.6875 C61.534375 7.450625 62.25625 8.21375 63 9 C65.83204033 9.94401344 67.51278882 10.11707057 70.44067383 10.09765625 C71.34921112 10.09440842 72.25774841 10.09116058 73.19381714 10.08781433 C74.1881778 10.0794606 75.18253845 10.07110687 76.20703125 10.0625 C78.38077729 10.05361883 80.55452409 10.0449197 82.72827148 10.03637695 C84.45942703 10.02702621 84.45942703 10.02702621 86.22555542 10.01748657 C106.27638617 9.91973756 126.32780748 9.96586793 146.37680054 10.26245117 C148.74166183 10.29569142 151.10660228 10.32372613 153.47158813 10.34643555 C156.78222266 10.37949178 160.09204526 10.43132613 163.40234375 10.48828125 C164.86294724 10.49786613 164.86294724 10.49786613 166.35305786 10.50764465 C172.89611052 10.65024769 178.00614886 11.44241132 183.14453125 15.83203125 C183.69496094 16.48558594 184.24539063 17.13914062 184.8125 17.8125 C185.65748047 18.78123047 185.65748047 18.78123047 186.51953125 19.76953125 C189.88444885 24.83910367 190.31781875 30.08493824 190.4140625 36.0234375 C190.44311172 37.14270126 190.44311172 37.14270126 190.4727478 38.28457642 C190.53212065 40.64793777 190.5787578 43.01134897 190.625 45.375 C190.66321884 46.98569732 190.7022728 48.59637506 190.7421875 50.20703125 C190.83778676 54.13786016 190.921972 58.06878463 191 62 C188.36 61.67 185.72 61.34 183 61 C181.89022284 57.67066851 181.85822818 55.11601648 181.82421875 51.609375 C181.80037109 50.34222656 181.77652344 49.07507813 181.75195312 47.76953125 C181.70547686 45.10510892 181.67785625 42.44230776 181.65820312 39.77734375 C181.54879276 30.13924964 181.54879276 30.13924964 177 22 C172.16824332 19.17592249 166.81733015 19.75197601 161.40161133 19.80810547 C160.33429779 19.81091019 159.26698425 19.8137149 158.16732788 19.81660461 C155.85162254 19.82309805 153.53592588 19.83367924 151.2202549 19.84786606 C147.54985436 19.86735838 143.87984306 19.86953034 140.20939636 19.86599731 C129.77410068 19.85631229 119.33918523 19.85586042 108.90405273 19.92089844 C102.51781049 19.95943688 96.13257605 19.95896806 89.74628258 19.93332291 C87.31789953 19.93091364 84.88945615 19.9429341 82.46122169 19.96990585 C61.06005381 20.1978747 61.06005381 20.1978747 54.74487305 15.06689453 C54.101082 14.35598663 53.45729095 13.64507874 52.79399109 12.91262817 C50.69695243 10.67691181 48.84855878 10.03748891 46 9 C45.34 8.34 44.68 7.68 44 7 C43.01 6.34 42.02 5.68 41 5 C41.66 4.01 42.32 3.02 43 2 C28.81 1.67 14.62 1.34 0 1 C0 0.67 0 0.34 0 0 Z " fill="#22292F" transform="translate(121,53)"/>
<path d="M0 0 C1.11198257 0.00067978 1.11198257 0.00067978 2.24642944 0.00137329 C3.41225807 -0.00366463 3.41225807 -0.00366463 4.60163879 -0.00880432 C7.18385392 -0.01834265 9.76600441 -0.02025887 12.34823608 -0.02133179 C14.13563565 -0.02454236 15.92303496 -0.02790628 17.71043396 -0.03141785 C21.46234751 -0.03741633 25.214238 -0.03925701 28.96615601 -0.03866577 C33.78294056 -0.03856411 38.59957785 -0.05221756 43.41632748 -0.06943798 C47.10939722 -0.08053552 50.80243111 -0.08258567 54.49551582 -0.08205605 C56.27179027 -0.08323951 58.04806554 -0.08768168 59.82432365 -0.09538841 C62.3049754 -0.10514321 64.78530418 -0.1023283 67.26596069 -0.09628296 C68.00525818 -0.10190247 68.74455566 -0.10752197 69.5062561 -0.11331177 C74.5925767 -0.08167867 74.5925767 -0.08167867 76.82089233 2.14663696 C76.57089233 4.70913696 76.57089233 4.70913696 75.82089233 7.14663696 C72.80280972 8.65567827 69.6840792 8.29396036 66.37362671 8.29190063 C65.2222094 8.29693855 65.2222094 8.29693855 64.04753113 8.30207825 C61.50321853 8.31159865 58.95897165 8.31353178 56.41464233 8.31460571 C54.65109225 8.3178171 52.88754243 8.32118108 51.12399292 8.32469177 C47.42513409 8.33068546 43.72629864 8.33253138 40.0274353 8.3319397 C35.27905988 8.33183796 30.53083361 8.34550099 25.78249359 8.36271191 C22.14003811 8.37380843 18.49761898 8.37585965 14.85514832 8.37532997 C13.10399358 8.37651323 11.352838 8.38095421 9.60169983 8.38866234 C7.15707824 8.39841677 4.71278438 8.39560258 2.26815796 8.38955688 C1.17559441 8.39798615 1.17559441 8.39798615 0.06095886 8.40658569 C-4.95079067 8.37495396 -4.95079067 8.37495396 -7.17910767 6.14663696 C-6.47819826 0.39917987 -5.6798788 0.03606908 0 0 Z " fill="#22292E" transform="translate(214.17910766601563,81.85336303710938)"/>
<path d="M0 0 C27.06 0 54.12 0 82 0 C82.495 2.475 82.495 2.475 83 5 C79.35188194 7.4320787 76.65514035 7.28233832 72.43920898 7.25878906 C71.28757263 7.26404602 71.28757263 7.26404602 70.1126709 7.26940918 C67.57372001 7.27821525 65.03504749 7.27238195 62.49609375 7.265625 C60.73397264 7.26697184 58.97185189 7.26891252 57.20973206 7.27142334 C53.51681988 7.27437296 49.82400445 7.27008165 46.13110352 7.26074219 C41.3905872 7.24933937 36.65029713 7.25591336 31.90978909 7.26788712 C28.27161443 7.27510296 24.63349371 7.27281921 20.99531746 7.26763153 C19.24695878 7.2662947 17.49859525 7.26794391 15.75024223 7.27259064 C13.31049435 7.2776523 10.87111669 7.26995131 8.43139648 7.25878906 C7.3411895 7.26486176 7.3411895 7.26486176 6.22895813 7.27105713 C1.22853068 7.22853068 1.22853068 7.22853068 -1 5 C-0.67 3.35 -0.34 1.7 0 0 Z " fill="#1B242D" transform="translate(208,97)"/>
<path d="M0 0 C3 1 3 1 4.25 2.75 C5.43932396 6.31797187 4.47178737 8.86771031 3.0625 12.25 C2 14 2 14 0 15 C-2.77282906 15.09992516 -5.51989419 15.13956966 -8.29296875 15.1328125 C-9.13924332 15.13422241 -9.98551788 15.13563232 -10.85743713 15.13708496 C-13.63416627 15.13923297 -16.41078227 15.13289954 -19.1875 15.125 C-20.12895874 15.1234491 -21.07041748 15.12189819 -22.04040527 15.12030029 C-33.95345601 15.09723558 -45.86550357 15.01595182 -57.77432251 14.68060303 C-59.70903762 14.62615284 -61.64395015 14.57886795 -63.57885742 14.53173828 C-64.74392822 14.49290527 -65.90899902 14.45407227 -67.109375 14.4140625 C-68.10936523 14.3826416 -69.10935547 14.3512207 -70.13964844 14.31884766 C-73.35904592 13.95997662 -76.01441903 13.25800516 -79 12 C-79.66 11.01 -80.32 10.02 -81 9 C-79.54087692 8.9845388 -79.54087692 8.9845388 -78.05227661 8.96876526 C-68.89939428 8.87114505 -59.74658166 8.76842191 -50.59381294 8.66066074 C-45.88792415 8.60542059 -41.18202915 8.55199884 -36.47607422 8.50268555 C-31.93731031 8.45505812 -27.39862333 8.4027159 -22.85995102 8.34705925 C-21.12556745 8.32662834 -19.39116278 8.30791649 -17.6567421 8.29092598 C-15.23348588 8.26689824 -12.81037572 8.23684154 -10.38720703 8.20532227 C-9.66503998 8.1995668 -8.94287292 8.19381134 -8.19882202 8.18788147 C-4.47454442 8.18376626 -4.47454442 8.18376626 -1 7 C-1.020625 6.030625 -1.04125 5.06125 -1.0625 4.0625 C-1 1 -1 1 0 0 Z M-78 13 C-76 14 -76 14 -76 14 Z " fill="#E2E5DC" transform="translate(291,81)"/>
<path d="M0 0 C20.23620751 -0.09344885 40.47237122 -0.16398192 60.70874977 -0.20724869 C70.10489745 -0.22787234 79.50091104 -0.25598918 88.89697266 -0.30175781 C97.08675869 -0.3416316 105.27644762 -0.36743425 113.46632802 -0.37635398 C117.80269287 -0.38156782 122.1387799 -0.39381805 126.47505569 -0.42292023 C130.55771671 -0.45009796 134.63998584 -0.45844029 138.72272873 -0.45243073 C140.21990845 -0.45352992 141.71710146 -0.46147003 143.21420288 -0.4768219 C145.26198344 -0.49678821 147.30829351 -0.49191693 149.35610962 -0.48101807 C150.50097651 -0.48470524 151.64584339 -0.48839241 152.82540321 -0.49219131 C156.7761768 0.1203389 158.94671828 1.45007557 162 4 C162.875 7.75 162.875 7.75 163 11 C162.67 10.01 162.34 9.02 162 8 C159.69 8 157.38 8 155 8 C154.67 6.35 154.34 4.7 154 3 C152.56946541 3.00333092 152.56946541 3.00333092 151.11003113 3.00672913 C138.80253077 3.03441814 126.4950267 3.0519109 114.1875 3.0625 C113.19965515 3.06335602 112.2118103 3.06421204 111.19403076 3.06509399 C83.12537813 3.08655802 55.06505366 2.96267948 27 2.5 C25.91123377 2.48206327 25.91123377 2.48206327 24.80047226 2.46376419 C16.20009272 2.32103619 7.5999393 2.16730771 -1 2 C-0.67 1.34 -0.34 0.68 0 0 Z " fill="#AFB1AF" transform="translate(150,120)"/>
<path d="M0 0 C6.15234375 -0.09765625 6.15234375 -0.09765625 8 0 C9.93629755 1.93629755 9.413051 5.47603942 9.5625 8.125 C9.6049585 8.83333984 9.64741699 9.54167969 9.69116211 10.27148438 C10.08986713 17.51716592 10.09381071 24.74530515 10 32 C7.47524538 33.26237731 5.68799534 33.09856404 2.875 33.0625 C1.96492187 33.05347656 1.05484375 33.04445312 0.1171875 33.03515625 C-0.58148438 33.02355469 -1.28015625 33.01195312 -2 33 C-2.02698422 30.56242587 -2.04683099 28.12515085 -2.0625 25.6875 C-2.07087891 24.99720703 -2.07925781 24.30691406 -2.08789062 23.59570312 C-2.10307906 20.4516975 -2.00193327 18.00579981 -1 15 C-0.77281504 12.43365139 -0.58391816 9.88321893 -0.4375 7.3125 C-0.39431641 6.61060547 -0.35113281 5.90871094 -0.30664062 5.18554688 C-0.2008264 3.45724794 -0.09993419 1.7286489 0 0 Z " fill="#1C1F24" transform="translate(214,164)"/>
<path d="M0 0 C5.87155408 -0.07433795 11.74283219 -0.12869117 17.61474609 -0.16479492 C19.61088841 -0.17985098 21.60699781 -0.20030027 23.60302734 -0.22631836 C26.47762185 -0.26284161 29.35177772 -0.27975837 32.2265625 -0.29296875 C33.55815903 -0.31619453 33.55815903 -0.31619453 34.91665649 -0.33988953 C40.09800904 -0.34128652 43.54384117 0.1025753 48 3 C48.51873184 3.56923187 49.03746368 4.13846375 49.57191467 4.72494507 C56.35016272 11.54440839 64.0716911 10.90941235 73.11378479 10.94554138 C75.25424683 10.93188757 77.39470412 10.91747069 79.53515625 10.90234375 C81.74191253 10.91173505 83.94865768 10.92419667 86.15538025 10.93959045 C91.94071452 10.97175049 97.72525425 10.96239742 103.51062012 10.94421387 C109.42318339 10.93303777 115.33554522 10.96137707 121.24804688 10.98632812 C132.83217295 11.02942159 144.41584459 11.0286326 156 11 C155.67 11.66 155.34 12.32 155 13 C146.1415443 14.8868427 136.4818403 14.14651199 127.44921875 14.1328125 C125.861801 14.13348819 124.27438335 14.1344604 122.68696594 14.13571167 C119.37471523 14.13717749 116.06249167 14.13507111 112.75024414 14.13037109 C108.54479388 14.1246886 104.33940767 14.1279506 100.13395977 14.13394356 C96.85904984 14.13759154 93.58415458 14.13639109 90.30924416 14.13381577 C88.76059778 14.13315742 87.21195 14.1339358 85.66330528 14.13629532 C58.56837711 14.16851821 58.56837711 14.16851821 52 10 C51.01 10 50.02 10 49 10 C49 9.34 49 8.68 49 8 C47.68 8.33 46.36 8.66 45 9 C44.505 6.525 44.505 6.525 44 4 C35.48951876 2.02655508 27.37232088 1.870238 18.68017578 1.96875 C12.39670224 2.03248384 6.23925448 1.81826288 0 1 C0 0.67 0 0.34 0 0 Z " fill="#E0E1DB" transform="translate(125,61)"/>
<path d="M0 0 C2.5882143 2.5882143 2.25217885 3.61015438 2.25828552 7.21136475 C2.26511353 8.31611145 2.27194153 9.42085815 2.27897644 10.55908203 C2.27642349 11.7767627 2.27387054 12.99444336 2.27124023 14.24902344 C2.27926356 16.21101281 2.2872893 18.17300218 2.29540551 20.13499117 C2.30227057 22.24798179 2.30426141 24.36092916 2.30496025 26.47393036 C2.30689851 30.87805625 2.32493951 35.28202427 2.34571838 39.68609619 C2.39494715 50.62882151 2.42576908 61.57158993 2.44702148 72.5144043 C2.46355153 81.01116435 2.48639752 89.50778972 2.53004223 98.00445962 C2.55180231 102.37999711 2.55987789 106.75527867 2.55764949 111.13086653 C2.55971161 114.49844987 2.58107748 117.86586518 2.59936523 121.23339844 C2.59478806 122.44298218 2.59021088 123.65256592 2.585495 124.89880371 C2.63698739 130.85525863 2.9017179 134.8954508 6 140 C5.505 140.99 5.505 140.99 5 142 C-0.67010504 134.26803858 -0.30284032 124.14527705 -0.3347168 114.96020508 C-0.34636871 113.79956039 -0.35802063 112.63891571 -0.37002563 111.44309998 C-0.4057931 107.63525796 -0.42781522 103.82747893 -0.44921875 100.01953125 C-0.47049085 97.36015509 -0.49241514 94.70079142 -0.51509094 92.04142761 C-0.56098796 86.48118323 -0.59943423 80.92092713 -0.63305664 75.3605957 C-0.67190589 68.94616036 -0.72120583 62.53187257 -0.77638692 56.1175583 C-0.82954443 49.92393841 -0.87665524 43.73028822 -0.92057228 37.5365963 C-0.93959635 34.91037699 -0.95995007 32.28416696 -0.98166466 29.65796852 C-1.01088262 25.98919474 -1.03316017 22.32044387 -1.0534668 18.65161133 C-1.06327072 17.57040009 -1.07307465 16.48918884 -1.08317566 15.37521362 C-1.10482181 10.13282696 -0.92525282 5.16369475 0 0 Z " fill="#0D1015" transform="translate(102,74)"/>
<path d="M0 0 C17.12424826 -0.1168077 34.24837217 -0.2049754 51.37292767 -0.25906086 C59.32419338 -0.28484134 67.27521154 -0.31998855 75.22631836 -0.37719727 C82.1566164 -0.42703743 89.08673516 -0.45929216 96.01720744 -0.47044247 C99.68686002 -0.47696035 103.35599973 -0.49227483 107.0254879 -0.52865028 C111.12228508 -0.56893213 115.21819099 -0.56994907 119.31518555 -0.56762695 C120.53150665 -0.58560333 121.74782776 -0.60357971 123.00100708 -0.62210083 C132.15422558 -0.56580493 132.15422558 -0.56580493 135.27326965 2.35969543 C137.15827405 5.24201329 137.481641 6.62851298 137 10 C136.67 9.01 136.34 8.02 136 7 C133.69 7 131.38 7 129 7 C128.67 5.35 128.34 3.7 128 2 C126.98635376 2.00222061 125.97270752 2.00444122 124.92834473 2.00672913 C115.16928774 2.02738923 105.41023542 2.04217156 95.65116119 2.05181217 C90.63917601 2.05693571 85.62720906 2.06382991 80.61523438 2.07543945 C53.72643462 2.13609578 26.87654413 1.83181982 0 1 C0 0.67 0 0.34 0 0 Z " fill="#DFE1D9" transform="translate(176,121)"/>
<path d="M0 0 C3 1 3 1 4.625 2.875 C7.71577813 9.89949574 7.26105507 17.57378684 6 25 C5.67 24.01 5.34 23.02 5 22 C3.576875 23.2375 3.576875 23.2375 2.125 24.5 C-0.75 27 -0.75 27 -3 27 C-2.835 26.21625 -2.67 25.4325 -2.5 24.625 C-1.50625437 17.42034415 -0.97384104 11.37475168 -5 5 C-3.35 3.35 -1.7 1.7 0 0 Z " fill="#242B32" transform="translate(315,117)"/>
<path d="M0 0 C27.06 0 54.12 0 82 0 C82.495 1.98 82.495 1.98 83 4 C82.505 3.01 82.505 3.01 82 2 C54.94 2.33 27.88 2.66 0 3 C0 2.01 0 1.02 0 0 Z " fill="#050A0A" transform="translate(208,97)"/>
<path d="M0 0 C1.45823212 -0.0270043 2.91660675 -0.04639787 4.375 -0.0625 C5.18710938 -0.07410156 5.99921875 -0.08570313 6.8359375 -0.09765625 C9 0 9 0 11 1 C10.85973717 3.31284456 10.71264442 5.62527591 10.5625 7.9375 C10.48128906 9.22527344 10.40007812 10.51304687 10.31640625 11.83984375 C10 15 10 15 9 16 C2.53846154 16.35897436 2.53846154 16.35897436 -1 14 C-1.328125 11.50390625 -1.328125 11.50390625 -1.25 8.5625 C-1.23453125 7.59441406 -1.2190625 6.62632812 -1.203125 5.62890625 C-1 3 -1 3 0 0 Z " fill="#161C23" transform="translate(213,143)"/>
<path d="M0 0 C0.99 0.495 0.99 0.495 2 1 C2.33 8.59 2.66 16.18 3 24 C3.66 24.33 4.32 24.66 5 25 C5.33 22.36 5.66 19.72 6 17 C8 20 8 20 7.78393555 22.55615234 C7.570354 23.55598145 7.35677246 24.55581055 7.13671875 25.5859375 C6.90919922 26.68164062 6.68167969 27.77734375 6.44726562 28.90625 C6.19654297 30.0509375 5.94582031 31.195625 5.6875 32.375 C5.32881836 34.08042969 5.32881836 34.08042969 4.96289062 35.8203125 C4.51566161 37.94309313 4.06331224 40.06480591 3.60424805 42.18505859 C3.04597113 44.78583954 2.51494723 47.390337 2 50 C1.34 49.67 0.68 49.34 0 49 C0 32.83 0 16.66 0 0 Z " fill="#8C8E89" transform="translate(112,159)"/>
<path d="M0 0 C1.12535156 0.00580078 1.12535156 0.00580078 2.2734375 0.01171875 C3.02367187 0.00785156 3.77390625 0.00398437 4.546875 0 C10.14682697 0.01010822 10.14682697 0.01010822 11.2734375 1.13671875 C11.50873162 6.66613051 11.50873162 6.66613051 10.2734375 9.13671875 C7.62753736 9.16356554 4.98190654 9.18348232 2.3359375 9.19921875 C1.20381836 9.21178711 1.20381836 9.21178711 0.04882812 9.22460938 C-1.87650563 9.23324316 -3.80191831 9.18896208 -5.7265625 9.13671875 C-6.7265625 8.13671875 -6.7265625 8.13671875 -6.8515625 4.63671875 C-6.65223054 -0.94457606 -5.11720538 0.00923683 0 0 Z " fill="#13181E" transform="translate(235.7265625,165.86328125)"/>
<path d="M0 0 C1.48831242 0.00667405 2.97660807 0.01863442 4.46484375 0.03515625 C5.22345703 0.03966797 5.98207031 0.04417969 6.76367188 0.04882812 C8.64326246 0.06064945 10.52281274 0.07858547 12.40234375 0.09765625 C13.02734375 3.47265625 13.02734375 3.47265625 13.40234375 7.09765625 C11.40234375 9.09765625 11.40234375 9.09765625 7.9609375 9.328125 C6.58717071 9.32413536 5.21340261 9.30938802 3.83984375 9.28515625 C3.14181641 9.28451172 2.44378906 9.28386719 1.72460938 9.28320312 C-3.45734467 9.23796783 -3.45734467 9.23796783 -4.59765625 8.09765625 C-4.72265625 4.59765625 -4.72265625 4.59765625 -4.59765625 1.09765625 C-3.59765625 0.09765625 -3.59765625 0.09765625 0 0 Z " fill="#0F141A" transform="translate(193.59765625,165.90234375)"/>
<path d="M0 0 C0.7425 0.78375 1.485 1.5675 2.25 2.375 C4.60068345 4.6188342 6.08637535 5.77815741 9 7 C9.55204102 7.33821777 10.10408203 7.67643555 10.67285156 8.02490234 C13.87994147 9.36870397 16.70094203 9.32871169 20.171875 9.4140625 C20.8542926 9.43342865 21.53671021 9.4527948 22.23980713 9.4727478 C24.40974608 9.53231098 26.57973877 9.57883446 28.75 9.625 C30.22528297 9.66320131 31.70054415 9.7022543 33.17578125 9.7421875 C36.78365418 9.83799235 40.39169083 9.92210916 44 10 C44 10.33 44 10.66 44 11 C42.80922852 11.00410889 41.61845703 11.00821777 40.39160156 11.01245117 C35.97058924 11.03423471 31.55046792 11.08851595 27.12988281 11.15258789 C25.21720931 11.17577476 23.30440801 11.19016523 21.39160156 11.19555664 C18.64046526 11.20484137 15.89134088 11.24581927 13.140625 11.29296875 C12.28631897 11.2890361 11.43201294 11.28510345 10.55181885 11.28105164 C5.4196391 11.38231715 5.4196391 11.38231715 1.42871094 14.54418945 C0.95723633 15.35460693 0.48576172 16.16502441 0 17 C-1.35384615 10.6 -1.35384615 10.6 0.4375 7.5625 C0.953125 7.046875 1.46875 6.53125 2 6 C1.01 5.67 0.02 5.34 -1 5 C-0.67 3.35 -0.34 1.7 0 0 Z " fill="#CED3CA" transform="translate(205,85)"/>
<path d="M0 0 C7.06580552 -0.0506353 14.1315644 -0.0857062 21.19750977 -0.10986328 C23.60214995 -0.11993201 26.00677786 -0.13358785 28.41137695 -0.15087891 C31.86412584 -0.17508874 35.3167131 -0.18647432 38.76953125 -0.1953125 C39.84773636 -0.20563507 40.92594147 -0.21595764 42.03681946 -0.22659302 C43.53803596 -0.22681961 43.53803596 -0.22681961 45.06958008 -0.22705078 C45.95116287 -0.231492 46.83274567 -0.23593323 47.74104309 -0.24050903 C50 0 50 0 53 2 C52.01 2.33 51.02 2.66 50 3 C49.66781808 6.00259517 49.66781808 6.00259517 51.5 7.6875 C51.995 8.120625 52.49 8.55375 53 9 C50.75 9.6875 50.75 9.6875 48 10 C45.875 8.6875 45.875 8.6875 44 7 C43.01 6.34 42.02 5.68 41 5 C41.66 4.01 42.32 3.02 43 2 C28.81 1.67 14.62 1.34 0 1 C0 0.67 0 0.34 0 0 Z " fill="#2B3237" transform="translate(121,53)"/>
<path d="M0 0 C0.33 0.66 0.66 1.32 1 2 C1.95003906 1.83628906 2.90007812 1.67257813 3.87890625 1.50390625 C8.56533049 0.83441707 13.21268306 0.89079078 17.9375 0.9375 C18.81212891 0.94201172 19.68675781 0.94652344 20.58789062 0.95117188 C22.72529047 0.96285166 24.86265463 0.98078311 27 1 C27 1.33 27 1.66 27 2 C25.35 2.33 23.7 2.66 22 3 C22.66 3.66 23.32 4.32 24 5 C16.41 5 8.82 5 1 5 C0.67 3.35 0.34 1.7 0 0 Z " fill="#151C24" transform="translate(207,98)"/>
<path d="M0 0 C0 0.99 0 1.98 0 3 C0.63421875 3.44988281 1.2684375 3.89976562 1.921875 4.36328125 C4.60304492 6.47495455 4.73278194 7.8686841 5.25 11.1875 C5.39953125 12.08855469 5.5490625 12.98960937 5.703125 13.91796875 C5.85007813 14.94857422 5.85007813 14.94857422 6 16 C5.34 16 4.68 16 4 16 C3.731875 15.360625 3.46375 14.72125 3.1875 14.0625 C2.11332248 11.66868314 2.11332248 11.66868314 -1 11 C-1.33 9.35 -1.66 7.7 -2 6 C-4.31 5.34 -6.62 4.68 -9 4 C-9.33 2.68 -9.66 1.36 -10 0 C-2.25 -1.125 -2.25 -1.125 0 0 Z " fill="#C0C2BB" transform="translate(224,159)"/>
<path d="M0 0 C3 1 3 1 4.25 2.75 C5.43297261 6.29891783 4.42236232 8.83038127 3.1875 12.25 C2 14 2 14 0.25 14.8125 C-2.63175441 15.0526462 -5.17747815 14.57733402 -8 14 C-7.67 13.34 -7.34 12.68 -7 12 C-5.68 12 -4.36 12 -3 12 C-1.18711647 8.14762249 -0.90389996 5.22840198 -1 1 C-0.67 0.67 -0.34 0.34 0 0 Z " fill="#F5F7F2" transform="translate(291,81)"/>
<path d="M0 0 C-0.33 0.66 -0.66 1.32 -1 2 C-8.15479733 3.41174145 -15.66265202 3.09037606 -22.91796875 2.87890625 C-23.90122635 2.85529526 -24.88448395 2.83168427 -25.89753723 2.80735779 C-28.99437373 2.73165224 -32.09089881 2.64723587 -35.1875 2.5625 C-37.30532402 2.50918574 -39.4231626 2.45644625 -41.54101562 2.40429688 C-46.69420227 2.27616553 -51.84712896 2.14022932 -57 2 C-57 1.67 -57 1.34 -57 1 C-50.97180595 0.85562132 -44.94356804 0.71329119 -38.9152832 0.57275391 C-36.87002294 0.52479675 -34.8247751 0.47630669 -32.77954102 0.42724609 C-21.85167134 0.16546872 -10.9317774 -0.09411551 0 0 Z " fill="#F3F4EB" transform="translate(281,72)"/>
<path d="M0 0 C11.89771646 -0.57159848 11.89771646 -0.57159848 17 3 C19.88092425 5.97695506 20 6.66821748 20 11 C18.0625 10.25 18.0625 10.25 16 9 C15.25 6.875 15.25 6.875 15 5 C13.02 5.99 13.02 5.99 11 7 C11 5.68 11 4.36 11 3 C10.01 2.67 9.02 2.34 8 2 C8 2.66 8 3.32 8 4 C3.545 3.01 3.545 3.01 -1 2 C-0.67 1.34 -0.34 0.68 0 0 Z " fill="#EFF0E6" transform="translate(282,72)"/>
<path d="M0 0 C5.92650126 -0.04939701 11.85288297 -0.08571817 17.77954102 -0.10986328 C19.79616381 -0.11992773 21.81277199 -0.13358047 23.8293457 -0.15087891 C26.72611089 -0.17510769 29.62268331 -0.18647859 32.51953125 -0.1953125 C33.42274612 -0.20563507 34.325961 -0.21595764 35.25654602 -0.22659302 C36.09719101 -0.22674408 36.937836 -0.22689514 37.80395508 -0.22705078 C38.54341873 -0.231492 39.28288239 -0.23593323 40.04475403 -0.24050903 C42 0 42 0 45 2 C44.67 2.66 44.34 3.32 44 4 C43.37738281 3.855625 42.75476563 3.71125 42.11328125 3.5625 C34.23067781 1.97938299 26.69544112 1.87790938 18.68017578 1.96875 C12.39670224 2.03248384 6.23925448 1.81826288 0 1 C0 0.67 0 0.34 0 0 Z " fill="#EAECE5" transform="translate(125,61)"/>
<path d="M0 0 C1.45823212 -0.0270043 2.91660675 -0.04639787 4.375 -0.0625 C5.18710938 -0.07410156 5.99921875 -0.08570313 6.8359375 -0.09765625 C9 0 9 0 11 1 C10.67 2.65 10.34 4.3 10 6 C8.35333797 5.8864371 6.70763918 5.75882619 5.0625 5.625 C3.68771484 5.52058594 3.68771484 5.52058594 2.28515625 5.4140625 C1.15400391 5.20910156 1.15400391 5.20910156 0 5 C-0.33 4.34 -0.66 3.68 -1 3 C-0.67 2.01 -0.34 1.02 0 0 Z " fill="#292D2F" transform="translate(213,143)"/>
<path d="M0 0 C1.32 1.32 2.64 2.64 4 4 C3.67 4.99 3.34 5.98 3 7 C-3.27 6.34 -9.54 5.68 -16 5 C-16 4.67 -16 4.34 -16 4 C-14.08404518 3.66259915 -12.16720278 3.33023588 -10.25 3 C-9.18265625 2.814375 -8.1153125 2.62875 -7.015625 2.4375 C-4 2 -4 2 0 2 C0 1.34 0 0.68 0 0 Z " fill="#182127" transform="translate(298,67)"/>
<path d="M0 0 C1.38226016 2.76452033 1.09525387 5.0461363 1.0625 8.125 C1.05347656 9.22070312 1.04445312 10.31640625 1.03515625 11.4453125 C1.02355469 12.28835937 1.01195312 13.13140625 1 14 C-0.98 14.99 -0.98 14.99 -3 16 C-5 14 -5 14 -5.01171875 11.90625 C-4.90472656 11.1121875 -4.79773438 10.318125 -4.6875 9.5 C-4.58824219 8.7059375 -4.48898438 7.911875 -4.38671875 7.09375 C-4 5 -4 5 -3 3 C-2.34 3 -1.68 3 -1 3 C-0.67 2.01 -0.34 1.02 0 0 Z " fill="#83847C" transform="translate(212,144)"/>
<path d="M0 0 C5.28 0 10.56 0 16 0 C16.33 2.31 16.66 4.62 17 7 C15.02 7.99 15.02 7.99 13 9 C13 7.35 13 5.7 13 4 C12.34 3.67 11.68 3.34 11 3 C11.33 2.67 11.66 2.34 12 2 C8.04 1.67 4.08 1.34 0 1 C0 0.67 0 0.34 0 0 Z " fill="#171C1F" transform="translate(190,166)"/>
<path d="M0 0 C2.99254618 1.40191353 5.5954611 3.03367489 8.25 5 C8.95640625 5.515625 9.6628125 6.03125 10.390625 6.5625 C11.18726563 7.2740625 11.18726563 7.2740625 12 8 C12 8.66 12 9.32 12 10 C9.33333333 9.33333333 6.66666667 8.66666667 4 8 C4 7.34 4 6.68 4 6 C2.68 6.33 1.36 6.66 0 7 C0 4.69 0 2.38 0 0 Z " fill="#E1DFD6" transform="translate(170,63)"/>
<path d="M0 0 C0 2.64 0 5.28 0 8 C-2.97 7.01 -5.94 6.02 -9 5 C-9 4.01 -9 3.02 -9 2 C-2.25 0 -2.25 0 0 0 Z " fill="#757874" transform="translate(212,189)"/>
<path d="M0 0 C0.33 0 0.66 0 1 0 C1.66 1.98 2.32 3.96 3 6 C3.66 5.67 4.32 5.34 5 5 C5 5.99 5 6.98 5 8 C4.236875 8.391875 3.47375 8.78375 2.6875 9.1875 C-1.20926246 11.8155491 -1.62025138 14.57028074 -3 19 C-4.56329053 15.87341894 -3.37838897 13.4112794 -2.625 10.0625 C-2.34914062 8.81597656 -2.07328125 7.56945312 -1.7890625 6.28515625 C-1 3 -1 3 0 0 Z " fill="#979995" transform="translate(138,136)"/>
<path d="M0 0 C3 2 3 2 3.77734375 3.703125 C4.09068374 6.93547442 3.34780884 9.60876465 2.5625 12.75 C2.27503906 13.92046875 1.98757812 15.0909375 1.69140625 16.296875 C1.34916016 17.63492188 1.34916016 17.63492188 1 19 C0.34 18.67 -0.32 18.34 -1 18 C-0.505 9.09 -0.505 9.09 0 0 Z " fill="#7D807D" transform="translate(113,190)"/>
<path d="M0 0 C1.953125 1.3828125 1.953125 1.3828125 2.78125 3.765625 C2.92046875 4.67054688 3.0596875 5.57546875 3.203125 6.5078125 C3.35265625 7.41789063 3.5021875 8.32796875 3.65625 9.265625 C3.75421875 9.96429688 3.8521875 10.66296875 3.953125 11.3828125 C3.293125 11.3828125 2.633125 11.3828125 1.953125 11.3828125 C1.685 10.7434375 1.416875 10.1040625 1.140625 9.4453125 C0.06644748 7.05149564 0.06644748 7.05149564 -3.046875 6.3828125 C-3.376875 4.4028125 -3.706875 2.4228125 -4.046875 0.3828125 C-2.046875 -0.6171875 -2.046875 -0.6171875 0 0 Z " fill="#B5B6B1" transform="translate(226.046875,163.6171875)"/>
<path d="M0 0 C0.99 0 1.98 0 3 0 C3 10.89 3 21.78 3 33 C2.67 33 2.34 33 2 33 C1.97494385 32.17798096 1.9498877 31.35596191 1.92407227 30.5090332 C1.80787345 26.77670626 1.68525495 23.04461683 1.5625 19.3125 C1.52318359 18.01892578 1.48386719 16.72535156 1.44335938 15.39257812 C1.40146484 14.14541016 1.35957031 12.89824219 1.31640625 11.61328125 C1.27974854 10.46641846 1.24309082 9.31955566 1.20532227 8.13793945 C1.02159702 5.33006722 0.6300618 2.73774186 0 0 Z " fill="#131719" transform="translate(301,77)"/>
<path d="M0 0 C0.66 0 1.32 0 2 0 C3.07310858 3.27185553 2.89263102 5.42947592 2.0625 8.75 C1.86785156 9.54921875 1.67320313 10.3484375 1.47265625 11.171875 C1.23869141 12.07679688 1.23869141 12.07679688 1 13 C0.34 13 -0.32 13 -1 13 C-1.66 11.02 -2.32 9.04 -3 7 C-2.34 6.34 -1.68 5.68 -1 5 C-0.35232207 2.42938689 -0.35232207 2.42938689 0 0 Z " fill="#A8A8A4" transform="translate(124,140)"/>
<path d="M0 0 C0.33 0.66 0.66 1.32 1 2 C0.34 2 -0.32 2 -1 2 C-1.226875 2.5775 -1.45375 3.155 -1.6875 3.75 C-3.33038023 6.5663661 -5.39533227 8.08077114 -8 10 C-8.66 9.67 -9.32 9.34 -10 9 C-7.51091055 4.15282582 -4.75777476 2.37888738 0 0 Z " fill="#9A9C91" transform="translate(210,145)"/>
<path d="M0 0 C0.66 0.33 1.32 0.66 2 1 C1.88570603 2.77155654 1.75816963 4.54226229 1.625 6.3125 C1.55539063 7.29863281 1.48578125 8.28476563 1.4140625 9.30078125 C1 12 1 12 -1 15 C-1.38499891 16.65549531 -1.72793135 18.3222433 -2 20 C-2.33 20 -2.66 20 -3 20 C-2.45136137 13.2142064 -1.45732062 6.64990964 0 0 Z " fill="#777977" transform="translate(125,196)"/>
<path d="M0 0 C0.66 0 1.32 0 2 0 C1.57910004 5.60461531 1.08386889 10.72086547 -1 16 C-1.12375 15.46375 -1.2475 14.9275 -1.375 14.375 C-2.12206016 11.5361714 -3.05303364 8.77776798 -4 6 C-3.01 6 -2.02 6 -1 6 C-0.67 4.02 -0.34 2.04 0 0 Z " fill="#C9C9C2" transform="translate(304,170)"/>
<path d="M0 0 C0.66 0 1.32 0 2 0 C1.22095672 11.52164009 1.22095672 11.52164009 -1 17 C-1.33 17 -1.66 17 -2 17 C-2 13.7 -2 10.4 -2 7 C-1.34 7 -0.68 7 0 7 C0 4.69 0 2.38 0 0 Z " fill="#101318" transform="translate(134,142)"/>
<path d="M0 0 C0 1.32 0 2.64 0 4 C-3.3 3.67 -6.6 3.34 -10 3 C-10 2.34 -10 1.68 -10 1 C-6.52674819 -0.1577506 -3.63932552 -0.06866652 0 0 Z " fill="#1D252E" transform="translate(288,100)"/>
<path d="M0 0 C3 1 3 1 4.25 2.875 C5 5 5 5 4 8 C2.35 8 0.7 8 -1 8 C-1.04241723 5.66705225 -1.04092937 3.33297433 -1 1 C-0.67 0.67 -0.34 0.34 0 0 Z " fill="#E4E6E2" transform="translate(291,81)"/>
<path d="M0 0 C3.63 0 7.26 0 11 0 C11 0.99 11 1.98 11 3 C10.01 2.67 9.02 2.34 8 2 C8 2.66 8 3.32 8 4 C3.545 3.01 3.545 3.01 -1 2 C-0.67 1.34 -0.34 0.68 0 0 Z " fill="#F4F7ED" transform="translate(282,72)"/>
<path d="M0 0 C0.33 0.99 0.66 1.98 1 3 C0.01 3.495 0.01 3.495 -1 4 C-0.67 2.68 -0.34 1.36 0 0 Z M-3 3 C-2.34 3.66 -1.68 4.32 -1 5 C-1.2421875 7.3828125 -1.2421875 7.3828125 -1.875 10.125 C-2.07867187 11.03507813 -2.28234375 11.94515625 -2.4921875 12.8828125 C-2.65976562 13.58148438 -2.82734375 14.28015625 -3 15 C-3.66 15 -4.32 15 -5 15 C-4.34 11.04 -3.68 7.08 -3 3 Z " fill="#2A2D2E" transform="translate(307,177)"/>
<path d="M0 0 C0.99 0.33 1.98 0.66 3 1 C2.67 3.31 2.34 5.62 2 8 C1.34 8 0.68 8 0 8 C-0.33 8.99 -0.66 9.98 -1 11 C-1.0270043 9.54176788 -1.04639787 8.08339325 -1.0625 6.625 C-1.07410156 5.81289062 -1.08570313 5.00078125 -1.09765625 4.1640625 C-1 2 -1 2 0 0 Z " fill="#9D9E9C" transform="translate(140,128)"/>
<path d="M0 0 C7.26 0.33 14.52 0.66 22 1 C22 1.33 22 1.66 22 2 C21.06148193 2.03758423 21.06148193 2.03758423 20.10400391 2.07592773 C17.27745381 2.19175273 14.45124831 2.31453985 11.625 2.4375 C10.14773437 2.49647461 10.14773437 2.49647461 8.640625 2.55664062 C7.22910156 2.61948242 7.22910156 2.61948242 5.7890625 2.68359375 C4.91975098 2.72025146 4.05043945 2.75690918 3.15478516 2.79467773 C0.9516738 2.87401544 0.9516738 2.87401544 -1 4 C-0.67 2.68 -0.34 1.36 0 0 Z " fill="#0F161B" transform="translate(208,83)"/>
<path d="M0 0 C5.94 0 11.88 0 18 0 C17.01 0.99 16.02 1.98 15 3 C14.34 2.67 13.68 2.34 13 2 C10.7927077 1.92907158 8.58332548 1.91584975 6.375 1.9375 C4.59222656 1.95103516 4.59222656 1.95103516 2.7734375 1.96484375 C1.40058594 1.98224609 1.40058594 1.98224609 0 2 C0 1.34 0 0.68 0 0 Z " fill="#13171B" transform="translate(122,217)"/>
<path d="M0 0 C1.93166016 0.01740234 1.93166016 0.01740234 3.90234375 0.03515625 C5.19269531 0.04417969 6.48304688 0.05320313 7.8125 0.0625 C8.81152344 0.07410156 9.81054688 0.08570313 10.83984375 0.09765625 C10.83984375 0.42765625 10.83984375 0.75765625 10.83984375 1.09765625 C6.54984375 1.75765625 2.25984375 2.41765625 -2.16015625 3.09765625 C-2.16015625 4.08765625 -2.16015625 5.07765625 -2.16015625 6.09765625 C-2.82015625 6.09765625 -3.48015625 6.09765625 -4.16015625 6.09765625 C-4.20287725 4.4315372 -4.20079457 2.7638274 -4.16015625 1.09765625 C-3.16015625 0.09765625 -3.16015625 0.09765625 0 0 Z " fill="#080C0E" transform="translate(233.16015625,165.90234375)"/>
<path d="M0 0 C1.32 0.66 2.64 1.32 4 2 C3.67 2.99 3.34 3.98 3 5 C2.01 5 1.02 5 0 5 C0 7.64 0 10.28 0 13 C-0.33 13 -0.66 13 -1 13 C-1.02708567 11.39592672 -1.04643483 9.7917215 -1.0625 8.1875 C-1.07410156 7.29417969 -1.08570313 6.40085938 -1.09765625 5.48046875 C-1 3 -1 3 0 0 Z " fill="#919492" transform="translate(224,144)"/>
<path d="M0 0 C-1.75 2 -1.75 2 -4 4 C-5.32 4 -6.64 4 -8 4 C-8 2.68 -8 1.36 -8 0 C-4.71303767 -0.79953138 -3.28976808 -1.09658936 0 0 Z " fill="#B9B9B2" transform="translate(141,114)"/>
<path d="M0 0 C0.66 0.99 1.32 1.98 2 3 C1.1875 6.375 1.1875 6.375 0 10 C-0.35371498 11.66246041 -0.69595322 13.32774271 -1 15 C-1.33 15 -1.66 15 -2 15 C-2.3690205 4.44191344 -2.3690205 4.44191344 0 0 Z " fill="#121519" transform="translate(120,177)"/>
<path d="M0 0 C-0.66 1.32 -1.32 2.64 -2 4 C-4.31 4 -6.62 4 -9 4 C-4.5 0 -4.5 0 0 0 Z " fill="#272B2B" transform="translate(147,113)"/>
<path d="M0 0 C0.66 0.33 1.32 0.66 2 1 C2.33 1.99 2.66 2.98 3 4 C1.0625 6.6875 1.0625 6.6875 -1 9 C-1.625 5.625 -1.625 5.625 -2 2 C-1.34 1.34 -0.68 0.68 0 0 Z " fill="#CBCBC3" transform="translate(206,93)"/>
<path d="M0 0 C2.625 0.375 2.625 0.375 5 1 C3.22555028 3.24606427 2.41647515 3.95081002 -0.48046875 4.29296875 C-1.82044922 4.24076172 -1.82044922 4.24076172 -3.1875 4.1875 C-4.53908203 4.14689453 -4.53908203 4.14689453 -5.91796875 4.10546875 C-6.60503906 4.07066406 -7.29210937 4.03585938 -8 4 C-8 3.67 -8 3.34 -8 3 C-6.576875 2.814375 -6.576875 2.814375 -5.125 2.625 C-1.91332809 2.28312823 -1.91332809 2.28312823 0 0 Z " fill="#1E252E" transform="translate(272,100)"/>
<path d="M0 0 C1.2065625 0.0309375 1.2065625 0.0309375 2.4375 0.0625 C2.7675 1.0525 3.0975 2.0425 3.4375 3.0625 C1.1275 3.3925 -1.1825 3.7225 -3.5625 4.0625 C-3.5625 0.08689024 -3.5625 0.08689024 0 0 Z " fill="#1C242B" transform="translate(211.5625,84.9375)"/>
<path d="M0 0 C4.03174806 0.27489191 5.56894631 0.53491576 8.375 3.5625 C8.91125 4.366875 9.4475 5.17125 10 6 C9.01 6.33 8.02 6.66 7 7 C4.66666667 4.66666667 2.33333333 2.33333333 0 0 Z " fill="#434E53" transform="translate(295,65)"/>
<path d="M0 0 C0.66 0.66 1.32 1.32 2 2 C1.828125 4.34765625 1.828125 4.34765625 1.25 7.0625 C1.06953125 7.96097656 0.8890625 8.85945312 0.703125 9.78515625 C0.47109375 10.51605469 0.2390625 11.24695313 0 12 C-0.99 12.495 -0.99 12.495 -2 13 C-1.34 8.71 -0.68 4.42 0 0 Z " fill="#7F8081" transform="translate(136,142)"/>
<path d="M0 0 C0.33 0 0.66 0 1 0 C1.49230769 6.4 1.49230769 6.4 -1 9.4375 C-1.99 10.2109375 -1.99 10.2109375 -3 11 C-2.32829194 7.1936543 -1.27253436 3.64793184 0 0 Z " fill="#121518" transform="translate(300,202)"/>
<path d="M0 0 C0.33 0 0.66 0 1 0 C0.88601335 1.62580966 0.75844341 3.25067157 0.625 4.875 C0.52058594 6.23238281 0.52058594 6.23238281 0.4140625 7.6171875 C0 10 0 10 -2 12 C-2.28571429 3.42857143 -2.28571429 3.42857143 0 0 Z " fill="#111419" transform="translate(131,161)"/>
<path d="M0 0 C0.33 0.66 0.66 1.32 1 2 C1.99 1.67 2.98 1.34 4 1 C6.1875 1.9375 6.1875 1.9375 8 3 C5.69 3.66 3.38 4.32 1 5 C0.67 3.35 0.34 1.7 0 0 Z " fill="#1E252B" transform="translate(207,98)"/>
<path d="M0 0 C0.99 0.33 1.98 0.66 3 1 C2.34 2.98 1.68 4.96 1 7 C0.34 7 -0.32 7 -1 7 C-0.67 4.69 -0.34 2.38 0 0 Z " fill="#1F2123" transform="translate(244,166)"/>
<path d="M0 0 C0.33 0 0.66 0 1 0 C1.25 6.625 1.25 6.625 -1 10 C-2.15837626 5.94568308 -1.83691257 3.78187881 0 0 Z " fill="#888B88" transform="translate(133,161)"/>
<path d="M0 0 C1.33332095 2.6666419 0.67102033 4.16680303 0 7 C-1.32 7 -2.64 7 -4 7 C-3.67 5.68 -3.34 4.36 -3 3 C-2.34 3 -1.68 3 -1 3 C-0.67 2.01 -0.34 1.02 0 0 Z " fill="#5B5D59" transform="translate(212,144)"/>
<path d="M0 0 C0.33 0 0.66 0 1 0 C1.28571429 7.42857143 1.28571429 7.42857143 -1 11 C-2.23076923 4.6 -2.23076923 4.6 -1.0625 1.5625 C-0.711875 1.046875 -0.36125 0.53125 0 0 Z " fill="#0E1114" transform="translate(126,184)"/>
<path d="M0 0 C1.9451 2.91765 2.45276317 4.62537285 3 8 C2.01 8 1.02 8 0 8 C0 5.36 0 2.72 0 0 Z " fill="#16181D" transform="translate(121,168)"/>
<path d="M0 0 C0.33 0 0.66 0 1 0 C1 2.64 1 5.28 1 8 C0.01 8 -0.98 8 -2 8 C-2.33 7.01 -2.66 6.02 -3 5 C-2.34 5 -1.68 5 -1 5 C-0.67 3.35 -0.34 1.7 0 0 Z " fill="#0C1117" transform="translate(222,150)"/>
<path d="M0 0 C0.33 0.66 0.66 1.32 1 2 C0.34 2 -0.32 2 -1 2 C-1.268125 2.61875 -1.53625 3.2375 -1.8125 3.875 C-3 6 -3 6 -6 8 C-5.6875 6.0625 -5.6875 6.0625 -5 4 C-4.01 3.67 -3.02 3.34 -2 3 C-2 2.34 -2 1.68 -2 1 C-1.34 0.67 -0.68 0.34 0 0 Z " fill="#878981" transform="translate(210,145)"/>
<path d="M0 0 C2.5 1.375 2.5 1.375 5 3 C5 3.66 5 4.32 5 5 C3.35 4.67 1.7 4.34 0 4 C0 2.68 0 1.36 0 0 Z " fill="#E5E6DF" transform="translate(307,121)"/>
</svg>
