<svg xmlns="http://www.w3.org/2000/svg" data-name="Layer 1" viewBox="0 0 512 640" x="0px" y="0px"><title>User Info</title><path fill=" #4495FF" d="M446,44H66A50.018,50.018,0,0,0,16,94V418a50.018,50.018,0,0,0,50,50H446a50.018,50.018,0,0,0,50-50V94A50.018,50.018,0,0,0,446,44ZM66,64H446a30.088,30.088,0,0,1,30,30v41.7H36V94A30.088,30.088,0,0,1,66,64ZM446,448H66a30.088,30.088,0,0,1-30-30V155.7H476V418A30.088,30.088,0,0,1,446,448Z"/><path fill=" #4495FF" d="M159.4,302a51.7,51.7,0,1,0-51.7-51.7A51.768,51.768,0,0,0,159.4,302Zm0-83.3a31.7,31.7,0,1,1-31.7,31.7A31.71,31.71,0,0,1,159.4,218.7Z"/><path  fill=" #4495FF" d="M159.4,321.1a77.588,77.588,0,0,0-56.2,23.5C88.2,359.9,80,380.7,80,403.3a10.029,10.029,0,0,0,10,10H228.8a10.029,10.029,0,0,0,10-10c0-22.6-8.2-43.4-23.2-58.7A77.588,77.588,0,0,0,159.4,321.1Zm-58.7,72.2a61.165,61.165,0,0,1,16.8-34.7,58.91,58.91,0,0,1,83.8,0,61.473,61.473,0,0,1,16.8,34.7Z"/><path fill=" #4495FF"  d="M421.4,325.1H294.9a10,10,0,0,0,0,20H421.4a10,10,0,0,0,0-20Z"/><path fill=" #4495FF"  d="M421.4,383.3H294.9a10,10,0,0,0,0,20H421.4a10,10,0,0,0,0-20Z"/><path  fill=" #4495FF" d="M421.4,208.7H294.9a10,10,0,0,0,0,20H421.4a10,10,0,0,0,0-20Z"/><path fill=" #4495FF"  d="M421.4,266.9H294.9a10,10,0,0,0,0,20H421.4a10,10,0,0,0,0-20Z"/></svg>